<svg xmlns="http://www.w3.org/2000/svg" xmlns:xlink="http://www.w3.org/1999/xlink" width="500" zoomAndPan="magnify" viewBox="0 0 375 374.999991" height="500" preserveAspectRatio="xMidYMid meet" version="1.0"><defs><g/></defs><g fill="#96695e" fill-opacity="1"><g transform="translate(72.178188, 210.084478)"><g><path d="M 20.453125 -126.125 C 27.890625 -129.21875 35.046875 -130.765625 41.921875 -130.765625 C 47.648438 -130.765625 53.550781 -128.644531 59.625 -124.40625 C 62.945312 -122.113281 66.671875 -117.644531 70.796875 -111 C 73.546875 -106.414062 77.039062 -98.109375 81.28125 -86.078125 L 102.234375 -26.640625 C 107.046875 -13.347656 111.941406 -2.78125 116.921875 5.0625 C 121.910156 12.914062 126.46875 18.816406 130.59375 22.765625 C 134.71875 26.710938 139.007812 29.488281 143.46875 31.09375 C 147.9375 32.695312 151.628906 33.5 154.546875 33.5 C 157.472656 33.5 160.082031 33.269531 162.375 32.8125 L 162.546875 34.53125 C 157.046875 36.363281 151.660156 37.28125 146.390625 37.28125 C 141.128906 37.28125 135.863281 35.929688 130.59375 33.234375 C 125.320312 30.546875 120.394531 26.800781 115.8125 22 C 105.957031 12.03125 97.59375 -3.148438 90.71875 -23.546875 L 84.03125 -43.125 L 36.9375 -43.125 L 25.09375 -12.546875 C 24.519531 -11.171875 24.234375 -9.796875 24.234375 -8.421875 C 24.234375 -7.046875 24.832031 -5.582031 26.03125 -4.03125 C 27.238281 -2.488281 29.097656 -1.71875 31.609375 -1.71875 L 32.984375 -1.71875 L 32.984375 0 L -1.546875 0 L -1.546875 -1.71875 L 0 -1.71875 C 2.75 -1.71875 5.441406 -2.546875 8.078125 -4.203125 C 10.710938 -5.867188 12.890625 -8.363281 14.609375 -11.6875 L 57.21875 -113.75 C 51.03125 -122.570312 43.351562 -126.984375 34.1875 -126.984375 C 30.070312 -126.984375 25.664062 -126.125 20.96875 -124.40625 Z M 38.828125 -48.28125 L 82.3125 -48.28125 L 68.734375 -88.3125 C 66.097656 -95.988281 63.691406 -102.003906 61.515625 -106.359375 Z M 38.828125 -48.28125 "/></g></g></g><g fill="#5e8b96" fill-opacity="1"><g transform="translate(178.543543, 231.308013)"><g><path d="M 56.988281 1.355469 C 70.691406 1.355469 86.429688 -5.699219 94.300781 -16.6875 L 94.300781 -42.195312 L 76.523438 -42.195312 L 76.523438 -40.570312 C 82.359375 -39.078125 83.445312 -35.820312 83.445312 -27.40625 L 83.582031 -13.566406 C 80.1875 -6.785156 71.367188 -1.355469 61.191406 -1.355469 C 33.785156 -1.355469 17.773438 -29.441406 18.046875 -55.085938 C 18.316406 -80.050781 32.972656 -93.484375 52.507812 -93.484375 C 68.382812 -93.484375 80.867188 -84.257812 85.886719 -72.589844 L 87.242188 -72.863281 L 86.699219 -88.871094 C 81.410156 -92.398438 68.519531 -95.925781 56.445312 -95.925781 C 27.40625 -95.925781 7.054688 -74.082031 7.054688 -46.808594 C 7.054688 -17.640625 26.730469 1.355469 56.988281 1.355469 Z M 56.988281 1.355469 "/></g></g></g><g fill="#5e8b96" fill-opacity="1"><g transform="translate(69.985202, 236.787232)"><g><path d="M 8.859375 0 L 7.875 -2.8125 L 3.6875 -2.8125 L 2.703125 0 L 0.40625 0 L 4.421875 -11.015625 L 7.140625 -11.015625 L 11.140625 0 Z M 5.78125 -9.3125 L 5.734375 -9.140625 C 5.679688 -8.953125 5.617188 -8.738281 5.546875 -8.5 C 5.472656 -8.257812 5.023438 -6.941406 4.203125 -4.546875 L 7.359375 -4.546875 L 6.28125 -7.71875 L 5.9375 -8.78125 Z M 5.78125 -9.3125 "/></g></g></g><g fill="#5e8b96" fill-opacity="1"><g transform="translate(83.409071, 236.787232)"><g><path d="M 7.78125 0 L 2.984375 -8.484375 C 3.078125 -7.660156 3.125 -7 3.125 -6.5 L 3.125 0 L 1.078125 0 L 1.078125 -11.015625 L 3.703125 -11.015625 L 8.578125 -2.46875 C 8.484375 -3.25 8.4375 -3.960938 8.4375 -4.609375 L 8.4375 -11.015625 L 10.484375 -11.015625 L 10.484375 0 Z M 7.78125 0 "/></g></g></g><g fill="#5e8b96" fill-opacity="1"><g transform="translate(96.83294, 236.787232)"><g><path d="M 5.65625 0.15625 C 4.132812 0.15625 2.972656 -0.210938 2.171875 -0.953125 C 1.367188 -1.691406 0.96875 -2.75 0.96875 -4.125 L 0.96875 -11.015625 L 3.265625 -11.015625 L 3.265625 -4.3125 C 3.265625 -3.4375 3.472656 -2.773438 3.890625 -2.328125 C 4.304688 -1.878906 4.914062 -1.65625 5.71875 -1.65625 C 6.539062 -1.65625 7.171875 -1.890625 7.609375 -2.359375 C 8.054688 -2.828125 8.28125 -3.503906 8.28125 -4.390625 L 8.28125 -11.015625 L 10.578125 -11.015625 L 10.578125 -4.25 C 10.578125 -2.851562 10.144531 -1.769531 9.28125 -1 C 8.425781 -0.226562 7.21875 0.15625 5.65625 0.15625 Z M 5.65625 0.15625 "/></g></g></g><g fill="#5e8b96" fill-opacity="1"><g transform="translate(110.256811, 236.787232)"><g><path d="M 6.296875 -1.65625 C 6.898438 -1.65625 7.484375 -1.738281 8.046875 -1.90625 C 8.609375 -2.082031 9.039062 -2.304688 9.34375 -2.578125 L 9.34375 -4.109375 L 6.65625 -4.109375 L 6.65625 -5.8125 L 11.453125 -5.8125 L 11.453125 -1.765625 C 10.867188 -1.160156 10.109375 -0.6875 9.171875 -0.34375 C 8.242188 -0.0078125 7.265625 0.15625 6.234375 0.15625 C 4.441406 0.15625 3.0625 -0.335938 2.09375 -1.328125 C 1.132812 -2.328125 0.65625 -3.738281 0.65625 -5.5625 C 0.65625 -7.375 1.140625 -8.757812 2.109375 -9.71875 C 3.078125 -10.6875 4.472656 -11.171875 6.296875 -11.171875 C 8.878906 -11.171875 10.519531 -10.21875 11.21875 -8.3125 L 9.09375 -7.671875 C 8.863281 -8.222656 8.503906 -8.640625 8.015625 -8.921875 C 7.523438 -9.210938 6.953125 -9.359375 6.296875 -9.359375 C 5.210938 -9.359375 4.390625 -9.03125 3.828125 -8.375 C 3.265625 -7.71875 2.984375 -6.78125 2.984375 -5.5625 C 2.984375 -4.3125 3.269531 -3.347656 3.84375 -2.671875 C 4.425781 -1.992188 5.242188 -1.65625 6.296875 -1.65625 Z M 6.296875 -1.65625 "/></g></g></g><g fill="#5e8b96" fill-opacity="1"><g transform="translate(124.571085, 236.787232)"><g><path d="M 8.640625 0 L 6.078125 -4.1875 L 3.375 -4.1875 L 3.375 0 L 1.078125 0 L 1.078125 -11.015625 L 6.578125 -11.015625 C 7.890625 -11.015625 8.898438 -10.726562 9.609375 -10.15625 C 10.328125 -9.59375 10.6875 -8.785156 10.6875 -7.734375 C 10.6875 -6.960938 10.46875 -6.296875 10.03125 -5.734375 C 9.59375 -5.171875 9 -4.800781 8.25 -4.625 L 11.234375 0 Z M 8.359375 -7.640625 C 8.359375 -8.691406 7.679688 -9.21875 6.328125 -9.21875 L 3.375 -9.21875 L 3.375 -5.96875 L 6.390625 -5.96875 C 7.035156 -5.96875 7.523438 -6.113281 7.859375 -6.40625 C 8.191406 -6.695312 8.359375 -7.109375 8.359375 -7.640625 Z M 8.359375 -7.640625 "/></g></g></g><g fill="#5e8b96" fill-opacity="1"><g transform="translate(137.994953, 236.787232)"><g><path d="M 8.859375 0 L 7.875 -2.8125 L 3.6875 -2.8125 L 2.703125 0 L 0.40625 0 L 4.421875 -11.015625 L 7.140625 -11.015625 L 11.140625 0 Z M 5.78125 -9.3125 L 5.734375 -9.140625 C 5.679688 -8.953125 5.617188 -8.738281 5.546875 -8.5 C 5.472656 -8.257812 5.023438 -6.941406 4.203125 -4.546875 L 7.359375 -4.546875 L 6.28125 -7.71875 L 5.9375 -8.78125 Z M 5.78125 -9.3125 "/></g></g></g><g fill="#5e8b96" fill-opacity="1"><g transform="translate(151.41882, 236.787232)"><g><path d="M 8.171875 0 L 8.171875 -4.71875 L 3.375 -4.71875 L 3.375 0 L 1.078125 0 L 1.078125 -11.015625 L 3.375 -11.015625 L 3.375 -6.625 L 8.171875 -6.625 L 8.171875 -11.015625 L 10.484375 -11.015625 L 10.484375 0 Z M 8.171875 0 "/></g></g></g><g fill="#5e8b96" fill-opacity="1"><g transform="translate(164.842687, 236.787232)"><g><path d="M 8.859375 0 L 7.875 -2.8125 L 3.6875 -2.8125 L 2.703125 0 L 0.40625 0 L 4.421875 -11.015625 L 7.140625 -11.015625 L 11.140625 0 Z M 5.78125 -9.3125 L 5.734375 -9.140625 C 5.679688 -8.953125 5.617188 -8.738281 5.546875 -8.5 C 5.472656 -8.257812 5.023438 -6.941406 4.203125 -4.546875 L 7.359375 -4.546875 L 6.28125 -7.71875 L 5.9375 -8.78125 Z M 5.78125 -9.3125 "/></g></g></g><g fill="#5e8b96" fill-opacity="1"><g transform="translate(154.338785, 281.373908)"><g><path d="M 6.265625 -10.890625 L 6.265625 0 L 4.609375 0 L 4.609375 -10.890625 L 0.40625 -10.890625 L 0.40625 -12.25 L 10.46875 -12.25 L 10.46875 -10.890625 Z M 6.265625 -10.890625 "/></g></g></g><g fill="#5e8b96" fill-opacity="1"><g transform="translate(166.467262, 281.373908)"><g><path d="M 2.40625 -4.375 C 2.40625 -3.289062 2.625 -2.457031 3.0625 -1.875 C 3.507812 -1.289062 4.164062 -1 5.03125 -1 C 5.707031 -1 6.25 -1.132812 6.65625 -1.40625 C 7.0625 -1.675781 7.335938 -2.019531 7.484375 -2.4375 L 8.859375 -2.046875 C 8.296875 -0.566406 7.019531 0.171875 5.03125 0.171875 C 3.632812 0.171875 2.570312 -0.238281 1.84375 -1.0625 C 1.113281 -1.894531 0.75 -3.128906 0.75 -4.765625 C 0.75 -6.316406 1.113281 -7.503906 1.84375 -8.328125 C 2.570312 -9.160156 3.613281 -9.578125 4.96875 -9.578125 C 7.726562 -9.578125 9.109375 -7.910156 9.109375 -4.578125 L 9.109375 -4.375 Z M 7.5 -5.578125 C 7.40625 -6.566406 7.148438 -7.285156 6.734375 -7.734375 C 6.316406 -8.191406 5.71875 -8.421875 4.9375 -8.421875 C 4.175781 -8.421875 3.570312 -8.164062 3.125 -7.65625 C 2.6875 -7.15625 2.453125 -6.460938 2.421875 -5.578125 Z M 7.5 -5.578125 "/></g></g></g><g fill="#5e8b96" fill-opacity="1"><g transform="translate(177.621619, 281.373908)"><g><path d="M 2.390625 -4.75 C 2.390625 -3.5 2.585938 -2.570312 2.984375 -1.96875 C 3.378906 -1.363281 3.972656 -1.0625 4.765625 -1.0625 C 5.316406 -1.0625 5.78125 -1.210938 6.15625 -1.515625 C 6.53125 -1.816406 6.765625 -2.28125 6.859375 -2.90625 L 8.4375 -2.796875 C 8.3125 -1.890625 7.925781 -1.164062 7.28125 -0.625 C 6.632812 -0.09375 5.8125 0.171875 4.8125 0.171875 C 3.488281 0.171875 2.476562 -0.242188 1.78125 -1.078125 C 1.09375 -1.910156 0.75 -3.125 0.75 -4.71875 C 0.75 -6.300781 1.097656 -7.503906 1.796875 -8.328125 C 2.492188 -9.160156 3.492188 -9.578125 4.796875 -9.578125 C 5.753906 -9.578125 6.550781 -9.328125 7.1875 -8.828125 C 7.820312 -8.335938 8.222656 -7.65625 8.390625 -6.78125 L 6.78125 -6.65625 C 6.695312 -7.175781 6.488281 -7.585938 6.15625 -7.890625 C 5.820312 -8.203125 5.351562 -8.359375 4.75 -8.359375 C 3.914062 -8.359375 3.3125 -8.082031 2.9375 -7.53125 C 2.570312 -6.976562 2.390625 -6.050781 2.390625 -4.75 Z M 2.390625 -4.75 "/></g></g></g><g fill="#5e8b96" fill-opacity="1"><g transform="translate(187.775764, 281.373908)"><g><path d="M 2.75 -7.796875 C 3.09375 -8.410156 3.5 -8.859375 3.96875 -9.140625 C 4.4375 -9.429688 5.035156 -9.578125 5.765625 -9.578125 C 6.785156 -9.578125 7.535156 -9.320312 8.015625 -8.8125 C 8.503906 -8.3125 8.75 -7.460938 8.75 -6.265625 L 8.75 0 L 7.171875 0 L 7.171875 -5.96875 C 7.171875 -6.625 7.109375 -7.113281 6.984375 -7.4375 C 6.867188 -7.757812 6.671875 -7.992188 6.390625 -8.140625 C 6.109375 -8.296875 5.722656 -8.375 5.234375 -8.375 C 4.492188 -8.375 3.898438 -8.117188 3.453125 -7.609375 C 3.015625 -7.097656 2.796875 -6.410156 2.796875 -5.546875 L 2.796875 0 L 1.234375 0 L 1.234375 -12.90625 L 2.796875 -12.90625 L 2.796875 -9.546875 C 2.796875 -9.191406 2.785156 -8.828125 2.765625 -8.453125 C 2.742188 -8.078125 2.734375 -7.859375 2.734375 -7.796875 Z M 2.75 -7.796875 "/></g></g></g></svg>