<svg xmlns="http://www.w3.org/2000/svg" xmlns:xlink="http://www.w3.org/1999/xlink" width="500" zoomAndPan="magnify" viewBox="0 0 375 374.999991" height="500" preserveAspectRatio="xMidYMid meet" version="1.0"><defs><g/><clipPath id="f65f567de6"><path d="M 85.519531 200.175781 L 289.519531 200.175781 L 289.519531 290.761719 L 85.519531 290.761719 Z M 85.519531 200.175781 " clip-rule="nonzero"/></clipPath><clipPath id="d05edaa4d2"><path d="M 85.519531 84.277344 L 289.519531 84.277344 L 289.519531 175.027344 L 85.519531 175.027344 Z M 85.519531 84.277344 " clip-rule="nonzero"/></clipPath><clipPath id="4c33e63c18"><path d="M 120.953125 200.5 L 253.703125 200.5 L 253.703125 253.703125 L 120.953125 253.703125 Z M 120.953125 200.5 " clip-rule="nonzero"/></clipPath><clipPath id="14e1e2d1b5"><path d="M 120.953125 120.953125 L 253.703125 120.953125 L 253.703125 174.953125 L 120.953125 174.953125 Z M 120.953125 120.953125 " clip-rule="nonzero"/></clipPath></defs><g clip-path="url(#f65f567de6)"><path fill="#545454" d="M 187.484375 290.761719 C 131.289062 290.761719 85.519531 244.992188 85.519531 188.726562 C 85.519531 132.464844 131.289062 86.761719 187.484375 86.761719 C 243.679688 86.761719 289.449219 132.53125 289.449219 188.726562 C 289.519531 244.992188 243.75 290.761719 187.484375 290.761719 Z M 187.484375 88.488281 C 132.1875 88.488281 87.246094 133.429688 87.246094 188.726562 C 87.246094 244.023438 132.257812 289.035156 187.484375 289.035156 C 242.714844 289.035156 287.792969 244.023438 287.792969 188.726562 C 287.792969 133.429688 242.78125 88.488281 187.484375 88.488281 Z M 187.484375 88.488281 " fill-opacity="1" fill-rule="nonzero"/></g><path stroke-linecap="round" transform="matrix(0.752829, 0, 0, 0.75, 75.431551, 186.749988)" fill="none" stroke-linejoin="miter" d="M 0.998956 1.000016 L 77.70441 1.000016 " stroke="#545454" stroke-width="2" stroke-opacity="1" stroke-miterlimit="4"/><path stroke-linecap="round" transform="matrix(0.752829, 0, 0, 0.75, 240.539022, 186.749988)" fill="none" stroke-linejoin="miter" d="M 1.001485 1.000016 L 77.706939 1.000016 " stroke="#545454" stroke-width="2" stroke-opacity="1" stroke-miterlimit="4"/><g clip-path="url(#d05edaa4d2)"><path fill="#545454" d="M 187.484375 288.277344 C 131.289062 288.277344 85.519531 242.503906 85.519531 186.242188 C 85.519531 129.976562 131.289062 84.277344 187.484375 84.277344 C 243.679688 84.277344 289.449219 130.046875 289.449219 186.242188 C 289.519531 242.503906 243.75 288.277344 187.484375 288.277344 Z M 187.484375 86 C 132.1875 86 87.246094 130.945312 87.246094 186.242188 C 87.246094 241.539062 132.257812 286.550781 187.484375 286.550781 C 242.714844 286.550781 287.792969 241.539062 287.792969 186.242188 C 287.792969 130.945312 242.78125 86 187.484375 86 Z M 187.484375 86 " fill-opacity="1" fill-rule="nonzero"/></g><g fill="#545454" fill-opacity="1"><g transform="translate(153.803881, 272.939739)"><g><path d="M 6.859375 1.59375 L 5.65625 1.3125 L 9.34375 -14.625 L 3.8125 -15.90625 L 4.078125 -17.03125 L 16.359375 -14.1875 L 16.09375 -13.0625 L 10.546875 -14.34375 Z M 6.859375 1.59375 "/></g></g></g><g fill="#545454" fill-opacity="1"><g transform="translate(168.992947, 276.300761)"><g><path d="M 11.984375 1.15625 L 2.46875 0.234375 L 4.15625 -17.203125 L 13.671875 -16.28125 L 13.5625 -15.15625 L 5.265625 -15.953125 L 4.625 -9.359375 L 12.46875 -8.609375 L 12.359375 -7.484375 L 4.515625 -8.234375 L 3.796875 -0.765625 L 12.09375 0.03125 Z M 11.984375 1.15625 "/></g></g></g><g fill="#545454" fill-opacity="1"><g transform="translate(185.274448, 277.733948)"><g><path d="M 9.171875 -17.09375 C 6.984375 -16.988281 5.289062 -16.203125 4.09375 -14.734375 C 2.90625 -13.273438 2.363281 -11.328125 2.46875 -8.890625 C 2.582031 -6.398438 3.265625 -4.492188 4.515625 -3.171875 C 5.765625 -1.847656 7.492188 -1.238281 9.703125 -1.34375 C 11.171875 -1.40625 12.515625 -1.648438 13.734375 -2.078125 L 13.78125 -1 C 12.644531 -0.539062 11.207031 -0.273438 9.46875 -0.203125 C 7.019531 -0.0859375 5.050781 -0.789062 3.5625 -2.3125 C 2.082031 -3.84375 1.273438 -6.023438 1.140625 -8.859375 C 1.054688 -10.640625 1.316406 -12.222656 1.921875 -13.609375 C 2.535156 -14.992188 3.457031 -16.085938 4.6875 -16.890625 C 5.925781 -17.691406 7.378906 -18.128906 9.046875 -18.203125 C 10.753906 -18.273438 12.300781 -18.023438 13.6875 -17.453125 L 13.25 -16.328125 C 11.9375 -16.898438 10.578125 -17.15625 9.171875 -17.09375 Z M 9.171875 -17.09375 "/></g></g></g><g fill="#545454" fill-opacity="1"><g transform="translate(203.475419, 276.75695)"><g><path d="M 14.84375 -3.109375 L 13.640625 -2.859375 L 11.875 -11.28125 L 1.859375 -9.1875 L 3.625 -0.765625 L 2.4375 -0.515625 L -1.15625 -17.65625 L 0.03125 -17.90625 L 1.625 -10.296875 L 11.640625 -12.390625 L 10.046875 -20 L 11.25 -20.25 Z M 14.84375 -3.109375 "/></g></g></g><g fill="#545454" fill-opacity="1"><g transform="translate(141.734305, 124.562536)"><g><path d="M 4.5 -8.34375 L -0.046875 -5.484375 L 0.859375 -0.546875 L 0 0 L -2.546875 -14.078125 L -2.0625 -14.390625 L 9.421875 -5.90625 L 8.53125 -5.359375 Z M -0.203125 -6.359375 L 3.796875 -8.875 L -0.25 -11.96875 C -0.582031 -12.195312 -1.015625 -12.535156 -1.546875 -12.984375 C -1.367188 -12.410156 -1.242188 -11.875 -1.171875 -11.375 Z M -0.203125 -6.359375 "/></g></g></g><g fill="#545454" fill-opacity="1"><g transform="translate(151.154027, 118.555658)"><g><path d="M 10.5625 -4.484375 L 9.71875 -4.125 L -2.09375 -11.875 L -2.15625 -11.84375 C -1.53125 -10.582031 -1.082031 -9.625 -0.8125 -8.96875 L 2.546875 -1.078125 L 1.71875 -0.734375 L -3.453125 -12.921875 L -2.59375 -13.28125 L 9.1875 -5.53125 L 9.234375 -5.546875 C 8.765625 -6.523438 8.335938 -7.46875 7.953125 -8.375 L 4.578125 -16.328125 L 5.390625 -16.671875 Z M 10.5625 -4.484375 "/></g></g></g><g fill="#545454" fill-opacity="1"><g transform="translate(163.417881, 113.342429)"><g><path d="M 8.265625 -15.53125 L 10.21875 -7.1875 C 10.5625 -5.707031 10.40625 -4.445312 9.75 -3.40625 C 9.09375 -2.375 8 -1.675781 6.46875 -1.3125 C 4.976562 -0.96875 3.710938 -1.113281 2.671875 -1.75 C 1.640625 -2.394531 0.945312 -3.46875 0.59375 -4.96875 L -1.34375 -13.28125 L -0.421875 -13.5 L 1.53125 -5.15625 C 1.820312 -3.914062 2.390625 -3.03125 3.234375 -2.5 C 4.078125 -1.976562 5.128906 -1.863281 6.390625 -2.15625 C 7.609375 -2.445312 8.472656 -3.003906 8.984375 -3.828125 C 9.503906 -4.660156 9.625 -5.679688 9.34375 -6.890625 L 7.375 -15.328125 Z M 8.265625 -15.53125 "/></g></g></g><g fill="#545454" fill-opacity="1"><g transform="translate(176.354234, 110.301955)"><g><path d="M 6.671875 -7.078125 L 11.546875 -7.359375 L 11.90625 -1.34375 C 10.65625 -0.71875 9.234375 -0.359375 7.640625 -0.265625 C 5.554688 -0.140625 3.921875 -0.632812 2.734375 -1.75 C 1.554688 -2.863281 0.90625 -4.492188 0.78125 -6.640625 C 0.707031 -7.984375 0.914062 -9.191406 1.40625 -10.265625 C 1.894531 -11.347656 2.632812 -12.203125 3.625 -12.828125 C 4.613281 -13.453125 5.773438 -13.804688 7.109375 -13.890625 C 8.554688 -13.972656 9.867188 -13.78125 11.046875 -13.3125 L 10.71875 -12.46875 C 9.539062 -12.925781 8.335938 -13.117188 7.109375 -13.046875 C 5.359375 -12.953125 4.003906 -12.332031 3.046875 -11.1875 C 2.097656 -10.050781 1.675781 -8.566406 1.78125 -6.734375 C 1.894531 -4.753906 2.460938 -3.289062 3.484375 -2.34375 C 4.515625 -1.40625 5.972656 -0.992188 7.859375 -1.109375 C 9.078125 -1.171875 10.101562 -1.398438 10.9375 -1.796875 L 10.65625 -6.421875 L 6.71875 -6.203125 Z M 6.671875 -7.078125 "/></g></g></g><g fill="#545454" fill-opacity="1"><g transform="translate(189.77708, 109.612048)"><g><path d="M 3.359375 -5.453125 L 2.78125 0.28125 L 1.859375 0.1875 L 3.171875 -12.984375 L 6.296875 -12.671875 C 7.941406 -12.503906 9.117188 -12.078125 9.828125 -11.390625 C 10.546875 -10.710938 10.847656 -9.769531 10.734375 -8.5625 C 10.640625 -7.675781 10.332031 -6.953125 9.8125 -6.390625 C 9.289062 -5.828125 8.539062 -5.46875 7.5625 -5.3125 L 10.546875 1.046875 L 9.4375 0.9375 L 6.625 -5.125 Z M 3.4375 -6.25 L 5.953125 -6 C 7.066406 -5.894531 7.953125 -6.054688 8.609375 -6.484375 C 9.265625 -6.910156 9.640625 -7.613281 9.734375 -8.59375 C 9.835938 -9.59375 9.613281 -10.347656 9.0625 -10.859375 C 8.507812 -11.367188 7.550781 -11.691406 6.1875 -11.828125 L 4.015625 -12.046875 Z M 3.4375 -6.25 "/></g></g></g><g fill="#545454" fill-opacity="1"><g transform="translate(200.867791, 110.723784)"><g><path d="M 9.125 -2.546875 L 3.921875 -3.84375 L 0.984375 0.25 L 0 0 L 8.375 -11.609375 L 8.9375 -11.46875 L 10.796875 2.6875 L 9.78125 2.4375 Z M 4.4375 -4.578125 L 9.03125 -3.421875 L 8.4375 -8.484375 C 8.375 -8.878906 8.320312 -9.429688 8.28125 -10.140625 C 7.976562 -9.597656 7.675781 -9.128906 7.375 -8.734375 Z M 4.4375 -4.578125 "/></g></g></g><g fill="#545454" fill-opacity="1"><g transform="translate(211.731148, 113.338778)"><g><path d="M 10.546875 4.484375 L 9.671875 4.109375 L 12.21875 -1.875 L 5.125 -4.890625 L 2.578125 1.09375 L 1.71875 0.734375 L 6.890625 -11.4375 L 7.75 -11.078125 L 5.453125 -5.671875 L 12.546875 -2.65625 L 14.84375 -8.0625 L 15.71875 -7.6875 Z M 10.546875 4.484375 "/></g></g></g><g fill="#545454" fill-opacity="1"><g transform="translate(223.996808, 118.653532)"><g><path d="M 9.46875 0.4375 L 4.921875 -2.421875 L 0.859375 0.546875 L 0 0 L 11.578125 -8.421875 L 12.0625 -8.109375 L 9.421875 5.90625 L 8.53125 5.359375 Z M 5.640625 -2.953125 L 9.640625 -0.4375 L 10.65625 -5.4375 C 10.71875 -5.832031 10.835938 -6.367188 11.015625 -7.046875 C 10.566406 -6.640625 10.140625 -6.289062 9.734375 -6 Z M 5.640625 -2.953125 "/></g></g></g><g clip-path="url(#4c33e63c18)"><path fill="#545454" d="M 187.304688 253.703125 C 150.734375 253.703125 120.953125 223.917969 120.953125 187.304688 C 120.953125 150.691406 150.734375 120.953125 187.304688 120.953125 C 223.871094 120.953125 253.65625 150.734375 253.65625 187.304688 C 253.703125 223.917969 223.917969 253.703125 187.304688 253.703125 Z M 187.304688 122.074219 C 151.320312 122.074219 122.074219 151.320312 122.074219 187.304688 C 122.074219 223.289062 151.363281 252.578125 187.304688 252.578125 C 223.242188 252.578125 252.578125 223.289062 252.578125 187.304688 C 252.578125 151.320312 223.289062 122.074219 187.304688 122.074219 Z M 187.304688 122.074219 " fill-opacity="1" fill-rule="nonzero"/></g><g clip-path="url(#14e1e2d1b5)"><path fill="#545454" d="M 187.304688 253.703125 C 150.734375 253.703125 120.953125 223.917969 120.953125 187.304688 C 120.953125 150.691406 150.734375 120.953125 187.304688 120.953125 C 223.871094 120.953125 253.65625 150.734375 253.65625 187.304688 C 253.703125 223.917969 223.917969 253.703125 187.304688 253.703125 Z M 187.304688 122.074219 C 151.320312 122.074219 122.074219 151.320312 122.074219 187.304688 C 122.074219 223.289062 151.363281 252.578125 187.304688 252.578125 C 223.242188 252.578125 252.578125 223.289062 252.578125 187.304688 C 252.578125 151.320312 223.289062 122.074219 187.304688 122.074219 Z M 187.304688 122.074219 " fill-opacity="1" fill-rule="nonzero"/></g><g fill="#545454" fill-opacity="1"><g transform="translate(142.714858, 198.749869)"><g><path d="M 42.636719 -8.363281 C 42.265625 -8.648438 40.953125 -8.773438 34.066406 -8.976562 C 34.929688 -12.503906 35.746094 -15.945312 36.484375 -19.0625 C 37.550781 -23.488281 38.496094 -27.34375 39.027344 -29.679688 C 39.804688 -33.207031 40.257812 -35.789062 40.460938 -37.59375 C 40.625 -39.4375 40.542969 -40.75 39.601562 -41.078125 C 37.714844 -41.734375 35.253906 -37.386719 26.441406 -19.964844 C 24.679688 -16.480469 22.835938 -12.871094 20.988281 -9.347656 C 15.085938 -9.511719 9.632812 -9.632812 8.855469 -9.796875 C 8.402344 -9.878906 7.992188 -9.632812 7.910156 -9.183594 C 7.828125 -8.773438 8.117188 -8.363281 8.527344 -8.28125 C 9.386719 -8.074219 13.488281 -7.953125 20.210938 -7.789062 C 16.890625 -1.476562 13.652344 4.261719 11.070312 7.75 C 9.714844 9.59375 8.445312 10.207031 7.296875 9.511719 C 4.261719 7.75 1.925781 -2.664062 5.082031 -9.757812 C 7.789062 -15.863281 12.996094 -15.660156 16.890625 -14.429688 C 17.300781 -14.308594 17.75 -14.554688 17.875 -14.964844 C 17.996094 -15.375 17.792969 -15.824219 17.339844 -15.945312 C 10.988281 -17.957031 6.109375 -15.988281 3.648438 -10.371094 C 0.53125 -3.402344 2.132812 8.363281 6.519531 10.90625 C 7.625 11.519531 9.839844 12.09375 12.339844 8.691406 C 15.085938 5 18.488281 -1.105469 21.933594 -7.75 C 22.546875 -7.707031 23.164062 -7.707031 23.777344 -7.707031 C 26.484375 -7.625 29.394531 -7.542969 32.097656 -7.460938 C 25.746094 19.59375 25.746094 23.164062 27.21875 23.777344 C 27.382812 23.816406 27.507812 23.859375 27.628906 23.859375 C 28.449219 23.859375 29.148438 22.835938 29.722656 21.851562 C 29.925781 21.480469 29.804688 20.988281 29.433594 20.742188 C 29.066406 20.539062 28.574219 20.660156 28.367188 21.03125 C 28.203125 21.277344 28.082031 21.480469 27.957031 21.644531 C 27.957031 20.167969 28.410156 16.398438 30.460938 6.765625 C 31.441406 2.296875 32.550781 -2.625 33.699219 -7.421875 C 37.878906 -7.296875 41.199219 -7.175781 41.855469 -7.011719 C 41.9375 -6.96875 42.0625 -6.929688 42.183594 -6.929688 C 42.429688 -6.929688 42.675781 -7.050781 42.796875 -7.257812 C 43.042969 -7.625 42.960938 -8.117188 42.636719 -8.363281 Z M 23.816406 -9.265625 C 23.449219 -9.265625 23.121094 -9.304688 22.753906 -9.304688 C 24.472656 -12.625 26.195312 -15.988281 27.835938 -19.269531 C 31.976562 -27.425781 37.058594 -37.46875 38.945312 -39.3125 C 38.984375 -38.453125 38.863281 -36.15625 37.46875 -30.007812 C 36.976562 -27.671875 36.035156 -23.859375 34.96875 -19.429688 C 34.066406 -15.660156 33.207031 -12.214844 32.46875 -9.058594 C 30.171875 -9.101562 27.300781 -9.183594 23.816406 -9.265625 Z M 23.816406 -9.265625 "/></g></g></g><g fill="#545454" fill-opacity="1"><g transform="translate(194.28429, 198.749869)"><g><path d="M 36.527344 -10.167969 C 36.363281 -10.578125 35.871094 -10.742188 35.460938 -10.578125 C 34.109375 -9.960938 31.566406 -9.511719 28.410156 -9.101562 C 28.328125 -9.304688 28.164062 -9.46875 27.917969 -9.550781 C 27.546875 -9.714844 27.140625 -9.511719 26.976562 -9.140625 C 26.894531 -9.058594 26.851562 -8.976562 26.8125 -8.894531 C 24.882812 -8.648438 22.753906 -8.445312 20.578125 -8.199219 C 17.628906 -7.910156 14.554688 -7.585938 11.644531 -7.214844 C 11.191406 -7.175781 10.90625 -6.765625 10.945312 -6.355469 C 10.988281 -5.945312 11.355469 -5.65625 11.722656 -5.65625 C 11.765625 -5.65625 11.804688 -5.65625 11.847656 -5.65625 C 14.71875 -6.027344 17.792969 -6.355469 20.742188 -6.640625 C 22.589844 -6.847656 24.351562 -7.011719 25.992188 -7.214844 C 22.425781 0 18.695312 5.65625 15.128906 9.265625 C 11.847656 12.625 8.9375 14.019531 6.847656 13.28125 C 5.164062 12.625 4.058594 10.496094 3.730469 7.214844 C 3.320312 3.402344 3.933594 -1.722656 5.535156 -7.625 C 7.871094 -16.234375 14.511719 -29.84375 20.703125 -36.402344 C 22.628906 -38.453125 24.597656 -39.3125 25.785156 -38.660156 C 27.671875 -37.59375 28.695312 -32.671875 25.828125 -21.933594 C 25.703125 -21.523438 25.949219 -21.070312 26.359375 -20.988281 C 26.769531 -20.867188 27.21875 -21.113281 27.34375 -21.523438 C 30.992188 -35.214844 28.410156 -38.984375 26.566406 -40.011719 C 24.636719 -41.078125 22.015625 -40.132812 19.554688 -37.511719 C 13.199219 -30.746094 6.394531 -16.808594 4.015625 -8.035156 C 0.695312 4.261719 1.558594 12.996094 6.3125 14.757812 C 11.316406 16.601562 18.652344 9.757812 25.582031 -2.992188 C 24.679688 1.515625 23.695312 6.722656 22.917969 11.316406 C 22.300781 14.882812 21.890625 17.914062 21.644531 20.046875 C 21.277344 23.488281 21.359375 24.351562 22.179688 24.597656 C 22.261719 24.636719 22.34375 24.636719 22.464844 24.636719 C 23.203125 24.636719 23.652344 23.570312 24.226562 21.933594 C 24.390625 21.523438 24.144531 21.070312 23.734375 20.949219 C 23.53125 20.867188 23.324219 20.867188 23.121094 20.988281 C 23.695312 15.375 26.03125 1.925781 28.164062 -7.460938 C 31.6875 -7.910156 34.519531 -8.402344 36.117188 -9.140625 C 36.527344 -9.304688 36.691406 -9.796875 36.527344 -10.167969 Z M 36.527344 -10.167969 "/></g></g></g></svg>