<svg xmlns="http://www.w3.org/2000/svg" xmlns:xlink="http://www.w3.org/1999/xlink" width="500" zoomAndPan="magnify" viewBox="0 0 375 374.999991" height="500" preserveAspectRatio="xMidYMid meet" version="1.0"><defs><g/><clipPath id="21cd32fd7f"><path d="M 172 212 L 201 212 L 201 227.390625 L 172 227.390625 Z M 172 212 " clip-rule="nonzero"/></clipPath><clipPath id="af36bd9ecb"><path d="M 147.519531 97 L 227.769531 97 L 227.769531 189 L 147.519531 189 Z M 147.519531 97 " clip-rule="nonzero"/></clipPath><clipPath id="f40cf975e3"><path d="M 166 75.140625 L 209 75.140625 L 209 97 L 166 97 Z M 166 75.140625 " clip-rule="nonzero"/></clipPath></defs><path fill="#cae8ff" d="M 201.484375 196.964844 L 169.898438 190.0625 C 169.816406 190.042969 169.738281 190.023438 169.65625 189.980469 C 169.070312 189.839844 168.507812 189.621094 168.003906 189.359375 C 166.898438 188.839844 165.972656 188.09375 165.46875 187.210938 C 165.167969 186.691406 164.863281 185.847656 165.167969 184.90625 C 165.527344 183.839844 166.597656 183.019531 167.984375 182.515625 C 168.488281 182.335938 169.050781 182.214844 169.636719 182.132812 C 169.976562 182.09375 170.28125 182.015625 170.640625 182.015625 C 171.308594 182.015625 171.972656 182.09375 172.617188 182.234375 L 186.265625 185.226562 L 187.917969 185.585938 L 204.222656 189.140625 C 204.304688 189.160156 204.382812 189.199219 204.464844 189.21875 C 205.050781 189.359375 205.613281 189.582031 206.117188 189.820312 C 207.222656 190.363281 208.128906 191.085938 208.632812 191.96875 C 208.933594 192.492188 209.238281 193.332031 208.933594 194.277344 C 208.570312 195.339844 207.503906 196.164062 206.117188 196.664062 C 205.3125 196.945312 204.445312 197.148438 203.480469 197.148438 C 202.875 197.148438 202.25 197.066406 201.667969 196.945312 C 201.605469 196.925781 201.546875 196.945312 201.484375 196.925781 Z M 197.21875 190.261719 C 197.117188 190.703125 197.398438 191.144531 197.839844 191.246094 L 204.203125 192.632812 C 204.265625 192.652344 204.324219 192.652344 204.382812 192.652344 C 204.40625 192.652344 204.425781 192.632812 204.464844 192.632812 C 204.808594 192.609375 205.109375 192.371094 205.210938 192.007812 C 205.3125 191.566406 205.027344 191.125 204.566406 191.027344 L 204.464844 191.003906 L 198.203125 189.640625 C 197.761719 189.539062 197.316406 189.820312 197.21875 190.261719 Z M 197.21875 190.261719 " fill-opacity="1" fill-rule="evenodd"/><path fill="#cae8ff" d="M 172.617188 192.511719 L 193.152344 196.988281 L 200.699219 198.632812 L 204.222656 199.394531 C 206.238281 199.835938 207.886719 200.898438 208.652344 202.226562 C 208.953125 202.765625 209.257812 203.589844 208.953125 204.53125 C 208.390625 206.21875 206.15625 207.402344 203.480469 207.402344 C 203.035156 207.402344 202.574219 207.324219 202.109375 207.261719 C 201.910156 207.222656 201.6875 207.242188 201.484375 207.183594 L 200.175781 206.902344 L 177.707031 201.984375 L 175.675781 201.542969 L 169.898438 200.277344 C 167.882812 199.835938 166.234375 198.792969 165.46875 197.449219 C 165.167969 196.925781 164.863281 196.082031 165.167969 195.140625 C 165.527344 194.078125 166.597656 193.253906 167.984375 192.75 C 168.488281 192.570312 169.050781 192.449219 169.636719 192.371094 C 169.976562 192.332031 170.28125 192.25 170.640625 192.25 C 171.308594 192.25 171.972656 192.332031 172.617188 192.46875 Z M 198.082031 201.28125 L 204.203125 202.605469 C 204.265625 202.625 204.324219 202.625 204.382812 202.625 C 204.765625 202.625 205.109375 202.363281 205.191406 201.984375 C 205.289062 201.542969 205.007812 201.101562 204.546875 201 L 198.164062 199.59375 C 197.722656 199.496094 197.277344 199.777344 197.175781 200.21875 C 197.15625 200.359375 197.21875 200.457031 197.257812 200.578125 C 197.339844 200.859375 197.519531 201.121094 197.820312 201.199219 L 198.082031 201.261719 Z M 198.082031 201.28125 " fill-opacity="1" fill-rule="evenodd"/><path fill="#cae8ff" d="M 176.160156 203.527344 L 200.902344 208.949219 L 202.753906 209.347656 L 204.222656 209.671875 C 206.214844 210.113281 207.886719 211.15625 208.652344 212.5 C 208.953125 213.042969 209.257812 213.863281 208.953125 214.808594 C 208.390625 216.496094 206.15625 217.679688 203.5 217.679688 C 203.15625 217.679688 202.8125 217.597656 202.472656 217.558594 C 202.171875 217.519531 201.828125 217.519531 201.503906 217.457031 L 200.820312 217.296875 L 172.757812 211.15625 L 171.144531 210.816406 L 169.898438 210.535156 C 167.882812 210.09375 166.234375 209.046875 165.46875 207.703125 C 165.027344 206.941406 164.925781 206.136719 165.167969 205.394531 C 165.730469 203.710938 167.964844 202.527344 170.621094 202.527344 C 171.285156 202.527344 171.949219 202.605469 172.59375 202.746094 L 174.328125 203.128906 L 176.136719 203.527344 Z M 198.203125 209.851562 C 197.761719 209.75 197.316406 210.03125 197.21875 210.472656 C 197.117188 210.933594 197.398438 211.355469 197.839844 211.457031 L 201.464844 212.238281 L 203.15625 212.601562 L 204.203125 212.839844 C 204.265625 212.863281 204.324219 212.863281 204.382812 212.863281 C 204.765625 212.863281 205.109375 212.601562 205.191406 212.21875 C 205.289062 211.777344 205.007812 211.335938 204.546875 211.234375 L 202.957031 210.894531 L 201.265625 210.511719 L 198.164062 209.851562 Z M 198.203125 209.851562 " fill-opacity="1" fill-rule="evenodd"/><g clip-path="url(#21cd32fd7f)"><path fill="#cae8ff" d="M 172.574219 212.820312 L 200.238281 218.863281 C 197.960938 223.878906 192.929688 227.390625 187.050781 227.390625 C 179.058594 227.390625 172.554688 220.910156 172.554688 212.941406 C 172.554688 212.902344 172.574219 212.863281 172.574219 212.820312 Z M 184.515625 224.300781 C 184.65625 223.859375 184.394531 223.398438 183.96875 223.277344 C 180.628906 222.273438 177.96875 219.726562 176.84375 216.433594 C 176.683594 216.011719 176.21875 215.792969 175.796875 215.914062 C 175.375 216.054688 175.132812 216.535156 175.273438 216.957031 C 176.582031 220.75 179.660156 223.699219 183.507812 224.84375 C 183.585938 224.863281 183.667969 224.882812 183.75 224.882812 C 184.109375 224.882812 184.433594 224.664062 184.535156 224.28125 Z M 184.515625 224.300781 " fill-opacity="1" fill-rule="evenodd"/></g><g clip-path="url(#af36bd9ecb)"><path fill="#cae8ff" d="M 211.429688 164.976562 C 207.304688 170.773438 203.761719 175.792969 203.5 179.726562 L 203.5 187.152344 L 204.726562 187.414062 L 206.378906 187.773438 L 208.269531 188.195312 L 208.269531 179.886719 C 208.371094 178.683594 209.195312 176.976562 210.402344 174.96875 C 211.710938 172.800781 213.484375 170.292969 215.316406 167.703125 C 215.878906 166.921875 216.34375 166.238281 216.664062 165.796875 C 217.1875 165.054688 217.652344 164.394531 218.015625 163.871094 C 220.148438 160.78125 223.128906 155.902344 225.222656 150.324219 C 226.691406 146.390625 227.738281 142.09375 227.738281 137.839844 C 227.738281 126.820312 223.25 116.828125 215.980469 109.601562 C 208.714844 102.355469 198.707031 97.882812 187.632812 97.882812 C 176.582031 97.882812 166.554688 102.355469 159.308594 109.601562 C 152.039062 116.847656 147.550781 126.820312 147.550781 137.839844 C 147.550781 142.117188 148.597656 146.390625 150.066406 150.34375 C 152.160156 155.945312 155.140625 160.800781 157.273438 163.890625 C 157.597656 164.351562 158.058594 165.035156 158.625 165.816406 C 158.925781 166.257812 159.429688 166.941406 159.972656 167.722656 C 161.441406 169.792969 162.871094 171.820312 164.019531 173.585938 C 165.167969 175.351562 166.074219 176.976562 166.597656 178.363281 L 166.898438 179.144531 L 167.722656 179.324219 L 169.59375 179.726562 L 172.132812 180.289062 L 171.425781 177.800781 C 170.902344 175.972656 169.878906 173.964844 168.507812 171.777344 C 167.179688 169.632812 165.570312 167.382812 163.878906 164.976562 C 163.3125 164.171875 162.851562 163.53125 162.550781 163.109375 C 162.1875 162.585938 161.742188 161.964844 161.242188 161.222656 C 159.570312 158.792969 157.335938 155.199219 155.523438 151.046875 C 153.730469 146.953125 152.34375 142.355469 152.363281 137.839844 C 152.363281 128.125 156.328125 119.316406 162.710938 112.953125 C 169.09375 106.589844 177.929688 102.636719 187.675781 102.636719 C 197.417969 102.636719 206.238281 106.589844 212.640625 112.953125 C 219.042969 119.335938 223.007812 128.148438 223.007812 137.839844 C 223.007812 141.535156 222.082031 145.285156 220.773438 148.757812 C 218.859375 153.835938 216.082031 158.332031 214.128906 161.203125 C 213.542969 162.042969 212.699219 163.230469 211.875 164.414062 L 211.492188 164.976562 Z M 211.429688 164.976562 " fill-opacity="1" fill-rule="nonzero"/></g><g clip-path="url(#f40cf975e3)"><path fill="#233dff" d="M 188.296875 93.066406 C 189.949219 93.066406 191.296875 91.71875 191.296875 90.074219 L 191.296875 78.132812 C 191.296875 76.488281 189.949219 75.140625 188.296875 75.140625 C 186.648438 75.140625 185.300781 76.488281 185.300781 78.132812 L 185.300781 90.074219 C 185.300781 91.71875 186.648438 93.066406 188.296875 93.066406 Z M 199.753906 95.371094 C 198.222656 94.75 197.5 92.984375 198.125 91.480469 L 202.695312 80.441406 C 203.316406 78.914062 205.089844 78.191406 206.597656 78.816406 C 208.128906 79.4375 208.855469 81.203125 208.230469 82.707031 L 203.660156 93.746094 C 203.035156 95.273438 201.265625 95.996094 199.753906 95.371094 Z M 175.515625 95.894531 C 177.042969 95.273438 177.769531 93.507812 177.144531 92 L 172.574219 80.960938 C 171.949219 79.4375 170.179688 78.714844 168.667969 79.335938 C 167.140625 79.960938 166.414062 81.726562 167.039062 83.230469 L 171.609375 94.269531 C 172.234375 95.792969 174.003906 96.515625 175.515625 95.894531 Z M 175.515625 95.894531 " fill-opacity="1" fill-rule="evenodd"/></g><path fill="#233dff" d="M 186.023438 127.867188 C 186.085938 127.363281 186.546875 127.023438 187.050781 127.082031 C 187.554688 127.144531 187.894531 127.605469 187.835938 128.105469 C 187.714844 129.03125 187.976562 129.914062 188.5 130.617188 C 189.023438 131.296875 189.808594 131.800781 190.734375 131.917969 C 191.238281 131.980469 191.582031 132.441406 191.519531 132.945312 C 191.460938 133.445312 190.996094 133.785156 190.492188 133.726562 C 189.0625 133.527344 187.855469 132.78125 187.050781 131.71875 C 187.050781 131.699219 187.03125 131.699219 187.03125 131.679688 C 185.902344 132.019531 183.730469 132.339844 182.257812 130.394531 C 181.957031 129.992188 182.039062 129.410156 182.441406 129.109375 C 182.84375 128.808594 183.425781 128.890625 183.730469 129.289062 C 184.433594 130.214844 185.5 130.175781 186.203125 130.011719 C 186.003906 129.332031 185.941406 128.609375 186.042969 127.867188 Z M 202.773438 129.914062 Z M 187.875 122.304688 Z M 186.304688 121.363281 Z M 169.898438 143.238281 Z M 171.105469 135.371094 Z M 172.675781 134.429688 Z M 170.964844 144.722656 Z M 200.882812 142.738281 C 201.886719 141.734375 202.511719 140.347656 202.511719 138.804688 C 202.511719 137.277344 201.886719 135.894531 200.882812 134.871094 C 199.875 133.867188 198.484375 133.246094 196.933594 133.246094 C 196.433594 133.246094 196.007812 132.84375 196.007812 132.320312 C 196.007812 131.820312 196.433594 131.398438 196.933594 131.398438 C 198.988281 131.398438 200.839844 132.222656 202.171875 133.566406 C 203.519531 134.910156 204.34375 136.757812 204.34375 138.785156 C 204.34375 139.347656 204.285156 139.886719 204.164062 140.410156 C 204.726562 140.570312 205.3125 140.671875 205.933594 140.671875 C 209.195312 140.671875 211.875 138.160156 212.136719 134.96875 C 213.542969 134.128906 214.492188 132.582031 214.492188 130.816406 C 214.492188 128.730469 213.164062 126.941406 211.308594 126.28125 C 210.664062 127.484375 209.699219 128.449219 208.570312 129.128906 C 206.941406 130.09375 204.949219 130.433594 202.957031 129.933594 L 202.875 129.914062 L 202.773438 129.851562 C 202.332031 129.632812 202.128906 129.070312 202.371094 128.628906 C 202.574219 128.246094 203.015625 128.046875 203.417969 128.148438 C 204.90625 128.527344 206.417969 128.265625 207.644531 127.542969 C 208.875 126.820312 209.820312 125.636719 210.203125 124.152344 C 210.402344 123.371094 210.425781 122.566406 210.285156 121.804688 C 209.578125 120.078125 208.230469 118.511719 206.417969 117.46875 C 206.335938 117.449219 206.257812 117.429688 206.175781 117.410156 C 205.976562 117.347656 205.792969 117.25 205.671875 117.089844 C 205.453125 116.988281 205.210938 116.867188 204.96875 116.789062 C 202.390625 115.804688 199.695312 115.964844 197.558594 117.007812 C 196.453125 115.320312 194.539062 114.21875 192.367188 114.21875 C 191.035156 114.21875 189.808594 114.640625 188.800781 115.34375 C 188.984375 115.804688 189.105469 116.285156 189.183594 116.765625 C 189.488281 118.632812 189.082031 120.601562 187.894531 122.265625 C 187.632812 122.628906 187.152344 122.769531 186.75 122.546875 C 186.304688 122.328125 186.105469 121.765625 186.347656 121.324219 L 186.425781 121.203125 C 187.332031 119.957031 187.632812 118.453125 187.394531 117.066406 C 187.25 116.265625 186.949219 115.484375 186.464844 114.800781 C 185.460938 114.117188 184.253906 113.714844 182.964844 113.714844 C 179.660156 113.714844 176.945312 116.285156 176.742188 119.535156 C 175.675781 118.671875 174.304688 118.152344 172.835938 118.152344 C 172.59375 118.152344 172.375 118.171875 172.152344 118.191406 C 172.050781 118.273438 171.949219 118.332031 171.808594 118.351562 C 170.320312 118.734375 169.132812 119.675781 168.40625 120.902344 C 167.683594 122.125 167.421875 123.632812 167.804688 125.117188 C 168.1875 126.601562 169.132812 127.785156 170.359375 128.507812 C 171.589844 129.230469 173.097656 129.492188 174.589844 129.109375 L 174.710938 129.089844 L 174.828125 129.089844 C 175.332031 129.089844 175.757812 129.492188 175.757812 130.011719 C 175.757812 130.453125 175.433594 130.835938 175.03125 130.917969 C 173.058594 131.398438 171.085938 131.058594 169.453125 130.09375 C 167.824219 129.128906 166.554688 127.542969 166.050781 125.558594 L 166.03125 125.4375 C 165.953125 125.117188 165.910156 124.796875 165.871094 124.472656 C 163.03125 125.054688 160.898438 127.542969 160.898438 130.554688 C 160.898438 132.300781 161.625 133.90625 162.8125 135.03125 C 161.925781 136.09375 161.402344 137.460938 161.402344 138.964844 C 161.402344 139.949219 161.625 140.890625 162.046875 141.714844 C 162.125 141.773438 162.1875 141.835938 162.246094 141.914062 C 163.132812 143.160156 164.460938 143.921875 165.871094 144.164062 C 167.28125 144.402344 168.769531 144.082031 170.019531 143.199219 C 171.265625 142.316406 172.03125 140.992188 172.273438 139.605469 C 172.515625 138.203125 172.191406 136.714844 171.308594 135.472656 L 171.226562 135.351562 C 171.003906 134.890625 171.1875 134.347656 171.628906 134.128906 C 172.03125 133.925781 172.535156 134.046875 172.777344 134.410156 C 173.964844 136.074219 174.367188 138.042969 174.066406 139.90625 C 173.761719 141.773438 172.734375 143.519531 171.066406 144.703125 C 170.84375 144.863281 170.621094 145.003906 170.378906 145.144531 C 170.378906 145.207031 170.378906 145.265625 170.378906 145.328125 C 170.378906 148.757812 173.160156 151.527344 176.601562 151.527344 C 178.433594 151.527344 180.085938 150.746094 181.210938 149.480469 L 181.292969 149.378906 C 181.394531 149.421875 181.492188 149.480469 181.574219 149.519531 C 181.675781 152.871094 180.609375 157.027344 178.3125 162.003906 C 183.707031 158.875 187.613281 153.757812 190.050781 146.691406 C 190.171875 146.691406 190.292969 146.710938 190.433594 146.710938 C 192.203125 146.710938 193.753906 145.746094 194.601562 144.34375 C 194.417969 143.117188 193.855469 142.035156 193.03125 141.191406 C 192.023438 140.1875 190.632812 139.566406 189.082031 139.566406 C 188.582031 139.566406 188.15625 139.144531 188.15625 138.644531 C 188.15625 138.140625 188.558594 137.71875 189.082031 137.71875 C 191.136719 137.71875 192.988281 138.542969 194.316406 139.886719 C 195.507812 141.070312 196.292969 142.636719 196.453125 144.402344 C 196.492188 144.421875 196.53125 144.445312 196.574219 144.464844 C 196.695312 144.402344 196.855469 144.363281 196.996094 144.363281 C 198.527344 144.363281 199.914062 143.742188 200.941406 142.738281 Z M 193.109375 121.964844 C 192.808594 121.5625 192.890625 120.980469 193.292969 120.679688 C 193.695312 120.378906 194.277344 120.460938 194.578125 120.863281 C 195.285156 121.785156 196.351562 121.746094 197.054688 121.582031 C 196.855469 120.902344 196.792969 120.179688 196.894531 119.4375 C 196.957031 118.933594 197.417969 118.59375 197.921875 118.652344 C 198.425781 118.714844 198.769531 119.175781 198.707031 119.675781 C 198.585938 120.601562 198.847656 121.484375 199.371094 122.1875 C 199.894531 122.867188 200.679688 123.351562 201.605469 123.492188 C 202.109375 123.550781 202.453125 124.011719 202.390625 124.515625 C 202.332031 125.015625 201.867188 125.355469 201.363281 125.296875 C 199.933594 125.097656 198.726562 124.355469 197.921875 123.289062 C 197.921875 123.269531 197.902344 123.269531 197.902344 123.25 C 196.773438 123.589844 194.601562 123.910156 193.128906 121.964844 Z M 177.808594 138.863281 C 179.238281 139.066406 180.445312 139.808594 181.253906 140.871094 C 181.253906 140.890625 181.273438 140.890625 181.273438 140.910156 C 182.398438 140.570312 184.574219 140.25 186.042969 142.195312 C 186.347656 142.597656 186.265625 143.179688 185.863281 143.480469 C 185.460938 143.78125 184.875 143.699219 184.574219 143.300781 C 183.871094 142.375 182.800781 142.417969 182.097656 142.578125 C 182.300781 143.257812 182.359375 143.980469 182.257812 144.722656 C 182.199219 145.226562 181.734375 145.566406 181.230469 145.507812 C 180.730469 145.445312 180.386719 144.984375 180.445312 144.484375 C 180.566406 143.558594 180.304688 142.675781 179.78125 141.976562 C 179.257812 141.292969 178.472656 140.8125 177.546875 140.671875 C 177.042969 140.609375 176.703125 140.148438 176.761719 139.648438 C 176.824219 139.144531 177.285156 138.804688 177.789062 138.863281 Z M 177.808594 138.863281 " fill-opacity="1" fill-rule="evenodd"/><g fill="#f4f6fc" fill-opacity="1"><g transform="translate(94.260432, 263.504569)"><g><path d="M 18.84375 0 L 17.4375 -4.265625 L 8.3125 -4.265625 L 6.90625 0 L 0.328125 0 L 9.15625 -25.46875 L 16.671875 -25.46875 L 25.46875 0 Z M 9.875 -8.96875 L 15.875 -8.96875 L 12.875 -18.015625 Z M 9.875 -8.96875 "/></g></g></g><g fill="#f4f6fc" fill-opacity="1"><g transform="translate(119.143873, 263.504569)"><g><path d="M 8.890625 -20.1875 L 8.890625 -17.21875 C 10.171875 -19.34375 12.210938 -20.40625 15.015625 -20.40625 C 17.328125 -20.40625 19.195312 -19.628906 20.625 -18.078125 C 22.0625 -16.535156 22.78125 -14.441406 22.78125 -11.796875 L 22.78125 0 L 16.640625 0 L 16.640625 -10.953125 C 16.640625 -12.253906 16.296875 -13.257812 15.609375 -13.96875 C 14.921875 -14.6875 13.972656 -15.046875 12.765625 -15.046875 C 11.554688 -15.046875 10.609375 -14.6875 9.921875 -13.96875 C 9.234375 -13.257812 8.890625 -12.253906 8.890625 -10.953125 L 8.890625 0 L 2.71875 0 L 2.71875 -20.1875 Z M 8.890625 -20.1875 "/></g></g></g><g fill="#f4f6fc" fill-opacity="1"><g transform="translate(143.557133, 263.504569)"><g><path d="M 16.421875 -20.1875 L 22.609375 -20.1875 L 22.609375 0 L 16.421875 0 L 16.421875 -2.96875 C 15.140625 -0.84375 13.101562 0.21875 10.3125 0.21875 C 8 0.21875 6.125 -0.550781 4.6875 -2.09375 C 3.25 -3.632812 2.53125 -5.734375 2.53125 -8.390625 L 2.53125 -20.1875 L 8.6875 -20.1875 L 8.6875 -9.21875 C 8.6875 -7.914062 9.03125 -6.910156 9.71875 -6.203125 C 10.40625 -5.492188 11.347656 -5.140625 12.546875 -5.140625 C 13.753906 -5.140625 14.703125 -5.492188 15.390625 -6.203125 C 16.078125 -6.910156 16.421875 -7.914062 16.421875 -9.21875 Z M 16.421875 -20.1875 "/></g></g></g><g fill="#f4f6fc" fill-opacity="1"><g transform="translate(167.970392, 263.504569)"><g><path d="M 3.90625 -2.640625 C 2.125 -4.566406 1.234375 -7.035156 1.234375 -10.046875 C 1.234375 -13.066406 2.125 -15.546875 3.90625 -17.484375 C 5.6875 -19.429688 7.859375 -20.40625 10.421875 -20.40625 C 12.992188 -20.40625 14.96875 -19.453125 16.34375 -17.546875 L 16.34375 -20.1875 L 22.53125 -20.1875 L 22.53125 -0.109375 C 22.53125 2.710938 21.757812 5.0625 20.21875 6.9375 C 19.445312 7.90625 18.390625 8.65625 17.046875 9.1875 C 15.710938 9.71875 14.164062 9.984375 12.40625 9.984375 C 9.320312 9.984375 6.875 9.351562 5.0625 8.09375 C 3.25 6.84375 2.222656 4.925781 1.984375 2.34375 L 8.0625 2.34375 C 8.644531 3.863281 10.09375 4.625 12.40625 4.625 C 13.539062 4.625 14.476562 4.242188 15.21875 3.484375 C 15.96875 2.722656 16.34375 1.523438 16.34375 -0.109375 L 16.34375 -2.9375 C 14.851562 -0.8125 12.851562 0.25 10.34375 0.25 C 7.832031 0.25 5.6875 -0.710938 3.90625 -2.640625 Z M 15 -6.390625 C 15.894531 -7.265625 16.34375 -8.5 16.34375 -10.09375 C 16.34375 -11.6875 15.894531 -12.910156 15 -13.765625 C 14.113281 -14.617188 13.09375 -15.046875 11.9375 -15.046875 C 10.78125 -15.046875 9.753906 -14.609375 8.859375 -13.734375 C 7.972656 -12.867188 7.53125 -11.640625 7.53125 -10.046875 C 7.53125 -8.460938 7.972656 -7.238281 8.859375 -6.375 C 9.753906 -5.519531 10.78125 -5.09375 11.9375 -5.09375 C 13.09375 -5.09375 14.113281 -5.523438 15 -6.390625 Z M 15 -6.390625 "/></g></g></g><g fill="#f4f6fc" fill-opacity="1"><g transform="translate(192.311313, 263.504569)"><g><path d="M 8.890625 -20.1875 L 8.890625 -16.421875 C 10.335938 -19.078125 12.269531 -20.40625 14.6875 -20.40625 L 14.6875 -14.109375 L 13.171875 -14.109375 C 11.742188 -14.109375 10.671875 -13.769531 9.953125 -13.09375 C 9.242188 -12.414062 8.890625 -11.234375 8.890625 -9.546875 L 8.890625 0 L 2.71875 0 L 2.71875 -20.1875 Z M 8.890625 -20.1875 "/></g></g></g><g fill="#f4f6fc" fill-opacity="1"><g transform="translate(206.742235, 263.504569)"><g><path d="M 15 -6.390625 C 15.894531 -7.265625 16.34375 -8.5 16.34375 -10.09375 C 16.34375 -11.6875 15.894531 -12.910156 15 -13.765625 C 14.113281 -14.617188 13.09375 -15.046875 11.9375 -15.046875 C 10.78125 -15.046875 9.753906 -14.609375 8.859375 -13.734375 C 7.972656 -12.867188 7.53125 -11.640625 7.53125 -10.046875 C 7.53125 -8.460938 7.972656 -7.238281 8.859375 -6.375 C 9.753906 -5.519531 10.78125 -5.09375 11.9375 -5.09375 C 13.09375 -5.09375 14.113281 -5.523438 15 -6.390625 Z M 3.90625 -2.640625 C 2.125 -4.566406 1.234375 -7.035156 1.234375 -10.046875 C 1.234375 -13.066406 2.125 -15.546875 3.90625 -17.484375 C 5.6875 -19.429688 7.859375 -20.40625 10.421875 -20.40625 C 12.992188 -20.40625 14.96875 -19.453125 16.34375 -17.546875 L 16.34375 -20.1875 L 22.53125 -20.1875 L 22.53125 0 L 16.34375 0 L 16.34375 -2.9375 C 14.851562 -0.8125 12.851562 0.25 10.34375 0.25 C 7.832031 0.25 5.6875 -0.710938 3.90625 -2.640625 Z M 3.90625 -2.640625 "/></g></g></g><g fill="#f4f6fc" fill-opacity="1"><g transform="translate(231.083148, 263.504569)"><g><path d="M 8.890625 -26.765625 L 8.890625 -17.21875 C 10.171875 -19.34375 12.210938 -20.40625 15.015625 -20.40625 C 17.328125 -20.40625 19.195312 -19.628906 20.625 -18.078125 C 22.0625 -16.535156 22.78125 -14.441406 22.78125 -11.796875 L 22.78125 0 L 16.640625 0 L 16.640625 -10.953125 C 16.640625 -12.253906 16.296875 -13.257812 15.609375 -13.96875 C 14.921875 -14.6875 13.972656 -15.046875 12.765625 -15.046875 C 11.554688 -15.046875 10.609375 -14.6875 9.921875 -13.96875 C 9.234375 -13.257812 8.890625 -12.253906 8.890625 -10.953125 L 8.890625 0 L 2.71875 0 L 2.71875 -26.765625 Z M 8.890625 -26.765625 "/></g></g></g><g fill="#f4f6fc" fill-opacity="1"><g transform="translate(255.496408, 263.504569)"><g><path d="M 15 -6.390625 C 15.894531 -7.265625 16.34375 -8.5 16.34375 -10.09375 C 16.34375 -11.6875 15.894531 -12.910156 15 -13.765625 C 14.113281 -14.617188 13.09375 -15.046875 11.9375 -15.046875 C 10.78125 -15.046875 9.753906 -14.609375 8.859375 -13.734375 C 7.972656 -12.867188 7.53125 -11.640625 7.53125 -10.046875 C 7.53125 -8.460938 7.972656 -7.238281 8.859375 -6.375 C 9.753906 -5.519531 10.78125 -5.09375 11.9375 -5.09375 C 13.09375 -5.09375 14.113281 -5.523438 15 -6.390625 Z M 3.90625 -2.640625 C 2.125 -4.566406 1.234375 -7.035156 1.234375 -10.046875 C 1.234375 -13.066406 2.125 -15.546875 3.90625 -17.484375 C 5.6875 -19.429688 7.859375 -20.40625 10.421875 -20.40625 C 12.992188 -20.40625 14.96875 -19.453125 16.34375 -17.546875 L 16.34375 -20.1875 L 22.53125 -20.1875 L 22.53125 0 L 16.34375 0 L 16.34375 -2.9375 C 14.851562 -0.8125 12.851562 0.25 10.34375 0.25 C 7.832031 0.25 5.6875 -0.710938 3.90625 -2.640625 Z M 3.90625 -2.640625 "/></g></g></g><g fill="#233dff" fill-opacity="1"><g transform="translate(160.580679, 293.077774)"><g><path d="M 0.578125 -12.125 L 0.578125 -14.890625 L 12.3125 -14.890625 L 12.3125 -12.125 L 8.25 -12.125 L 8.25 0 L 4.625 0 L 4.625 -12.125 Z M 0.578125 -12.125 "/></g></g></g><g fill="#233dff" fill-opacity="1"><g transform="translate(173.468911, 293.077774)"><g><path d="M 6.609375 0.140625 C 4.890625 0.140625 3.476562 -0.410156 2.375 -1.515625 C 1.269531 -2.628906 0.71875 -4.101562 0.71875 -5.9375 C 0.71875 -7.769531 1.265625 -9.226562 2.359375 -10.3125 C 3.453125 -11.40625 4.867188 -11.953125 6.609375 -11.953125 C 8.347656 -11.953125 9.789062 -11.414062 10.9375 -10.34375 C 12.082031 -9.269531 12.65625 -7.78125 12.65625 -5.875 C 12.65625 -5.46875 12.628906 -5.085938 12.578125 -4.734375 L 4.4375 -4.734375 C 4.5 -4.203125 4.726562 -3.769531 5.125 -3.4375 C 5.519531 -3.113281 5.945312 -2.953125 6.40625 -2.953125 C 6.875 -2.953125 7.21875 -2.992188 7.4375 -3.078125 C 7.664062 -3.171875 7.832031 -3.265625 7.9375 -3.359375 C 8.039062 -3.453125 8.179688 -3.601562 8.359375 -3.8125 L 12.28125 -3.8125 C 11.9375 -2.625 11.253906 -1.664062 10.234375 -0.9375 C 9.222656 -0.21875 8.015625 0.140625 6.609375 0.140625 Z M 8.890625 -7 C 8.828125 -7.550781 8.582031 -8 8.15625 -8.34375 C 7.738281 -8.6875 7.238281 -8.859375 6.65625 -8.859375 C 6.070312 -8.859375 5.582031 -8.6875 5.1875 -8.34375 C 4.789062 -8 4.546875 -7.550781 4.453125 -7 Z M 8.890625 -7 "/></g></g></g><g fill="#233dff" fill-opacity="1"><g transform="translate(186.865885, 293.077774)"><g><path d="M 2.359375 -1.5 C 1.265625 -2.601562 0.71875 -4.070312 0.71875 -5.90625 C 0.71875 -7.75 1.265625 -9.21875 2.359375 -10.3125 C 3.453125 -11.40625 4.867188 -11.953125 6.609375 -11.953125 C 8.054688 -11.953125 9.28125 -11.59375 10.28125 -10.875 C 11.28125 -10.164062 11.945312 -9.148438 12.28125 -7.828125 L 8.359375 -7.828125 C 8.015625 -8.535156 7.457031 -8.890625 6.6875 -8.890625 C 5.914062 -8.890625 5.34375 -8.613281 4.96875 -8.0625 C 4.59375 -7.519531 4.40625 -6.800781 4.40625 -5.90625 C 4.40625 -5.019531 4.59375 -4.304688 4.96875 -3.765625 C 5.34375 -3.222656 5.890625 -2.953125 6.609375 -2.953125 C 7.066406 -2.953125 7.421875 -3.023438 7.671875 -3.171875 C 7.929688 -3.328125 8.160156 -3.601562 8.359375 -4 L 12.28125 -4 C 11.945312 -2.726562 11.269531 -1.71875 10.25 -0.96875 C 9.238281 -0.226562 8.023438 0.140625 6.609375 0.140625 C 4.867188 0.140625 3.453125 -0.40625 2.359375 -1.5 Z M 2.359375 -1.5 "/></g></g></g><g fill="#233dff" fill-opacity="1"><g transform="translate(199.584532, 293.077774)"><g><path d="M 5.21875 -15.6875 L 5.21875 -10.09375 C 5.96875 -11.332031 7.160156 -11.953125 8.796875 -11.953125 C 10.148438 -11.953125 11.25 -11.5 12.09375 -10.59375 C 12.9375 -9.695312 13.359375 -8.46875 13.359375 -6.90625 L 13.359375 0 L 9.75 0 L 9.75 -6.421875 C 9.75 -7.179688 9.546875 -7.769531 9.140625 -8.1875 C 8.742188 -8.613281 8.191406 -8.828125 7.484375 -8.828125 C 6.773438 -8.828125 6.21875 -8.613281 5.8125 -8.1875 C 5.414062 -7.769531 5.21875 -7.179688 5.21875 -6.421875 L 5.21875 0 L 1.59375 0 L 1.59375 -15.6875 Z M 5.21875 -15.6875 "/></g></g></g></svg>