<svg xmlns="http://www.w3.org/2000/svg" xmlns:xlink="http://www.w3.org/1999/xlink" width="500" zoomAndPan="magnify" viewBox="0 0 375 374.999991" height="500" preserveAspectRatio="xMidYMid meet" version="1.0"><defs><g/><clipPath id="8e4dce756c"><path d="M 118 191 L 128 191 L 128 196.757812 L 118 196.757812 Z M 118 191 " clip-rule="nonzero"/></clipPath><clipPath id="34affc8f24"><path d="M 110.328125 154 L 136.578125 154 L 136.578125 184 L 110.328125 184 Z M 110.328125 154 " clip-rule="nonzero"/></clipPath><clipPath id="cc0db6611f"><path d="M 116 146.507812 L 131 146.507812 L 131 154 L 116 154 Z M 116 146.507812 " clip-rule="nonzero"/></clipPath><clipPath id="5e8fc22e69"><path d="M 89 199 L 204 199 L 204 216 L 89 216 Z M 89 199 " clip-rule="nonzero"/></clipPath><clipPath id="ee88b3b5b4"><path d="M 85.246094 207.566406 L 158.925781 147.199219 L 209.308594 208.695312 L 135.628906 269.0625 Z M 85.246094 207.566406 " clip-rule="nonzero"/></clipPath><clipPath id="d22e858b54"><path d="M 85.246094 207.566406 L 158.925781 147.199219 L 209.308594 208.695312 L 135.628906 269.0625 Z M 85.246094 207.566406 " clip-rule="nonzero"/></clipPath><clipPath id="d0c7f589bf"><path d="M 85.246094 207.566406 L 158.925781 147.199219 L 209.308594 208.695312 L 135.628906 269.0625 Z M 85.246094 207.566406 " clip-rule="nonzero"/></clipPath><clipPath id="bbe064ea21"><path d="M 91 200 L 200 200 L 200 216 L 91 216 Z M 91 200 " clip-rule="nonzero"/></clipPath><clipPath id="bec49a9a74"><path d="M 85.246094 207.566406 L 158.925781 147.199219 L 209.308594 208.695312 L 135.628906 269.0625 Z M 85.246094 207.566406 " clip-rule="nonzero"/></clipPath><clipPath id="aeebc5f75a"><path d="M 85.246094 207.566406 L 158.925781 147.199219 L 209.308594 208.695312 L 135.628906 269.0625 Z M 85.246094 207.566406 " clip-rule="nonzero"/></clipPath><clipPath id="64cb980e98"><path d="M 85.246094 207.566406 L 158.925781 147.199219 L 209.308594 208.695312 L 135.628906 269.0625 Z M 85.246094 207.566406 " clip-rule="nonzero"/></clipPath><clipPath id="3bd1202034"><path d="M 164 200 L 172 200 L 172 211 L 164 211 Z M 164 200 " clip-rule="nonzero"/></clipPath><clipPath id="bee39d7516"><path d="M 85.246094 207.566406 L 158.925781 147.199219 L 209.308594 208.695312 L 135.628906 269.0625 Z M 85.246094 207.566406 " clip-rule="nonzero"/></clipPath><clipPath id="ec871d624a"><path d="M 85.246094 207.566406 L 158.925781 147.199219 L 209.308594 208.695312 L 135.628906 269.0625 Z M 85.246094 207.566406 " clip-rule="nonzero"/></clipPath><clipPath id="657f192a34"><path d="M 85.246094 207.566406 L 158.925781 147.199219 L 209.308594 208.695312 L 135.628906 269.0625 Z M 85.246094 207.566406 " clip-rule="nonzero"/></clipPath><clipPath id="ebe19d6d34"><path d="M 189 199 L 202 199 L 202 213 L 189 213 Z M 189 199 " clip-rule="nonzero"/></clipPath><clipPath id="1953224632"><path d="M 85.246094 207.566406 L 158.925781 147.199219 L 209.308594 208.695312 L 135.628906 269.0625 Z M 85.246094 207.566406 " clip-rule="nonzero"/></clipPath><clipPath id="f26e61e6ef"><path d="M 85.246094 207.566406 L 158.925781 147.199219 L 209.308594 208.695312 L 135.628906 269.0625 Z M 85.246094 207.566406 " clip-rule="nonzero"/></clipPath><clipPath id="567618c82d"><path d="M 85.246094 207.566406 L 158.925781 147.199219 L 209.308594 208.695312 L 135.628906 269.0625 Z M 85.246094 207.566406 " clip-rule="nonzero"/></clipPath><clipPath id="566b03ec7d"><path d="M 210 164.84375 L 223.992188 164.84375 L 223.992188 178 L 210 178 Z M 210 164.84375 " clip-rule="nonzero"/></clipPath><clipPath id="7921a70e74"><path d="M 214 164.84375 L 223 164.84375 L 223 176 L 214 176 Z M 214 164.84375 " clip-rule="nonzero"/></clipPath><clipPath id="b683e08f66"><path d="M 215 164.84375 L 223 164.84375 L 223 176 L 215 176 Z M 215 164.84375 " clip-rule="nonzero"/></clipPath><clipPath id="9c6c8e8780"><path d="M 260 164.84375 L 273.949219 164.84375 L 273.949219 178 L 260 178 Z M 260 164.84375 " clip-rule="nonzero"/></clipPath><clipPath id="6fb136d329"><path d="M 264 164.84375 L 273 164.84375 L 273 176 L 264 176 Z M 264 164.84375 " clip-rule="nonzero"/></clipPath><clipPath id="003304d0d3"><path d="M 265 164.84375 L 273 164.84375 L 273 176 L 265 176 Z M 265 164.84375 " clip-rule="nonzero"/></clipPath><clipPath id="147faa83e4"><path d="M 43.175781 154.570312 L 71.675781 154.570312 L 71.675781 220.570312 L 43.175781 220.570312 Z M 43.175781 154.570312 " clip-rule="nonzero"/></clipPath><clipPath id="fece478d7c"><path d="M 290.65625 154.429688 L 319.15625 154.429688 L 319.15625 220.429688 L 290.65625 220.429688 Z M 290.65625 154.429688 " clip-rule="nonzero"/></clipPath></defs><g fill="#f4f6fc" fill-opacity="1"><g transform="translate(141.083825, 181.862195)"><g><path d="M 16.421875 -20.1875 L 22.609375 -20.1875 L 22.609375 0 L 16.421875 0 L 16.421875 -2.96875 C 15.140625 -0.84375 13.101562 0.21875 10.3125 0.21875 C 8 0.21875 6.125 -0.550781 4.6875 -2.09375 C 3.25 -3.632812 2.53125 -5.734375 2.53125 -8.390625 L 2.53125 -20.1875 L 8.6875 -20.1875 L 8.6875 -9.21875 C 8.6875 -7.914062 9.03125 -6.910156 9.71875 -6.203125 C 10.40625 -5.492188 11.347656 -5.140625 12.546875 -5.140625 C 13.753906 -5.140625 14.703125 -5.492188 15.390625 -6.203125 C 16.078125 -6.910156 16.421875 -7.914062 16.421875 -9.21875 Z M 16.421875 -20.1875 "/></g></g></g><g fill="#f4f6fc" fill-opacity="1"><g transform="translate(165.497084, 181.862195)"><g><path d="M 3.90625 -2.640625 C 2.125 -4.566406 1.234375 -7.035156 1.234375 -10.046875 C 1.234375 -13.066406 2.125 -15.546875 3.90625 -17.484375 C 5.6875 -19.429688 7.859375 -20.40625 10.421875 -20.40625 C 12.992188 -20.40625 14.96875 -19.453125 16.34375 -17.546875 L 16.34375 -20.1875 L 22.53125 -20.1875 L 22.53125 -0.109375 C 22.53125 2.710938 21.757812 5.0625 20.21875 6.9375 C 19.445312 7.90625 18.390625 8.65625 17.046875 9.1875 C 15.710938 9.71875 14.164062 9.984375 12.40625 9.984375 C 9.320312 9.984375 6.875 9.351562 5.0625 8.09375 C 3.25 6.84375 2.222656 4.925781 1.984375 2.34375 L 8.0625 2.34375 C 8.644531 3.863281 10.09375 4.625 12.40625 4.625 C 13.539062 4.625 14.476562 4.242188 15.21875 3.484375 C 15.96875 2.722656 16.34375 1.523438 16.34375 -0.109375 L 16.34375 -2.9375 C 14.851562 -0.8125 12.851562 0.25 10.34375 0.25 C 7.832031 0.25 5.6875 -0.710938 3.90625 -2.640625 Z M 15 -6.390625 C 15.894531 -7.265625 16.34375 -8.5 16.34375 -10.09375 C 16.34375 -11.6875 15.894531 -12.910156 15 -13.765625 C 14.113281 -14.617188 13.09375 -15.046875 11.9375 -15.046875 C 10.78125 -15.046875 9.753906 -14.609375 8.859375 -13.734375 C 7.972656 -12.867188 7.53125 -11.640625 7.53125 -10.046875 C 7.53125 -8.460938 7.972656 -7.238281 8.859375 -6.375 C 9.753906 -5.519531 10.78125 -5.09375 11.9375 -5.09375 C 13.09375 -5.09375 14.113281 -5.523438 15 -6.390625 Z M 15 -6.390625 "/></g></g></g><g fill="#f4f6fc" fill-opacity="1"><g transform="translate(189.838005, 181.862195)"><g><path d="M 8.890625 -20.1875 L 8.890625 -16.421875 C 10.335938 -19.078125 12.269531 -20.40625 14.6875 -20.40625 L 14.6875 -14.109375 L 13.171875 -14.109375 C 11.742188 -14.109375 10.671875 -13.769531 9.953125 -13.09375 C 9.242188 -12.414062 8.890625 -11.234375 8.890625 -9.546875 L 8.890625 0 L 2.71875 0 L 2.71875 -20.1875 Z M 8.890625 -20.1875 "/></g></g></g><g fill="#f4f6fc" fill-opacity="1"><g transform="translate(204.268927, 181.862195)"><g><path d="M 15 -6.390625 C 15.894531 -7.265625 16.34375 -8.5 16.34375 -10.09375 C 16.34375 -11.6875 15.894531 -12.910156 15 -13.765625 C 14.113281 -14.617188 13.09375 -15.046875 11.9375 -15.046875 C 10.78125 -15.046875 9.753906 -14.609375 8.859375 -13.734375 C 7.972656 -12.867188 7.53125 -11.640625 7.53125 -10.046875 C 7.53125 -8.460938 7.972656 -7.238281 8.859375 -6.375 C 9.753906 -5.519531 10.78125 -5.09375 11.9375 -5.09375 C 13.09375 -5.09375 14.113281 -5.523438 15 -6.390625 Z M 3.90625 -2.640625 C 2.125 -4.566406 1.234375 -7.035156 1.234375 -10.046875 C 1.234375 -13.066406 2.125 -15.546875 3.90625 -17.484375 C 5.6875 -19.429688 7.859375 -20.40625 10.421875 -20.40625 C 12.992188 -20.40625 14.96875 -19.453125 16.34375 -17.546875 L 16.34375 -20.1875 L 22.53125 -20.1875 L 22.53125 0 L 16.34375 0 L 16.34375 -2.9375 C 14.851562 -0.8125 12.851562 0.25 10.34375 0.25 C 7.832031 0.25 5.6875 -0.710938 3.90625 -2.640625 Z M 3.90625 -2.640625 "/></g></g></g><g fill="#f4f6fc" fill-opacity="1"><g transform="translate(228.609848, 181.862195)"><g><path d="M 8.890625 -26.765625 L 8.890625 -17.21875 C 10.171875 -19.34375 12.210938 -20.40625 15.015625 -20.40625 C 17.328125 -20.40625 19.195312 -19.628906 20.625 -18.078125 C 22.0625 -16.535156 22.78125 -14.441406 22.78125 -11.796875 L 22.78125 0 L 16.640625 0 L 16.640625 -10.953125 C 16.640625 -12.253906 16.296875 -13.257812 15.609375 -13.96875 C 14.921875 -14.6875 13.972656 -15.046875 12.765625 -15.046875 C 11.554688 -15.046875 10.609375 -14.6875 9.921875 -13.96875 C 9.234375 -13.257812 8.890625 -12.253906 8.890625 -10.953125 L 8.890625 0 L 2.71875 0 L 2.71875 -26.765625 Z M 8.890625 -26.765625 "/></g></g></g><g fill="#f4f6fc" fill-opacity="1"><g transform="translate(253.023107, 181.862195)"><g><path d="M 15 -6.390625 C 15.894531 -7.265625 16.34375 -8.5 16.34375 -10.09375 C 16.34375 -11.6875 15.894531 -12.910156 15 -13.765625 C 14.113281 -14.617188 13.09375 -15.046875 11.9375 -15.046875 C 10.78125 -15.046875 9.753906 -14.609375 8.859375 -13.734375 C 7.972656 -12.867188 7.53125 -11.640625 7.53125 -10.046875 C 7.53125 -8.460938 7.972656 -7.238281 8.859375 -6.375 C 9.753906 -5.519531 10.78125 -5.09375 11.9375 -5.09375 C 13.09375 -5.09375 14.113281 -5.523438 15 -6.390625 Z M 3.90625 -2.640625 C 2.125 -4.566406 1.234375 -7.035156 1.234375 -10.046875 C 1.234375 -13.066406 2.125 -15.546875 3.90625 -17.484375 C 5.6875 -19.429688 7.859375 -20.40625 10.421875 -20.40625 C 12.992188 -20.40625 14.96875 -19.453125 16.34375 -17.546875 L 16.34375 -20.1875 L 22.53125 -20.1875 L 22.53125 0 L 16.34375 0 L 16.34375 -2.9375 C 14.851562 -0.8125 12.851562 0.25 10.34375 0.25 C 7.832031 0.25 5.6875 -0.710938 3.90625 -2.640625 Z M 3.90625 -2.640625 "/></g></g></g><path fill="#cae8ff" d="M 127.980469 186.714844 L 117.644531 184.4375 C 117.621094 184.429688 117.59375 184.421875 117.566406 184.410156 C 117.375 184.363281 117.191406 184.289062 117.027344 184.203125 C 116.664062 184.03125 116.363281 183.785156 116.199219 183.496094 C 116.097656 183.324219 116 183.042969 116.097656 182.734375 C 116.21875 182.382812 116.566406 182.109375 117.019531 181.945312 C 117.183594 181.886719 117.371094 181.847656 117.5625 181.820312 C 117.671875 181.804688 117.769531 181.78125 117.890625 181.78125 C 118.105469 181.78125 118.324219 181.804688 118.535156 181.851562 L 123 182.839844 L 123.542969 182.957031 L 128.875 184.132812 C 128.902344 184.136719 128.929688 184.152344 128.957031 184.15625 C 129.144531 184.203125 129.332031 184.277344 129.496094 184.355469 C 129.859375 184.535156 130.152344 184.773438 130.320312 185.066406 C 130.417969 185.238281 130.515625 185.515625 130.417969 185.828125 C 130.300781 186.179688 129.949219 186.449219 129.496094 186.613281 C 129.230469 186.707031 128.949219 186.773438 128.632812 186.773438 C 128.433594 186.773438 128.230469 186.746094 128.039062 186.707031 C 128.019531 186.703125 128 186.707031 127.980469 186.703125 Z M 126.585938 184.503906 C 126.550781 184.648438 126.644531 184.792969 126.789062 184.828125 L 128.871094 185.285156 C 128.890625 185.289062 128.910156 185.289062 128.929688 185.289062 C 128.933594 185.289062 128.941406 185.285156 128.957031 185.285156 C 129.066406 185.277344 129.167969 185.199219 129.199219 185.078125 C 129.230469 184.933594 129.140625 184.785156 128.988281 184.753906 L 128.957031 184.746094 L 126.90625 184.296875 C 126.761719 184.261719 126.617188 184.355469 126.585938 184.503906 Z M 126.585938 184.503906 " fill-opacity="1" fill-rule="evenodd"/><path fill="#cae8ff" d="M 118.535156 185.242188 L 125.253906 186.722656 L 127.722656 187.265625 L 128.875 187.515625 C 129.535156 187.660156 130.074219 188.011719 130.324219 188.449219 C 130.425781 188.628906 130.523438 188.898438 130.425781 189.210938 C 130.238281 189.769531 129.507812 190.160156 128.632812 190.160156 C 128.488281 190.160156 128.335938 190.132812 128.183594 190.113281 C 128.117188 190.097656 128.046875 190.105469 127.980469 190.085938 L 127.550781 189.992188 L 120.203125 188.371094 L 119.535156 188.226562 L 117.644531 187.808594 C 116.988281 187.660156 116.449219 187.316406 116.199219 186.875 C 116.097656 186.703125 116 186.421875 116.097656 186.113281 C 116.21875 185.761719 116.566406 185.488281 117.019531 185.324219 C 117.183594 185.265625 117.371094 185.222656 117.5625 185.199219 C 117.671875 185.183594 117.769531 185.15625 117.890625 185.15625 C 118.105469 185.15625 118.324219 185.183594 118.535156 185.230469 Z M 126.867188 188.136719 L 128.871094 188.574219 C 128.890625 188.582031 128.910156 188.582031 128.929688 188.582031 C 129.054688 188.582031 129.167969 188.496094 129.191406 188.371094 C 129.226562 188.226562 129.132812 188.078125 128.980469 188.046875 L 126.894531 187.582031 C 126.75 187.550781 126.605469 187.640625 126.570312 187.789062 C 126.5625 187.832031 126.585938 187.867188 126.597656 187.90625 C 126.625 188 126.683594 188.085938 126.78125 188.113281 L 126.867188 188.132812 Z M 126.867188 188.136719 " fill-opacity="1" fill-rule="evenodd"/><path fill="#cae8ff" d="M 119.695312 188.878906 L 127.789062 190.667969 L 128.394531 190.800781 L 128.875 190.90625 C 129.527344 191.054688 130.074219 191.398438 130.324219 191.839844 C 130.425781 192.019531 130.523438 192.292969 130.425781 192.601562 C 130.238281 193.160156 129.507812 193.550781 128.640625 193.550781 C 128.527344 193.550781 128.414062 193.523438 128.304688 193.511719 C 128.203125 193.496094 128.09375 193.496094 127.988281 193.476562 L 127.761719 193.425781 L 118.582031 191.398438 L 118.054688 191.285156 L 117.644531 191.191406 C 116.988281 191.046875 116.449219 190.703125 116.199219 190.257812 C 116.050781 190.007812 116.019531 189.742188 116.097656 189.496094 C 116.28125 188.941406 117.015625 188.550781 117.882812 188.550781 C 118.101562 188.550781 118.316406 188.574219 118.527344 188.621094 L 119.09375 188.746094 L 119.6875 188.878906 Z M 126.90625 190.96875 C 126.761719 190.933594 126.617188 191.027344 126.585938 191.171875 C 126.550781 191.324219 126.644531 191.464844 126.789062 191.496094 L 127.972656 191.753906 L 128.527344 191.875 L 128.871094 191.953125 C 128.890625 191.960938 128.910156 191.960938 128.929688 191.960938 C 129.054688 191.960938 129.167969 191.875 129.191406 191.75 C 129.226562 191.601562 129.132812 191.457031 128.980469 191.425781 L 128.460938 191.3125 L 127.90625 191.1875 L 126.894531 190.96875 Z M 126.90625 190.96875 " fill-opacity="1" fill-rule="evenodd"/><g clip-path="url(#8e4dce756c)"><path fill="#cae8ff" d="M 118.523438 191.949219 L 127.570312 193.941406 C 126.828125 195.597656 125.179688 196.757812 123.257812 196.757812 C 120.644531 196.757812 118.515625 194.617188 118.515625 191.988281 C 118.515625 191.972656 118.523438 191.960938 118.523438 191.949219 Z M 122.429688 195.738281 C 122.472656 195.589844 122.386719 195.4375 122.25 195.398438 C 121.15625 195.066406 120.289062 194.226562 119.917969 193.140625 C 119.867188 193 119.714844 192.929688 119.574219 192.96875 C 119.4375 193.015625 119.359375 193.171875 119.40625 193.3125 C 119.832031 194.5625 120.839844 195.539062 122.097656 195.914062 C 122.125 195.921875 122.152344 195.929688 122.179688 195.929688 C 122.296875 195.929688 122.402344 195.855469 122.433594 195.730469 Z M 122.429688 195.738281 " fill-opacity="1" fill-rule="evenodd"/></g><g clip-path="url(#34affc8f24)"><path fill="#cae8ff" d="M 131.234375 176.15625 C 129.882812 178.070312 128.726562 179.726562 128.640625 181.023438 L 128.640625 183.476562 L 129.039062 183.5625 L 129.582031 183.679688 L 130.199219 183.820312 L 130.199219 181.078125 C 130.234375 180.679688 130.503906 180.117188 130.898438 179.453125 C 131.328125 178.738281 131.90625 177.910156 132.503906 177.054688 C 132.691406 176.796875 132.839844 176.574219 132.945312 176.425781 C 133.117188 176.183594 133.269531 175.964844 133.386719 175.792969 C 134.085938 174.769531 135.0625 173.160156 135.746094 171.320312 C 136.226562 170.023438 136.570312 168.605469 136.570312 167.199219 C 136.570312 163.5625 135.101562 160.265625 132.722656 157.878906 C 130.34375 155.488281 127.070312 154.011719 123.449219 154.011719 C 119.832031 154.011719 116.554688 155.488281 114.183594 157.878906 C 111.804688 160.269531 110.335938 163.5625 110.335938 167.199219 C 110.335938 168.609375 110.679688 170.023438 111.160156 171.328125 C 111.84375 173.175781 112.820312 174.777344 113.515625 175.796875 C 113.621094 175.949219 113.773438 176.175781 113.957031 176.433594 C 114.058594 176.578125 114.222656 176.804688 114.398438 177.0625 C 114.878906 177.746094 115.347656 178.414062 115.722656 178.996094 C 116.097656 179.582031 116.394531 180.117188 116.566406 180.574219 L 116.664062 180.832031 L 116.933594 180.890625 L 117.546875 181.023438 L 118.378906 181.210938 L 118.148438 180.386719 C 117.976562 179.785156 117.640625 179.125 117.191406 178.402344 C 116.757812 177.691406 116.230469 176.949219 115.675781 176.15625 C 115.492188 175.890625 115.339844 175.679688 115.242188 175.539062 C 115.125 175.367188 114.980469 175.164062 114.8125 174.917969 C 114.265625 174.117188 113.535156 172.929688 112.945312 171.558594 C 112.355469 170.207031 111.902344 168.691406 111.910156 167.199219 C 111.910156 163.992188 113.207031 161.085938 115.296875 158.984375 C 117.382812 156.886719 120.273438 155.582031 123.460938 155.582031 C 126.648438 155.582031 129.535156 156.886719 131.628906 158.984375 C 133.722656 161.09375 135.019531 164 135.019531 167.199219 C 135.019531 168.417969 134.71875 169.65625 134.289062 170.804688 C 133.664062 172.480469 132.753906 173.964844 132.117188 174.910156 C 131.925781 175.1875 131.648438 175.578125 131.378906 175.96875 L 131.253906 176.15625 Z M 131.234375 176.15625 " fill-opacity="1" fill-rule="nonzero"/></g><g clip-path="url(#cc0db6611f)"><path fill="#233dff" d="M 123.667969 152.421875 C 124.207031 152.421875 124.648438 151.976562 124.648438 151.433594 L 124.648438 147.492188 C 124.648438 146.949219 124.207031 146.507812 123.667969 146.507812 C 123.125 146.507812 122.683594 146.949219 122.683594 147.492188 L 122.683594 151.433594 C 122.683594 151.976562 123.125 152.421875 123.667969 152.421875 Z M 127.414062 153.183594 C 126.914062 152.976562 126.675781 152.394531 126.878906 151.898438 L 128.375 148.253906 C 128.578125 147.75 129.160156 147.511719 129.652344 147.71875 C 130.152344 147.925781 130.390625 148.507812 130.1875 149.003906 L 128.691406 152.648438 C 128.488281 153.152344 127.90625 153.390625 127.414062 153.183594 Z M 119.484375 153.355469 C 119.984375 153.152344 120.222656 152.566406 120.015625 152.070312 L 118.523438 148.425781 C 118.316406 147.925781 117.738281 147.6875 117.246094 147.890625 C 116.742188 148.097656 116.507812 148.679688 116.710938 149.175781 L 118.207031 152.820312 C 118.410156 153.324219 118.988281 153.5625 119.484375 153.355469 Z M 119.484375 153.355469 " fill-opacity="1" fill-rule="evenodd"/></g><path fill="#233dff" d="M 122.921875 163.90625 C 122.941406 163.742188 123.09375 163.628906 123.257812 163.648438 C 123.421875 163.667969 123.535156 163.820312 123.515625 163.988281 C 123.476562 164.292969 123.5625 164.582031 123.730469 164.816406 C 123.902344 165.039062 124.160156 165.207031 124.464844 165.246094 C 124.628906 165.265625 124.738281 165.417969 124.71875 165.582031 C 124.699219 165.75 124.550781 165.863281 124.382812 165.84375 C 123.917969 165.777344 123.519531 165.53125 123.257812 165.179688 C 123.257812 165.171875 123.25 165.171875 123.25 165.167969 C 122.882812 165.277344 122.171875 165.386719 121.691406 164.742188 C 121.589844 164.609375 121.617188 164.417969 121.75 164.320312 C 121.882812 164.21875 122.074219 164.246094 122.171875 164.378906 C 122.402344 164.683594 122.75 164.667969 122.980469 164.617188 C 122.914062 164.390625 122.894531 164.152344 122.929688 163.90625 Z M 128.402344 164.582031 Z M 123.527344 162.074219 Z M 123.015625 161.761719 Z M 117.644531 168.980469 Z M 118.042969 166.386719 Z M 118.554688 166.074219 Z M 117.996094 169.472656 Z M 127.78125 168.816406 C 128.113281 168.484375 128.316406 168.027344 128.316406 167.519531 C 128.316406 167.015625 128.113281 166.558594 127.78125 166.21875 C 127.453125 165.886719 127 165.683594 126.492188 165.683594 C 126.328125 165.683594 126.1875 165.550781 126.1875 165.378906 C 126.1875 165.210938 126.328125 165.074219 126.492188 165.074219 C 127.164062 165.074219 127.769531 165.34375 128.203125 165.789062 C 128.644531 166.234375 128.914062 166.84375 128.914062 167.511719 C 128.914062 167.695312 128.894531 167.875 128.855469 168.046875 C 129.039062 168.101562 129.230469 168.132812 129.4375 168.132812 C 130.503906 168.132812 131.378906 167.304688 131.464844 166.253906 C 131.925781 165.972656 132.234375 165.464844 132.234375 164.882812 C 132.234375 164.191406 131.800781 163.601562 131.195312 163.382812 C 130.984375 163.78125 130.667969 164.101562 130.300781 164.324219 C 129.765625 164.644531 129.113281 164.753906 128.460938 164.589844 L 128.433594 164.582031 L 128.402344 164.5625 C 128.257812 164.492188 128.191406 164.304688 128.269531 164.160156 C 128.335938 164.035156 128.480469 163.96875 128.613281 164 C 129.101562 164.125 129.59375 164.039062 129.996094 163.800781 C 130.398438 163.5625 130.707031 163.171875 130.832031 162.683594 C 130.898438 162.425781 130.90625 162.160156 130.859375 161.90625 C 130.628906 161.335938 130.1875 160.820312 129.59375 160.476562 C 129.566406 160.46875 129.542969 160.464844 129.515625 160.457031 C 129.449219 160.4375 129.390625 160.402344 129.351562 160.351562 C 129.277344 160.316406 129.199219 160.277344 129.121094 160.25 C 128.277344 159.925781 127.394531 159.980469 126.695312 160.324219 C 126.332031 159.769531 125.707031 159.402344 124.996094 159.402344 C 124.5625 159.402344 124.160156 159.542969 123.832031 159.773438 C 123.890625 159.925781 123.929688 160.085938 123.957031 160.246094 C 124.054688 160.859375 123.921875 161.511719 123.535156 162.058594 C 123.449219 162.179688 123.289062 162.226562 123.160156 162.152344 C 123.015625 162.078125 122.949219 161.894531 123.027344 161.75 L 123.054688 161.707031 C 123.351562 161.296875 123.449219 160.800781 123.371094 160.34375 C 123.324219 160.078125 123.226562 159.820312 123.066406 159.59375 C 122.738281 159.371094 122.34375 159.238281 121.921875 159.238281 C 120.839844 159.238281 119.953125 160.085938 119.886719 161.160156 C 119.535156 160.875 119.089844 160.703125 118.609375 160.703125 C 118.527344 160.703125 118.457031 160.707031 118.382812 160.714844 C 118.351562 160.742188 118.316406 160.761719 118.273438 160.769531 C 117.785156 160.894531 117.394531 161.207031 117.160156 161.609375 C 116.921875 162.011719 116.835938 162.511719 116.960938 163 C 117.085938 163.492188 117.394531 163.882812 117.796875 164.121094 C 118.199219 164.359375 118.695312 164.445312 119.179688 164.320312 L 119.21875 164.3125 L 119.261719 164.3125 C 119.425781 164.3125 119.5625 164.445312 119.5625 164.617188 C 119.5625 164.761719 119.457031 164.886719 119.324219 164.914062 C 118.679688 165.074219 118.035156 164.960938 117.5 164.644531 C 116.96875 164.324219 116.554688 163.800781 116.386719 163.144531 L 116.382812 163.105469 C 116.355469 163 116.34375 162.894531 116.328125 162.789062 C 115.398438 162.980469 114.703125 163.800781 114.703125 164.796875 C 114.703125 165.371094 114.9375 165.902344 115.328125 166.273438 C 115.039062 166.625 114.867188 167.074219 114.867188 167.570312 C 114.867188 167.894531 114.9375 168.207031 115.078125 168.476562 C 115.105469 168.5 115.125 168.519531 115.144531 168.542969 C 115.433594 168.957031 115.867188 169.207031 116.328125 169.285156 C 116.789062 169.367188 117.277344 169.261719 117.6875 168.96875 C 118.09375 168.675781 118.34375 168.238281 118.421875 167.78125 C 118.503906 167.320312 118.398438 166.828125 118.105469 166.417969 L 118.082031 166.378906 C 118.007812 166.226562 118.066406 166.046875 118.210938 165.972656 C 118.34375 165.910156 118.507812 165.949219 118.589844 166.066406 C 118.976562 166.617188 119.109375 167.265625 119.007812 167.882812 C 118.910156 168.5 118.574219 169.074219 118.027344 169.464844 C 117.957031 169.519531 117.882812 169.566406 117.804688 169.609375 C 117.804688 169.632812 117.804688 169.652344 117.804688 169.671875 C 117.804688 170.804688 118.714844 171.71875 119.839844 171.71875 C 120.4375 171.71875 120.980469 171.460938 121.347656 171.042969 L 121.375 171.007812 C 121.40625 171.023438 121.441406 171.042969 121.464844 171.054688 C 121.5 172.160156 121.148438 173.53125 120.398438 175.175781 C 122.164062 174.140625 123.441406 172.453125 124.238281 170.121094 C 124.277344 170.121094 124.320312 170.128906 124.363281 170.128906 C 124.945312 170.128906 125.453125 169.808594 125.726562 169.347656 C 125.667969 168.941406 125.484375 168.585938 125.214844 168.304688 C 124.886719 167.976562 124.429688 167.769531 123.921875 167.769531 C 123.757812 167.769531 123.621094 167.628906 123.621094 167.464844 C 123.621094 167.300781 123.753906 167.160156 123.921875 167.160156 C 124.59375 167.160156 125.199219 167.433594 125.636719 167.875 C 126.023438 168.265625 126.28125 168.78125 126.332031 169.367188 C 126.347656 169.371094 126.359375 169.378906 126.375 169.386719 C 126.414062 169.367188 126.464844 169.351562 126.511719 169.351562 C 127.011719 169.351562 127.464844 169.148438 127.800781 168.816406 Z M 125.242188 161.960938 C 125.140625 161.828125 125.167969 161.636719 125.300781 161.535156 C 125.429688 161.4375 125.621094 161.464844 125.722656 161.597656 C 125.953125 161.902344 126.300781 161.886719 126.53125 161.835938 C 126.464844 161.609375 126.445312 161.371094 126.480469 161.125 C 126.5 160.960938 126.648438 160.847656 126.816406 160.867188 C 126.980469 160.886719 127.089844 161.039062 127.070312 161.207031 C 127.03125 161.511719 127.117188 161.800781 127.289062 162.035156 C 127.460938 162.257812 127.71875 162.417969 128.019531 162.464844 C 128.183594 162.484375 128.296875 162.636719 128.277344 162.800781 C 128.257812 162.96875 128.105469 163.078125 127.941406 163.058594 C 127.472656 162.992188 127.078125 162.75 126.816406 162.398438 C 126.816406 162.390625 126.808594 162.390625 126.808594 162.382812 C 126.4375 162.496094 125.726562 162.601562 125.246094 161.960938 Z M 120.234375 167.539062 C 120.703125 167.605469 121.097656 167.847656 121.359375 168.199219 C 121.359375 168.207031 121.367188 168.207031 121.367188 168.214844 C 121.738281 168.101562 122.449219 167.996094 122.929688 168.636719 C 123.027344 168.769531 123 168.960938 122.871094 169.0625 C 122.738281 169.160156 122.546875 169.132812 122.449219 169 C 122.21875 168.695312 121.867188 168.710938 121.636719 168.761719 C 121.703125 168.988281 121.722656 169.226562 121.691406 169.472656 C 121.671875 169.636719 121.519531 169.75 121.355469 169.730469 C 121.191406 169.710938 121.078125 169.558594 121.097656 169.390625 C 121.136719 169.085938 121.050781 168.796875 120.878906 168.566406 C 120.710938 168.339844 120.453125 168.179688 120.148438 168.132812 C 119.984375 168.113281 119.871094 167.960938 119.890625 167.796875 C 119.910156 167.628906 120.0625 167.519531 120.226562 167.539062 Z M 120.234375 167.539062 " fill-opacity="1" fill-rule="evenodd"/><g clip-path="url(#5e8fc22e69)"><g clip-path="url(#ee88b3b5b4)"><g clip-path="url(#d22e858b54)"><g clip-path="url(#d0c7f589bf)"><path fill="#f4a127" d="M 201.4375 199.085938 L 198.121094 203.082031 L 197.675781 203.691406 L 196.894531 205.964844 L 198.394531 207.792969 L 199.539062 208.65625 L 200.527344 209.40625 C 200.527344 209.40625 200.558594 210.402344 200.636719 210.996094 C 200.660156 211.171875 200.691406 211.316406 200.722656 211.382812 C 200.859375 211.675781 202.1875 212.421875 202.1875 212.421875 L 203.796875 213.121094 L 197.734375 213.152344 L 197.730469 213.152344 L 184.898438 213.214844 L 184.882812 213.214844 L 172.066406 213.277344 L 172.03125 213.277344 L 159.242188 213.339844 L 159.167969 213.339844 L 154.175781 213.363281 L 146.402344 213.605469 L 146.335938 213.605469 L 133.554688 214.003906 L 133.515625 214.007812 L 120.710938 214.40625 L 120.6875 214.40625 L 107.871094 214.804688 L 107.859375 214.804688 L 95.03125 215.207031 L 95.027344 215.207031 L 91.59375 215.3125 L 89.957031 212.914062 L 90.835938 210.878906 C 90.835938 210.878906 91.230469 210.261719 91.535156 209.691406 C 91.769531 209.242188 91.945312 208.820312 91.832031 208.738281 C 91.570312 208.542969 93.609375 207.28125 93.609375 207.28125 L 93.828125 205.929688 L 92.011719 204.109375 C 92.011719 204.109375 91.78125 203.25 91.535156 202.507812 L 94.777344 202.441406 L 107.613281 202.1875 L 111.253906 202.117188 L 116.277344 204.394531 L 113.582031 202.070312 L 120.453125 201.933594 L 133.289062 201.679688 L 146.128906 201.425781 L 158.964844 201.171875 L 164.449219 200.699219 C 165.105469 200.640625 165.761719 200.613281 166.417969 200.609375 C 167.035156 200.605469 167.652344 200.625 168.265625 200.667969 L 171.128906 200.871094 L 171.804688 200.917969 L 184.640625 200.664062 L 189.066406 200.578125 L 193.304688 200.492188 C 196.074219 200.4375 198.816406 199.960938 201.4375 199.085938 Z M 201.4375 199.085938 " fill-opacity="0.8" fill-rule="nonzero"/></g></g></g></g><g clip-path="url(#bbe064ea21)"><g clip-path="url(#bec49a9a74)"><g clip-path="url(#aeebc5f75a)"><g clip-path="url(#64cb980e98)"><path fill="#e04b32" d="M 101.324219 208.734375 C 97.804688 208.800781 95 211.695312 95.03125 215.207031 C 95.027344 215.230469 95.027344 215.253906 95.03125 215.28125 C 95.03125 215.257812 95.027344 215.230469 95.027344 215.207031 C 94.953125 212.792969 93.550781 210.722656 91.535156 209.691406 C 91.769531 209.242188 91.945312 208.820312 91.832031 208.738281 C 91.570312 208.542969 93.609375 207.28125 93.609375 207.28125 L 93.828125 205.929688 C 94.453125 204.914062 94.804688 203.71875 94.777344 202.441406 C 94.847656 205.988281 97.777344 208.804688 101.324219 208.734375 Z M 107.613281 202.1875 C 107.683594 205.734375 104.867188 208.664062 101.324219 208.734375 C 104.867188 208.664062 107.796875 211.480469 107.867188 215.023438 C 107.796875 211.480469 110.613281 208.550781 114.160156 208.480469 C 110.613281 208.550781 107.683594 205.734375 107.613281 202.1875 Z M 120.453125 201.933594 C 120.523438 205.480469 117.707031 208.410156 114.160156 208.480469 C 117.582031 208.410156 120.433594 211.035156 120.6875 214.40625 L 120.710938 214.40625 C 120.832031 211.027344 123.578125 208.292969 126.996094 208.226562 C 123.453125 208.296875 120.523438 205.480469 120.453125 201.933594 Z M 133.289062 201.679688 C 133.359375 205.226562 130.542969 208.15625 126.996094 208.226562 C 130.371094 208.160156 133.191406 210.707031 133.515625 214.007812 L 133.554688 214.003906 C 133.75 210.695312 136.464844 208.039062 139.835938 207.972656 C 136.292969 208.042969 133.359375 205.226562 133.289062 201.679688 Z M 146.128906 201.425781 C 146.199219 204.972656 143.382812 207.902344 139.835938 207.972656 C 143.160156 207.90625 145.945312 210.378906 146.335938 213.605469 L 146.402344 213.605469 C 146.667969 210.363281 149.351562 207.785156 152.671875 207.71875 C 149.128906 207.789062 146.199219 204.972656 146.128906 201.425781 Z M 158.964844 201.171875 C 159.035156 204.71875 156.21875 207.648438 152.675781 207.71875 C 155.992188 207.652344 158.769531 210.117188 159.167969 213.339844 L 159.242188 213.339844 C 159.515625 210.101562 162.195312 207.527344 165.511719 207.464844 C 161.96875 207.535156 159.035156 204.71875 158.964844 201.171875 Z M 171.804688 200.917969 C 171.875 204.464844 169.054688 207.394531 165.511719 207.464844 C 168.894531 207.398438 171.71875 209.960938 172.03125 213.277344 L 172.066406 213.277344 C 172.246094 209.949219 174.964844 207.277344 178.351562 207.210938 C 174.804688 207.28125 171.875 204.464844 171.804688 200.917969 Z M 184.640625 200.664062 C 184.710938 204.210938 181.894531 207.140625 178.351562 207.210938 C 181.796875 207.140625 184.664062 209.804688 184.882812 213.214844 L 184.898438 213.214844 C 184.980469 209.800781 187.738281 207.023438 191.1875 206.957031 C 187.644531 207.027344 184.710938 204.210938 184.640625 200.664062 Z M 192.734375 206.734375 C 192.242188 206.871094 191.722656 206.945312 191.1875 206.957031 C 191.8125 206.945312 192.414062 207.023438 192.988281 207.175781 C 195.023438 207.726562 196.667969 209.25 197.367188 211.226562 C 197.582031 211.832031 197.707031 212.476562 197.730469 213.152344 L 197.734375 213.152344 C 197.730469 212.464844 197.835938 211.804688 198.03125 211.179688 C 198.335938 210.226562 198.855469 209.363281 199.539062 208.65625 L 198.394531 207.792969 L 196.894531 205.964844 L 197.675781 203.691406 L 198.121094 203.082031 C 197.726562 202.273438 197.5 201.367188 197.480469 200.410156 C 197.539062 203.417969 195.515625 205.988281 192.734375 206.734375 Z M 192.734375 206.734375 " fill-opacity="0.749" fill-rule="nonzero"/></g></g></g></g><g clip-path="url(#3bd1202034)"><g clip-path="url(#bee39d7516)"><g clip-path="url(#ec871d624a)"><g clip-path="url(#657f192a34)"><path fill="#934572" d="M 171.128906 200.871094 C 170.433594 201.789062 169.691406 203.089844 169.027344 204.929688 C 168.777344 205.617188 168.503906 206.242188 168.21875 206.804688 C 168.039062 207.160156 167.855469 207.492188 167.667969 207.792969 C 165.828125 210.820312 163.878906 211.351562 165.207031 209.328125 C 165.535156 208.828125 165.78125 208.183594 165.964844 207.472656 C 165.96875 207.460938 165.972656 207.449219 165.976562 207.4375 C 166.710938 204.554688 166.417969 200.609375 166.417969 200.609375 C 167.035156 200.605469 167.652344 200.625 168.265625 200.667969 Z M 171.128906 200.871094 " fill-opacity="0.2392" fill-rule="nonzero"/></g></g></g></g><g clip-path="url(#ebe19d6d34)"><g clip-path="url(#1953224632)"><g clip-path="url(#f26e61e6ef)"><g clip-path="url(#567618c82d)"><path fill="#934572" d="M 201.4375 199.085938 L 198.121094 203.082031 L 197.675781 203.691406 L 196.894531 205.964844 L 198.394531 207.792969 L 199.539062 208.65625 L 200.527344 209.40625 C 200.527344 209.40625 200.558594 210.402344 200.636719 210.996094 L 198.03125 211.179688 C 197.597656 211.210938 197.175781 211.355469 196.808594 211.597656 L 195.101562 212.726562 L 194.449219 210.5625 C 194.097656 209.390625 193.613281 208.265625 193.003906 207.207031 L 192.988281 207.175781 C 192.910156 207.035156 192.820312 206.886719 192.734375 206.734375 C 191.328125 204.296875 189.164062 200.578125 189.066406 200.578125 L 193.304688 200.492188 C 196.074219 200.4375 198.816406 199.960938 201.4375 199.085938 Z M 201.4375 199.085938 " fill-opacity="0.3569" fill-rule="nonzero"/></g></g></g></g><g clip-path="url(#566b03ec7d)"><path fill="#beb4dd" d="M 222.351562 174.777344 C 222.324219 174.816406 222.304688 174.863281 222.285156 174.910156 C 222.234375 175.046875 222.210938 175.199219 222.148438 175.328125 C 222.128906 175.363281 222.109375 175.394531 222.085938 175.425781 C 221.980469 175.554688 221.796875 175.625 221.640625 175.71875 C 221.582031 175.753906 221.53125 175.789062 221.484375 175.835938 C 218.945312 178.34375 214.828125 178.34375 212.289062 175.835938 C 209.75 173.324219 209.75 169.253906 212.289062 166.742188 C 212.953125 166.089844 213.722656 165.605469 214.542969 165.292969 C 214.675781 165.242188 214.8125 165.195312 214.945312 165.152344 C 215.015625 165.132812 215.082031 165.113281 215.148438 165.09375 C 215.199219 165.082031 215.246094 165.0625 215.292969 165.039062 C 215.316406 165.027344 215.339844 165.015625 215.367188 165.003906 C 215.375 164.996094 215.382812 164.992188 215.394531 164.988281 C 215.421875 164.972656 215.449219 164.960938 215.472656 164.945312 C 215.550781 164.910156 215.628906 164.875 215.707031 164.859375 C 215.714844 164.859375 215.722656 164.859375 215.730469 164.859375 C 215.839844 164.84375 215.953125 164.867188 216.066406 164.882812 C 216.128906 164.890625 216.191406 164.898438 216.25 164.890625 L 216.332031 164.882812 C 216.355469 164.882812 216.382812 164.878906 216.410156 164.878906 C 216.414062 164.878906 216.417969 164.878906 216.425781 164.875 C 216.5 164.871094 216.574219 164.867188 216.648438 164.863281 C 217.171875 164.847656 217.695312 164.890625 218.207031 164.992188 C 218.308594 165.015625 218.410156 165.039062 218.511719 165.0625 C 218.5625 165.074219 218.613281 165.089844 218.664062 165.101562 C 218.6875 165.109375 218.714844 165.117188 218.738281 165.125 C 218.804688 165.144531 218.875 165.164062 218.941406 165.1875 C 218.984375 165.203125 219.03125 165.21875 219.074219 165.234375 C 219.101562 165.242188 219.128906 165.253906 219.152344 165.261719 C 219.347656 165.332031 219.535156 165.410156 219.722656 165.5 C 219.761719 165.519531 219.800781 165.539062 219.839844 165.558594 C 219.886719 165.582031 219.9375 165.609375 219.984375 165.632812 C 220.027344 165.660156 220.074219 165.683594 220.121094 165.710938 C 220.609375 165.988281 221.070312 166.332031 221.484375 166.742188 C 223.695312 168.925781 223.980469 172.289062 222.351562 174.777344 Z M 222.351562 174.777344 " fill-opacity="0.8" fill-rule="nonzero"/><path fill="#e04b32" d="M 222.351562 174.777344 C 222.324219 174.816406 222.304688 174.863281 222.285156 174.910156 C 222.234375 175.046875 222.210938 175.199219 222.148438 175.328125 C 222.128906 175.363281 222.109375 175.394531 222.085938 175.425781 C 221.980469 175.554688 221.796875 175.625 221.640625 175.71875 C 221.582031 175.753906 221.53125 175.789062 221.484375 175.835938 C 218.945312 178.34375 214.828125 178.34375 212.289062 175.835938 C 209.75 173.324219 209.75 169.253906 212.289062 166.742188 C 212.953125 166.089844 213.722656 165.605469 214.542969 165.292969 C 214.675781 165.242188 214.8125 165.195312 214.945312 165.152344 C 215.015625 165.132812 215.082031 165.113281 215.148438 165.09375 C 215.199219 165.082031 215.246094 165.0625 215.292969 165.039062 C 215.316406 165.027344 215.339844 165.015625 215.367188 165.003906 C 215.375 164.996094 215.382812 164.992188 215.394531 164.988281 C 215.421875 164.972656 215.449219 164.960938 215.472656 164.945312 C 215.550781 164.910156 215.628906 164.875 215.707031 164.859375 C 215.714844 164.859375 215.722656 164.859375 215.730469 164.859375 C 215.839844 164.84375 215.953125 164.867188 216.066406 164.882812 C 216.128906 164.890625 216.191406 164.898438 216.25 164.890625 L 216.332031 164.882812 C 216.355469 164.882812 216.382812 164.878906 216.410156 164.878906 C 216.414062 164.878906 216.417969 164.878906 216.425781 164.875 C 216.5 164.871094 216.574219 164.867188 216.648438 164.863281 C 217.171875 164.847656 217.695312 164.890625 218.207031 164.992188 C 218.308594 165.015625 218.410156 165.039062 218.511719 165.0625 C 218.5625 165.074219 218.613281 165.089844 218.664062 165.101562 C 218.6875 165.109375 218.714844 165.117188 218.738281 165.125 C 218.804688 165.144531 218.875 165.164062 218.941406 165.1875 C 218.984375 165.203125 219.03125 165.21875 219.074219 165.234375 C 219.101562 165.242188 219.128906 165.253906 219.152344 165.261719 C 219.347656 165.332031 219.535156 165.410156 219.722656 165.5 C 219.761719 165.519531 219.800781 165.539062 219.839844 165.558594 C 219.886719 165.582031 219.9375 165.609375 219.984375 165.632812 C 220.027344 165.660156 220.074219 165.683594 220.121094 165.710938 C 220.609375 165.988281 221.070312 166.332031 221.484375 166.742188 C 223.695312 168.925781 223.980469 172.289062 222.351562 174.777344 Z M 222.351562 174.777344 " fill-opacity="0.8" fill-rule="nonzero"/></g><path fill="#ebd70b" d="M 221.582031 174.28125 C 221.488281 174.425781 221.449219 174.578125 221.339844 174.714844 C 221.226562 174.855469 221.050781 174.976562 220.925781 175.105469 C 220.894531 175.136719 220.867188 175.164062 220.835938 175.195312 C 218.65625 177.351562 215.121094 177.351562 212.9375 175.195312 C 210.757812 173.035156 210.757812 169.539062 212.9375 167.382812 C 213.617188 166.714844 214.425781 166.253906 215.285156 166 C 215.441406 165.953125 215.648438 165.800781 215.808594 165.765625 C 215.957031 165.738281 216.054688 165.828125 216.203125 165.808594 C 217.851562 165.609375 219.574219 166.132812 220.835938 167.382812 C 222.734375 169.257812 222.980469 172.144531 221.582031 174.28125 Z M 221.582031 174.28125 " fill-opacity="0.8" fill-rule="nonzero"/><path fill="#1500a2" d="M 216.886719 176.984375 C 215.347656 176.984375 213.902344 176.394531 212.8125 175.316406 C 211.726562 174.242188 211.125 172.808594 211.125 171.289062 C 211.125 169.765625 211.726562 168.335938 212.8125 167.261719 C 213.488281 166.59375 214.324219 166.097656 215.234375 165.832031 C 215.289062 165.816406 215.363281 165.773438 215.4375 165.734375 C 215.546875 165.679688 215.660156 165.617188 215.773438 165.59375 C 215.890625 165.570312 215.984375 165.597656 216.058594 165.617188 C 216.113281 165.628906 216.148438 165.640625 216.183594 165.632812 C 217.957031 165.417969 219.699219 166.011719 220.960938 167.261719 C 221.898438 168.1875 222.488281 169.414062 222.621094 170.714844 C 222.75 172 222.433594 173.300781 221.730469 174.378906 C 221.695312 174.429688 221.667969 174.488281 221.640625 174.546875 C 221.597656 174.636719 221.550781 174.730469 221.476562 174.824219 C 221.402344 174.917969 221.308594 175 221.214844 175.078125 C 221.15625 175.128906 221.097656 175.179688 221.050781 175.226562 C 221.023438 175.257812 220.992188 175.289062 220.960938 175.316406 C 219.875 176.394531 218.429688 176.984375 216.886719 176.984375 Z M 215.871094 165.9375 C 215.859375 165.9375 215.851562 165.9375 215.84375 165.9375 C 215.78125 165.949219 215.6875 166 215.605469 166.042969 C 215.515625 166.089844 215.421875 166.140625 215.335938 166.164062 C 214.480469 166.417969 213.695312 166.882812 213.0625 167.507812 C 212.042969 168.515625 211.480469 169.859375 211.480469 171.289062 C 211.480469 172.714844 212.042969 174.058594 213.0625 175.070312 C 214.085938 176.078125 215.445312 176.636719 216.886719 176.636719 C 218.332031 176.636719 219.691406 176.078125 220.710938 175.070312 C 220.742188 175.039062 220.769531 175.011719 220.796875 174.984375 C 220.851562 174.925781 220.917969 174.867188 220.980469 174.8125 C 221.0625 174.746094 221.144531 174.675781 221.199219 174.605469 C 221.25 174.542969 221.28125 174.476562 221.320312 174.394531 C 221.351562 174.328125 221.386719 174.257812 221.433594 174.1875 C 222.804688 172.085938 222.503906 169.277344 220.710938 167.507812 C 219.527344 166.335938 217.890625 165.777344 216.226562 165.980469 C 216.121094 165.992188 216.035156 165.972656 215.96875 165.953125 C 215.925781 165.941406 215.894531 165.9375 215.871094 165.9375 Z M 215.871094 165.9375 " fill-opacity="0.8" fill-rule="nonzero"/><g clip-path="url(#7921a70e74)"><path fill="#1500a2" d="M 218.894531 174.007812 C 218.285156 173.863281 217.078125 172.957031 217.078125 172.957031 C 217.394531 173.121094 218.445312 173.441406 219.277344 173.796875 C 220.113281 174.152344 221.640625 175.71875 221.640625 175.71875 C 221.640625 175.71875 219.503906 174.152344 218.894531 174.007812 Z M 219.625 172.089844 C 218.867188 171.140625 217.71875 170.113281 217.71875 170.113281 C 217.71875 170.113281 217.773438 170.226562 217.867188 170.40625 C 218.011719 170.691406 218.261719 171.140625 218.578125 171.59375 C 218.671875 171.722656 218.765625 171.855469 218.867188 171.980469 C 219.121094 172.292969 219.65625 172.773438 220.226562 173.257812 C 220.226562 173.257812 220.226562 173.261719 220.230469 173.261719 C 221.179688 174.0625 222.234375 174.867188 222.285156 174.90625 C 222.21875 174.839844 220.367188 173.023438 219.625 172.089844 Z M 216.574219 167.464844 C 216.445312 167.238281 216.289062 166.992188 216.105469 166.769531 C 215.902344 166.519531 215.761719 166.199219 215.664062 165.898438 C 215.65625 165.875 215.648438 165.851562 215.644531 165.828125 C 215.503906 165.355469 215.472656 164.945312 215.472656 164.945312 C 215.449219 164.960938 215.421875 164.972656 215.394531 164.988281 C 215.382812 164.992188 215.375 164.996094 215.367188 165.003906 C 215.339844 165.015625 215.316406 165.027344 215.292969 165.039062 C 215.246094 165.0625 215.199219 165.082031 215.148438 165.09375 C 215.082031 165.113281 215.015625 165.132812 214.945312 165.152344 C 214.8125 165.195312 214.675781 165.242188 214.542969 165.292969 C 214.726562 165.453125 214.933594 165.613281 214.984375 165.761719 C 215.003906 165.8125 215.046875 165.929688 215.097656 166.058594 C 215.175781 166.257812 215.265625 166.484375 215.273438 166.535156 C 215.355469 166.984375 216.964844 168.316406 216.964844 168.316406 C 216.964844 168.316406 216.828125 167.925781 216.574219 167.464844 Z M 216.410156 164.878906 C 216.382812 164.878906 216.355469 164.882812 216.332031 164.882812 C 216.324219 164.882812 216.320312 164.886719 216.3125 164.886719 C 216.230469 164.890625 216.148438 164.882812 216.0625 164.875 L 216.066406 164.882812 L 216.203125 165.808594 L 216.28125 166.3125 L 216.332031 165.792969 L 216.425781 164.875 C 216.417969 164.878906 216.414062 164.878906 216.410156 164.878906 Z M 216.410156 164.878906 " fill-opacity="0.2" fill-rule="nonzero"/></g><g clip-path="url(#b683e08f66)"><path fill="#fff6b3" d="M 216.574219 167.464844 C 216.445312 167.238281 216.289062 166.992188 216.105469 166.769531 C 215.902344 166.519531 215.761719 166.199219 215.664062 165.898438 C 215.507812 165.398438 215.472656 164.945312 215.472656 164.945312 C 215.550781 164.910156 215.628906 164.875 215.707031 164.859375 C 215.714844 164.859375 215.722656 164.859375 215.730469 164.859375 C 215.800781 164.847656 215.902344 165.355469 215.964844 165.707031 C 216.007812 165.945312 216.074219 166.175781 216.160156 166.398438 Z M 222.285156 174.90625 C 222.257812 174.886719 221.960938 174.660156 221.550781 174.332031 C 221.167969 174.03125 220.683594 173.644531 220.230469 173.261719 C 220.226562 173.261719 220.226562 173.257812 220.226562 173.257812 C 219.65625 172.773438 219.121094 172.292969 218.867188 171.980469 C 218.765625 171.855469 218.671875 171.722656 218.578125 171.59375 C 218.609375 171.644531 219.585938 173.320312 220.773438 174.179688 C 220.980469 174.328125 221.171875 174.476562 221.347656 174.617188 C 221.675781 174.882812 221.941406 175.128906 222.148438 175.328125 C 222.210938 175.199219 222.234375 175.046875 222.285156 174.910156 Z M 222.285156 174.90625 " fill-opacity="0.4784" fill-rule="nonzero"/></g><g clip-path="url(#9c6c8e8780)"><path fill="#beb4dd" d="M 272.308594 174.777344 C 272.28125 174.816406 272.261719 174.863281 272.242188 174.910156 C 272.191406 175.046875 272.167969 175.199219 272.105469 175.328125 C 272.085938 175.363281 272.066406 175.394531 272.042969 175.425781 C 271.9375 175.554688 271.75 175.625 271.59375 175.71875 C 271.539062 175.753906 271.484375 175.789062 271.441406 175.835938 C 268.902344 178.34375 264.785156 178.34375 262.246094 175.835938 C 259.707031 173.324219 259.707031 169.253906 262.246094 166.742188 C 262.910156 166.089844 263.679688 165.605469 264.5 165.292969 C 264.632812 165.242188 264.765625 165.195312 264.902344 165.152344 C 264.96875 165.132812 265.039062 165.113281 265.105469 165.09375 C 265.152344 165.082031 265.199219 165.0625 265.246094 165.039062 C 265.273438 165.027344 265.296875 165.015625 265.320312 165.003906 C 265.332031 164.996094 265.339844 164.992188 265.351562 164.988281 C 265.375 164.972656 265.402344 164.960938 265.429688 164.945312 C 265.507812 164.910156 265.582031 164.875 265.664062 164.859375 C 265.671875 164.859375 265.679688 164.859375 265.6875 164.859375 C 265.792969 164.84375 265.910156 164.867188 266.019531 164.882812 C 266.085938 164.890625 266.148438 164.898438 266.207031 164.890625 L 266.285156 164.882812 C 266.3125 164.882812 266.339844 164.878906 266.367188 164.878906 C 266.371094 164.878906 266.375 164.878906 266.382812 164.875 C 266.457031 164.871094 266.53125 164.867188 266.605469 164.863281 C 267.125 164.847656 267.648438 164.890625 268.164062 164.992188 C 268.265625 165.015625 268.367188 165.039062 268.46875 165.0625 C 268.519531 165.074219 268.570312 165.089844 268.621094 165.101562 C 268.644531 165.109375 268.671875 165.117188 268.695312 165.125 C 268.761719 165.144531 268.828125 165.164062 268.894531 165.1875 C 268.941406 165.203125 268.984375 165.21875 269.03125 165.234375 C 269.058594 165.242188 269.082031 165.253906 269.109375 165.261719 C 269.300781 165.332031 269.492188 165.410156 269.675781 165.5 C 269.71875 165.519531 269.757812 165.539062 269.796875 165.558594 C 269.84375 165.582031 269.890625 165.609375 269.9375 165.632812 C 269.984375 165.660156 270.03125 165.683594 270.078125 165.710938 C 270.566406 165.988281 271.023438 166.332031 271.441406 166.742188 C 273.648438 168.925781 273.9375 172.289062 272.308594 174.777344 Z M 272.308594 174.777344 " fill-opacity="0.8" fill-rule="nonzero"/><path fill="#e04b32" d="M 272.308594 174.777344 C 272.28125 174.816406 272.261719 174.863281 272.242188 174.910156 C 272.191406 175.046875 272.167969 175.199219 272.105469 175.328125 C 272.085938 175.363281 272.066406 175.394531 272.042969 175.425781 C 271.9375 175.554688 271.75 175.625 271.59375 175.71875 C 271.539062 175.753906 271.484375 175.789062 271.441406 175.835938 C 268.902344 178.34375 264.785156 178.34375 262.246094 175.835938 C 259.707031 173.324219 259.707031 169.253906 262.246094 166.742188 C 262.910156 166.089844 263.679688 165.605469 264.5 165.292969 C 264.632812 165.242188 264.765625 165.195312 264.902344 165.152344 C 264.96875 165.132812 265.039062 165.113281 265.105469 165.09375 C 265.152344 165.082031 265.199219 165.0625 265.246094 165.039062 C 265.273438 165.027344 265.296875 165.015625 265.320312 165.003906 C 265.332031 164.996094 265.339844 164.992188 265.351562 164.988281 C 265.375 164.972656 265.402344 164.960938 265.429688 164.945312 C 265.507812 164.910156 265.582031 164.875 265.664062 164.859375 C 265.671875 164.859375 265.679688 164.859375 265.6875 164.859375 C 265.792969 164.84375 265.910156 164.867188 266.019531 164.882812 C 266.085938 164.890625 266.148438 164.898438 266.207031 164.890625 L 266.285156 164.882812 C 266.3125 164.882812 266.339844 164.878906 266.367188 164.878906 C 266.371094 164.878906 266.375 164.878906 266.382812 164.875 C 266.457031 164.871094 266.53125 164.867188 266.605469 164.863281 C 267.125 164.847656 267.648438 164.890625 268.164062 164.992188 C 268.265625 165.015625 268.367188 165.039062 268.46875 165.0625 C 268.519531 165.074219 268.570312 165.089844 268.621094 165.101562 C 268.644531 165.109375 268.671875 165.117188 268.695312 165.125 C 268.761719 165.144531 268.828125 165.164062 268.894531 165.1875 C 268.941406 165.203125 268.984375 165.21875 269.03125 165.234375 C 269.058594 165.242188 269.082031 165.253906 269.109375 165.261719 C 269.300781 165.332031 269.492188 165.410156 269.675781 165.5 C 269.71875 165.519531 269.757812 165.539062 269.796875 165.558594 C 269.84375 165.582031 269.890625 165.609375 269.9375 165.632812 C 269.984375 165.660156 270.03125 165.683594 270.078125 165.710938 C 270.566406 165.988281 271.023438 166.332031 271.441406 166.742188 C 273.648438 168.925781 273.9375 172.289062 272.308594 174.777344 Z M 272.308594 174.777344 " fill-opacity="0.8" fill-rule="nonzero"/></g><path fill="#ebd70b" d="M 271.539062 174.28125 C 271.445312 174.425781 271.402344 174.578125 271.292969 174.714844 C 271.183594 174.855469 271.003906 174.976562 270.878906 175.105469 C 270.851562 175.136719 270.824219 175.164062 270.792969 175.195312 C 268.613281 177.351562 265.074219 177.351562 262.894531 175.195312 C 260.714844 173.035156 260.714844 169.539062 262.894531 167.382812 C 263.574219 166.714844 264.382812 166.253906 265.238281 166 C 265.398438 165.953125 265.605469 165.800781 265.765625 165.765625 C 265.910156 165.738281 266.011719 165.828125 266.160156 165.808594 C 267.808594 165.609375 269.527344 166.132812 270.792969 167.382812 C 272.691406 169.257812 272.9375 172.144531 271.539062 174.28125 Z M 271.539062 174.28125 " fill-opacity="0.8" fill-rule="nonzero"/><path fill="#1500a2" d="M 266.84375 176.984375 C 265.304688 176.984375 263.859375 176.394531 262.769531 175.316406 C 261.679688 174.242188 261.082031 172.808594 261.082031 171.289062 C 261.082031 169.765625 261.679688 168.335938 262.769531 167.261719 C 263.445312 166.59375 264.28125 166.097656 265.1875 165.832031 C 265.242188 165.816406 265.320312 165.773438 265.394531 165.734375 C 265.503906 165.679688 265.617188 165.617188 265.726562 165.59375 C 265.847656 165.570312 265.941406 165.597656 266.015625 165.617188 C 266.070312 165.628906 266.101562 165.640625 266.136719 165.632812 C 267.914062 165.417969 269.65625 166.011719 270.917969 167.261719 C 271.855469 168.1875 272.445312 169.414062 272.578125 170.714844 C 272.707031 172 272.390625 173.300781 271.6875 174.378906 C 271.652344 174.429688 271.625 174.488281 271.597656 174.546875 C 271.554688 174.636719 271.507812 174.730469 271.433594 174.824219 C 271.359375 174.917969 271.261719 175 271.171875 175.078125 C 271.109375 175.128906 271.054688 175.179688 271.007812 175.226562 C 270.976562 175.257812 270.949219 175.289062 270.917969 175.316406 C 269.832031 176.394531 268.382812 176.984375 266.84375 176.984375 Z M 265.824219 165.9375 C 265.816406 165.9375 265.808594 165.9375 265.800781 165.9375 C 265.738281 165.949219 265.644531 166 265.558594 166.042969 C 265.472656 166.089844 265.378906 166.140625 265.289062 166.164062 C 264.4375 166.417969 263.652344 166.882812 263.019531 167.507812 C 262 168.515625 261.4375 169.859375 261.4375 171.289062 C 261.4375 172.714844 262 174.058594 263.019531 175.070312 C 264.042969 176.078125 265.398438 176.636719 266.84375 176.636719 C 268.289062 176.636719 269.648438 176.078125 270.667969 175.070312 C 270.695312 175.039062 270.722656 175.011719 270.75 174.984375 C 270.808594 174.925781 270.875 174.867188 270.9375 174.8125 C 271.019531 174.746094 271.101562 174.675781 271.15625 174.605469 C 271.203125 174.542969 271.238281 174.476562 271.277344 174.394531 C 271.308594 174.328125 271.34375 174.257812 271.390625 174.1875 C 272.761719 172.085938 272.457031 169.277344 270.667969 167.507812 C 269.480469 166.335938 267.847656 165.777344 266.179688 165.980469 C 266.074219 165.992188 265.992188 165.972656 265.921875 165.953125 C 265.882812 165.941406 265.851562 165.9375 265.824219 165.9375 Z M 265.824219 165.9375 " fill-opacity="0.8" fill-rule="nonzero"/><g clip-path="url(#6fb136d329)"><path fill="#1500a2" d="M 268.851562 174.007812 C 268.242188 173.863281 267.035156 172.957031 267.035156 172.957031 C 267.351562 173.121094 268.398438 173.441406 269.234375 173.796875 C 270.070312 174.152344 271.59375 175.71875 271.59375 175.71875 C 271.59375 175.71875 269.460938 174.152344 268.851562 174.007812 Z M 269.582031 172.089844 C 268.824219 171.140625 267.675781 170.113281 267.675781 170.113281 C 267.675781 170.113281 267.726562 170.226562 267.820312 170.40625 C 267.96875 170.691406 268.21875 171.140625 268.535156 171.59375 C 268.625 171.722656 268.722656 171.855469 268.824219 171.980469 C 269.074219 172.292969 269.609375 172.773438 270.183594 173.257812 C 270.183594 173.257812 270.183594 173.261719 270.183594 173.261719 C 271.132812 174.0625 272.1875 174.867188 272.242188 174.90625 C 272.175781 174.839844 270.324219 173.023438 269.582031 172.089844 Z M 266.53125 167.464844 C 266.402344 167.238281 266.246094 166.992188 266.0625 166.769531 C 265.855469 166.519531 265.714844 166.199219 265.621094 165.898438 C 265.613281 165.875 265.605469 165.851562 265.597656 165.828125 C 265.460938 165.355469 265.429688 164.945312 265.429688 164.945312 C 265.402344 164.960938 265.375 164.972656 265.351562 164.988281 C 265.339844 164.992188 265.332031 164.996094 265.320312 165.003906 C 265.296875 165.015625 265.273438 165.027344 265.246094 165.039062 C 265.199219 165.0625 265.152344 165.082031 265.105469 165.09375 C 265.039062 165.113281 264.96875 165.132812 264.902344 165.152344 C 264.765625 165.195312 264.632812 165.242188 264.5 165.292969 C 264.683594 165.453125 264.890625 165.613281 264.941406 165.761719 C 264.960938 165.8125 265.003906 165.929688 265.054688 166.058594 C 265.132812 166.257812 265.222656 166.484375 265.230469 166.535156 C 265.3125 166.984375 266.921875 168.316406 266.921875 168.316406 C 266.921875 168.316406 266.785156 167.925781 266.53125 167.464844 Z M 266.367188 164.878906 C 266.339844 164.878906 266.3125 164.882812 266.285156 164.882812 C 266.28125 164.882812 266.273438 164.886719 266.269531 164.886719 C 266.1875 164.890625 266.101562 164.882812 266.019531 164.875 L 266.019531 164.882812 L 266.160156 165.808594 L 266.238281 166.3125 L 266.289062 165.792969 L 266.382812 164.875 C 266.375 164.878906 266.371094 164.878906 266.367188 164.878906 Z M 266.367188 164.878906 " fill-opacity="0.2" fill-rule="nonzero"/></g><g clip-path="url(#003304d0d3)"><path fill="#fff6b3" d="M 266.53125 167.464844 C 266.402344 167.238281 266.246094 166.992188 266.0625 166.769531 C 265.855469 166.519531 265.714844 166.199219 265.621094 165.898438 C 265.460938 165.398438 265.429688 164.945312 265.429688 164.945312 C 265.507812 164.910156 265.582031 164.875 265.664062 164.859375 C 265.671875 164.859375 265.679688 164.859375 265.6875 164.859375 C 265.753906 164.847656 265.859375 165.355469 265.921875 165.707031 C 265.964844 165.945312 266.03125 166.175781 266.117188 166.398438 Z M 272.242188 174.90625 C 272.214844 174.886719 271.917969 174.660156 271.503906 174.332031 C 271.121094 174.03125 270.640625 173.644531 270.183594 173.261719 C 270.183594 173.261719 270.183594 173.257812 270.183594 173.257812 C 269.609375 172.773438 269.074219 172.292969 268.824219 171.980469 C 268.722656 171.855469 268.625 171.722656 268.535156 171.59375 C 268.566406 171.644531 269.542969 173.320312 270.730469 174.179688 C 270.9375 174.328125 271.128906 174.476562 271.300781 174.617188 C 271.632812 174.882812 271.898438 175.128906 272.105469 175.328125 C 272.167969 175.199219 272.191406 175.046875 272.242188 174.910156 Z M 272.242188 174.90625 " fill-opacity="0.4784" fill-rule="nonzero"/></g><g clip-path="url(#147faa83e4)"><path fill="#f4a127" d="M 67.15625 154.582031 L 61.101562 154.582031 C 54.613281 154.582031 49.335938 159.910156 49.335938 166.460938 L 49.335938 177.023438 C 49.335938 177.472656 49.25 177.90625 49.082031 178.324219 C 48.910156 178.738281 48.667969 179.105469 48.351562 179.425781 C 48.035156 179.746094 47.671875 179.992188 47.257812 180.164062 C 46.847656 180.335938 46.417969 180.421875 45.972656 180.421875 L 43.175781 180.421875 L 43.175781 190.148438 L 43.363281 190.148438 L 47.886719 194.714844 L 49.335938 194.714844 L 49.335938 204.109375 C 49.339844 205.71875 49.652344 207.265625 50.273438 208.746094 C 50.898438 210.226562 51.789062 211.527344 52.9375 212.640625 C 52.929688 212.648438 57.453125 217.214844 57.453125 217.214844 C 58.546875 218.289062 59.800781 219.113281 61.214844 219.691406 C 62.628906 220.269531 64.097656 220.558594 65.621094 220.554688 L 71.679688 220.554688 L 71.679688 211.582031 L 67.15625 207.011719 L 62.746094 207.011719 L 62.746094 198.113281 C 62.746094 196.585938 62.476562 195.109375 61.933594 193.6875 C 61.390625 192.261719 60.613281 190.984375 59.601562 189.851562 C 60.613281 188.71875 61.390625 187.441406 61.933594 186.015625 C 62.476562 184.589844 62.746094 183.117188 62.746094 181.589844 L 62.746094 171.027344 C 62.746094 170.640625 62.820312 170.273438 62.964844 169.917969 C 63.113281 169.558594 63.320312 169.246094 63.589844 168.972656 C 63.859375 168.703125 64.167969 168.492188 64.523438 168.34375 C 64.875 168.195312 65.242188 168.121094 65.621094 168.121094 L 71.679688 168.121094 L 71.679688 159.148438 Z M 71.027344 167.003906 L 67.15625 163.09375 L 67.15625 155.507812 L 71.027344 159.417969 Z M 71.027344 219.4375 L 67.15625 215.527344 L 67.15625 207.941406 L 71.027344 211.851562 Z M 57.90625 216.75 L 55.953125 214.773438 C 57.574219 215.582031 59.292969 215.988281 61.101562 215.988281 L 66.699219 215.988281 L 70.570312 219.902344 L 65.621094 219.902344 C 64.183594 219.90625 62.792969 219.632812 61.460938 219.085938 C 60.125 218.542969 58.941406 217.761719 57.90625 216.75 Z M 66.507812 207.667969 L 66.507812 215.335938 L 61.101562 215.335938 C 54.972656 215.335938 49.988281 210.296875 49.988281 204.109375 L 49.988281 193.546875 C 49.988281 193.28125 49.960938 193.015625 49.910156 192.757812 C 49.859375 192.496094 49.78125 192.242188 49.679688 191.996094 C 49.578125 191.75 49.457031 191.515625 49.308594 191.296875 C 49.164062 191.074219 48.996094 190.871094 48.808594 190.683594 C 48.625 190.496094 48.421875 190.328125 48.203125 190.179688 C 47.984375 190.03125 47.75 189.90625 47.507812 189.804688 C 47.265625 189.703125 47.015625 189.625 46.757812 189.574219 C 46.496094 189.519531 46.238281 189.496094 45.972656 189.496094 L 43.824219 189.496094 L 43.824219 181.078125 L 45.972656 181.078125 C 46.238281 181.078125 46.496094 181.050781 46.757812 181 C 47.015625 180.945312 47.265625 180.871094 47.507812 180.769531 C 47.753906 180.664062 47.984375 180.542969 48.203125 180.394531 C 48.421875 180.246094 48.625 180.078125 48.808594 179.890625 C 48.996094 179.699219 49.164062 179.496094 49.308594 179.273438 C 49.457031 179.054688 49.578125 178.820312 49.679688 178.574219 C 49.78125 178.328125 49.859375 178.074219 49.910156 177.816406 C 49.960938 177.554688 49.988281 177.289062 49.988281 177.023438 L 49.988281 166.460938 C 49.988281 160.273438 54.972656 155.234375 61.101562 155.234375 L 66.507812 155.234375 L 66.507812 162.902344 L 61.101562 162.902344 C 60.632812 162.902344 60.183594 162.992188 59.753906 163.175781 C 59.320312 163.355469 58.941406 163.613281 58.609375 163.945312 C 58.28125 164.28125 58.027344 164.664062 57.847656 165.101562 C 57.667969 165.535156 57.578125 165.992188 57.578125 166.460938 L 57.578125 177.023438 C 57.578125 178.519531 57.304688 179.960938 56.757812 181.351562 C 56.207031 182.742188 55.421875 183.976562 54.402344 185.0625 L 54.195312 185.285156 L 54.402344 185.511719 C 55.421875 186.597656 56.207031 187.832031 56.757812 189.222656 C 57.304688 190.609375 57.578125 192.050781 57.578125 193.546875 L 57.578125 204.109375 C 57.578125 204.582031 57.667969 205.035156 57.847656 205.472656 C 58.027344 205.90625 58.28125 206.292969 58.609375 206.625 C 58.941406 206.960938 59.320312 207.214844 59.753906 207.398438 C 60.183594 207.578125 60.632812 207.667969 61.101562 207.671875 L 66.507812 207.671875 Z M 44.28125 190.148438 L 45.972656 190.148438 C 46.417969 190.148438 46.847656 190.234375 47.257812 190.410156 C 47.671875 190.582031 48.035156 190.828125 48.351562 191.144531 C 48.667969 191.464844 48.910156 191.832031 49.082031 192.246094 C 49.25 192.664062 49.335938 193.097656 49.335938 193.546875 L 49.335938 194.0625 L 48.15625 194.0625 L 45.222656 191.097656 Z M 62.097656 207.015625 L 61.101562 207.015625 C 60.71875 207.015625 60.351562 206.941406 60 206.792969 C 59.648438 206.644531 59.339844 206.433594 59.070312 206.164062 C 58.800781 205.890625 58.589844 205.574219 58.445312 205.21875 C 58.300781 204.863281 58.226562 204.492188 58.226562 204.109375 L 58.226562 193.546875 C 58.226562 191.636719 57.808594 189.824219 56.972656 188.109375 L 58.929688 190.082031 C 59.945312 191.167969 60.730469 192.402344 61.277344 193.789062 C 61.824219 195.179688 62.097656 196.621094 62.097656 198.113281 Z M 62.097656 181.589844 C 62.097656 183.027344 61.84375 184.417969 61.332031 185.757812 C 60.824219 187.097656 60.09375 188.304688 59.140625 189.371094 L 55.085938 185.277344 C 56.097656 184.144531 56.875 182.867188 57.414062 181.445312 C 57.957031 180.023438 58.226562 178.546875 58.226562 177.023438 L 58.226562 166.460938 C 58.226562 166.089844 58.296875 165.730469 58.433594 165.382812 C 58.574219 165.035156 58.769531 164.726562 59.027344 164.457031 C 59.285156 164.1875 59.582031 163.976562 59.917969 163.824219 C 60.253906 163.667969 60.609375 163.585938 60.980469 163.570312 L 64.910156 167.542969 C 64.515625 167.625 64.144531 167.773438 63.796875 167.984375 C 63.449219 168.199219 63.148438 168.464844 62.890625 168.78125 C 62.636719 169.097656 62.4375 169.449219 62.304688 169.835938 C 62.167969 170.222656 62.097656 170.621094 62.097656 171.03125 Z M 61.882812 163.554688 L 66.699219 163.554688 L 70.570312 167.46875 L 65.773438 167.46875 C 65.757812 167.46875 61.882812 163.554688 61.882812 163.554688 Z M 55.921875 204.109375 L 55.921875 193.546875 C 55.917969 192.078125 55.613281 190.679688 55.003906 189.347656 C 54.394531 188.015625 53.535156 186.875 52.429688 185.921875 L 51.695312 185.285156 L 52.429688 184.648438 C 53.535156 183.699219 54.394531 182.554688 55.003906 181.222656 C 55.613281 179.890625 55.917969 178.492188 55.921875 177.023438 L 55.921875 166.460938 C 55.921875 166.117188 55.953125 165.777344 56.019531 165.441406 C 56.085938 165.105469 56.183594 164.777344 56.316406 164.460938 C 56.445312 164.140625 56.605469 163.839844 56.792969 163.554688 C 56.984375 163.269531 57.199219 163.003906 57.4375 162.761719 C 57.679688 162.519531 57.941406 162.300781 58.222656 162.113281 C 58.507812 161.921875 58.804688 161.757812 59.117188 161.628906 C 59.433594 161.496094 59.757812 161.394531 60.089844 161.328125 C 60.425781 161.261719 60.761719 161.226562 61.101562 161.226562 L 64.851562 161.226562 L 64.851562 156.910156 L 61.101562 156.910156 C 60.480469 156.910156 59.867188 156.972656 59.257812 157.09375 C 58.648438 157.21875 58.054688 157.398438 57.484375 157.640625 C 56.910156 157.878906 56.363281 158.171875 55.847656 158.523438 C 55.332031 158.871094 54.855469 159.265625 54.414062 159.710938 C 53.976562 160.152344 53.585938 160.636719 53.238281 161.15625 C 52.894531 161.679688 52.601562 162.230469 52.367188 162.808594 C 52.128906 163.386719 51.949219 163.984375 51.824219 164.597656 C 51.703125 165.214844 51.644531 165.835938 51.644531 166.460938 L 51.644531 177.023438 C 51.640625 177.398438 51.605469 177.773438 51.53125 178.140625 C 51.460938 178.507812 51.351562 178.867188 51.210938 179.214844 C 51.066406 179.5625 50.890625 179.890625 50.683594 180.203125 C 50.476562 180.515625 50.242188 180.804688 49.980469 181.070312 C 49.71875 181.335938 49.429688 181.574219 49.121094 181.785156 C 48.8125 181.992188 48.484375 182.167969 48.140625 182.3125 C 47.796875 182.457031 47.441406 182.566406 47.078125 182.640625 C 46.714844 182.714844 46.34375 182.75 45.972656 182.75 L 45.480469 182.75 L 45.480469 187.820312 L 45.972656 187.820312 C 46.34375 187.820312 46.714844 187.855469 47.078125 187.929688 C 47.441406 188.003906 47.796875 188.113281 48.140625 188.257812 C 48.484375 188.402344 48.8125 188.578125 49.121094 188.785156 C 49.429688 188.996094 49.714844 189.234375 49.980469 189.5 C 50.242188 189.765625 50.476562 190.054688 50.683594 190.367188 C 50.890625 190.679688 51.066406 191.007812 51.210938 191.355469 C 51.351562 191.703125 51.460938 192.0625 51.53125 192.429688 C 51.605469 192.796875 51.640625 193.171875 51.644531 193.546875 L 51.644531 204.109375 C 51.644531 204.734375 51.703125 205.355469 51.828125 205.96875 C 51.949219 206.585938 52.128906 207.183594 52.367188 207.761719 C 52.601562 208.339844 52.894531 208.890625 53.238281 209.414062 C 53.585938 209.933594 53.976562 210.414062 54.417969 210.859375 C 54.855469 211.300781 55.332031 211.699219 55.847656 212.046875 C 56.363281 212.394531 56.910156 212.691406 57.484375 212.929688 C 58.054688 213.171875 58.648438 213.351562 59.257812 213.476562 C 59.867188 213.597656 60.480469 213.660156 61.101562 213.660156 L 64.851562 213.660156 L 64.851562 209.34375 L 61.101562 209.34375 C 60.761719 209.34375 60.425781 209.308594 60.089844 209.242188 C 59.757812 209.171875 59.433594 209.074219 59.117188 208.941406 C 58.804688 208.8125 58.507812 208.648438 58.222656 208.457031 C 57.941406 208.269531 57.679688 208.050781 57.4375 207.808594 C 57.199219 207.566406 56.984375 207.300781 56.792969 207.015625 C 56.605469 206.730469 56.445312 206.429688 56.316406 206.109375 C 56.183594 205.792969 56.085938 205.464844 56.019531 205.128906 C 55.953125 204.792969 55.921875 204.453125 55.917969 204.109375 Z M 61.101562 209.996094 L 64.203125 209.996094 L 64.203125 213.007812 L 61.101562 213.007812 C 60.523438 213.007812 59.949219 212.949219 59.382812 212.832031 C 58.816406 212.71875 58.265625 212.546875 57.734375 212.324219 C 57.199219 212.097656 56.691406 211.824219 56.210938 211.5 C 55.730469 211.175781 55.289062 210.804688 54.878906 210.394531 C 54.46875 209.980469 54.105469 209.53125 53.785156 209.046875 C 53.460938 208.5625 53.191406 208.050781 52.96875 207.511719 C 52.746094 206.972656 52.578125 206.414062 52.464844 205.84375 C 52.351562 205.269531 52.292969 204.691406 52.292969 204.109375 L 52.292969 193.546875 C 52.289062 193.136719 52.25 192.726562 52.171875 192.324219 C 52.09375 191.917969 51.976562 191.523438 51.824219 191.144531 C 51.667969 190.761719 51.480469 190.398438 51.257812 190.054688 C 51.03125 189.710938 50.777344 189.390625 50.492188 189.09375 C 50.207031 188.800781 49.898438 188.535156 49.5625 188.300781 C 49.226562 188.066406 48.871094 187.867188 48.496094 187.703125 C 48.125 187.535156 47.738281 187.410156 47.339844 187.320312 C 46.941406 187.230469 46.539062 187.179688 46.128906 187.167969 L 46.128906 183.40625 C 46.539062 183.394531 46.941406 183.34375 47.339844 183.253906 C 47.738281 183.164062 48.125 183.039062 48.496094 182.871094 C 48.871094 182.707031 49.226562 182.507812 49.5625 182.273438 C 49.898438 182.039062 50.207031 181.773438 50.492188 181.480469 C 50.777344 181.183594 51.03125 180.863281 51.257812 180.519531 C 51.480469 180.175781 51.667969 179.8125 51.824219 179.429688 C 51.976562 179.046875 52.09375 178.65625 52.171875 178.25 C 52.25 177.84375 52.289062 177.4375 52.292969 177.023438 L 52.292969 166.464844 C 52.292969 165.878906 52.347656 165.300781 52.460938 164.726562 C 52.574219 164.15625 52.742188 163.597656 52.964844 163.058594 C 53.1875 162.519531 53.457031 162.007812 53.777344 161.523438 C 54.101562 161.035156 54.464844 160.585938 54.875 160.175781 C 55.285156 159.761719 55.726562 159.390625 56.207031 159.066406 C 56.691406 158.742188 57.195312 158.46875 57.730469 158.246094 C 58.265625 158.019531 58.816406 157.851562 59.382812 157.738281 C 59.949219 157.621094 60.523438 157.566406 61.101562 157.5625 L 64.203125 157.5625 L 64.203125 160.574219 L 61.101562 160.574219 C 60.71875 160.574219 60.339844 160.613281 59.964844 160.6875 C 59.589844 160.765625 59.222656 160.875 58.871094 161.023438 C 58.515625 161.171875 58.183594 161.355469 57.863281 161.570312 C 57.546875 161.785156 57.25 162.027344 56.980469 162.300781 C 56.710938 162.574219 56.46875 162.871094 56.253906 163.195312 C 56.042969 163.515625 55.863281 163.855469 55.714844 164.210938 C 55.570312 164.566406 55.460938 164.9375 55.382812 165.316406 C 55.308594 165.695312 55.273438 166.078125 55.269531 166.464844 L 55.269531 177.023438 C 55.269531 178.398438 54.984375 179.707031 54.414062 180.953125 C 53.84375 182.195312 53.039062 183.265625 52.007812 184.15625 L 50.695312 185.289062 L 52.007812 186.421875 C 53.039062 187.3125 53.84375 188.378906 54.414062 189.625 C 54.984375 190.867188 55.269531 192.175781 55.269531 193.550781 L 55.269531 204.109375 C 55.273438 204.792969 55.386719 205.457031 55.617188 206.097656 C 55.84375 206.742188 56.175781 207.324219 56.605469 207.851562 C 57.035156 208.378906 57.539062 208.816406 58.121094 209.164062 C 58.703125 209.515625 59.324219 209.753906 59.988281 209.886719 C 60.355469 209.957031 60.726562 209.996094 61.101562 209.996094 Z M 61.101562 209.996094 " fill-opacity="1" fill-rule="nonzero"/></g><g fill="#233dff" fill-opacity="1"><g transform="translate(219.894895, 214.861393)"><g><path d="M 0.578125 -12.125 L 0.578125 -14.890625 L 12.3125 -14.890625 L 12.3125 -12.125 L 8.25 -12.125 L 8.25 0 L 4.625 0 L 4.625 -12.125 Z M 0.578125 -12.125 "/></g></g></g><g fill="#233dff" fill-opacity="1"><g transform="translate(232.783126, 214.861393)"><g><path d="M 6.609375 0.140625 C 4.890625 0.140625 3.476562 -0.410156 2.375 -1.515625 C 1.269531 -2.628906 0.71875 -4.101562 0.71875 -5.9375 C 0.71875 -7.769531 1.265625 -9.226562 2.359375 -10.3125 C 3.453125 -11.40625 4.867188 -11.953125 6.609375 -11.953125 C 8.347656 -11.953125 9.789062 -11.414062 10.9375 -10.34375 C 12.082031 -9.269531 12.65625 -7.78125 12.65625 -5.875 C 12.65625 -5.46875 12.628906 -5.085938 12.578125 -4.734375 L 4.4375 -4.734375 C 4.5 -4.203125 4.726562 -3.769531 5.125 -3.4375 C 5.519531 -3.113281 5.945312 -2.953125 6.40625 -2.953125 C 6.875 -2.953125 7.21875 -2.992188 7.4375 -3.078125 C 7.664062 -3.171875 7.832031 -3.265625 7.9375 -3.359375 C 8.039062 -3.453125 8.179688 -3.601562 8.359375 -3.8125 L 12.28125 -3.8125 C 11.9375 -2.625 11.253906 -1.664062 10.234375 -0.9375 C 9.222656 -0.21875 8.015625 0.140625 6.609375 0.140625 Z M 8.890625 -7 C 8.828125 -7.550781 8.582031 -8 8.15625 -8.34375 C 7.738281 -8.6875 7.238281 -8.859375 6.65625 -8.859375 C 6.070312 -8.859375 5.582031 -8.6875 5.1875 -8.34375 C 4.789062 -8 4.546875 -7.550781 4.453125 -7 Z M 8.890625 -7 "/></g></g></g><g fill="#233dff" fill-opacity="1"><g transform="translate(246.180101, 214.861393)"><g><path d="M 2.359375 -1.5 C 1.265625 -2.601562 0.71875 -4.070312 0.71875 -5.90625 C 0.71875 -7.75 1.265625 -9.21875 2.359375 -10.3125 C 3.453125 -11.40625 4.867188 -11.953125 6.609375 -11.953125 C 8.054688 -11.953125 9.28125 -11.59375 10.28125 -10.875 C 11.28125 -10.164062 11.945312 -9.148438 12.28125 -7.828125 L 8.359375 -7.828125 C 8.015625 -8.535156 7.457031 -8.890625 6.6875 -8.890625 C 5.914062 -8.890625 5.34375 -8.613281 4.96875 -8.0625 C 4.59375 -7.519531 4.40625 -6.800781 4.40625 -5.90625 C 4.40625 -5.019531 4.59375 -4.304688 4.96875 -3.765625 C 5.34375 -3.222656 5.890625 -2.953125 6.609375 -2.953125 C 7.066406 -2.953125 7.421875 -3.023438 7.671875 -3.171875 C 7.929688 -3.328125 8.160156 -3.601562 8.359375 -4 L 12.28125 -4 C 11.945312 -2.726562 11.269531 -1.71875 10.25 -0.96875 C 9.238281 -0.226562 8.023438 0.140625 6.609375 0.140625 C 4.867188 0.140625 3.453125 -0.40625 2.359375 -1.5 Z M 2.359375 -1.5 "/></g></g></g><g fill="#233dff" fill-opacity="1"><g transform="translate(258.898747, 214.861393)"><g><path d="M 5.21875 -15.6875 L 5.21875 -10.09375 C 5.96875 -11.332031 7.160156 -11.953125 8.796875 -11.953125 C 10.148438 -11.953125 11.25 -11.5 12.09375 -10.59375 C 12.9375 -9.695312 13.359375 -8.46875 13.359375 -6.90625 L 13.359375 0 L 9.75 0 L 9.75 -6.421875 C 9.75 -7.179688 9.546875 -7.769531 9.140625 -8.1875 C 8.742188 -8.613281 8.191406 -8.828125 7.484375 -8.828125 C 6.773438 -8.828125 6.21875 -8.613281 5.8125 -8.1875 C 5.414062 -7.769531 5.21875 -7.179688 5.21875 -6.421875 L 5.21875 0 L 1.59375 0 L 1.59375 -15.6875 Z M 5.21875 -15.6875 "/></g></g></g><g fill="#f4f6fc" fill-opacity="1"><g transform="translate(80.335335, 181.862195)"><g><path d="M 18.84375 0 L 17.4375 -4.265625 L 8.3125 -4.265625 L 6.90625 0 L 0.328125 0 L 9.15625 -25.46875 L 16.671875 -25.46875 L 25.46875 0 Z M 9.875 -8.96875 L 15.875 -8.96875 L 12.875 -18.015625 Z M 9.875 -8.96875 "/></g></g></g><g clip-path="url(#fece478d7c)"><path fill="#f4a127" d="M 295.175781 220.417969 L 301.230469 220.417969 C 307.714844 220.417969 312.992188 215.085938 312.992188 208.535156 L 312.992188 197.972656 C 312.996094 197.523438 313.082031 197.089844 313.25 196.675781 C 313.421875 196.257812 313.664062 195.890625 313.980469 195.570312 C 314.296875 195.253906 314.660156 195.007812 315.070312 194.835938 C 315.484375 194.660156 315.914062 194.574219 316.359375 194.574219 L 319.15625 194.574219 L 319.15625 184.851562 L 318.964844 184.851562 L 314.445312 180.28125 L 312.992188 180.28125 L 312.992188 170.890625 C 312.992188 169.28125 312.679688 167.734375 312.054688 166.253906 C 311.429688 164.769531 310.542969 163.472656 309.394531 162.355469 C 309.402344 162.351562 304.878906 157.78125 304.878906 157.78125 C 303.785156 156.710938 302.53125 155.882812 301.117188 155.304688 C 299.703125 154.726562 298.234375 154.441406 296.710938 154.441406 L 290.652344 154.441406 L 290.652344 163.417969 L 295.175781 167.984375 L 299.585938 167.984375 L 299.585938 176.886719 C 299.582031 178.410156 299.855469 179.886719 300.398438 181.3125 C 300.941406 182.738281 301.71875 184.015625 302.730469 185.148438 C 301.71875 186.277344 300.941406 187.558594 300.398438 188.980469 C 299.855469 190.40625 299.585938 191.882812 299.585938 193.410156 L 299.585938 203.96875 C 299.585938 204.355469 299.511719 204.726562 299.367188 205.082031 C 299.21875 205.4375 299.011719 205.75 298.742188 206.023438 C 298.472656 206.296875 298.160156 206.507812 297.808594 206.652344 C 297.457031 206.800781 297.089844 206.875 296.710938 206.875 L 290.652344 206.875 L 290.652344 215.851562 Z M 291.300781 207.992188 L 295.175781 211.902344 L 295.175781 219.488281 L 291.300781 215.578125 Z M 291.300781 155.558594 L 295.175781 159.472656 L 295.175781 167.054688 L 291.300781 163.144531 Z M 304.425781 158.25 L 306.378906 160.222656 C 304.757812 159.414062 303.039062 159.007812 301.230469 159.007812 L 295.632812 159.007812 L 291.761719 155.09375 L 296.707031 155.09375 C 298.148438 155.09375 299.535156 155.363281 300.871094 155.910156 C 302.207031 156.457031 303.390625 157.234375 304.425781 158.25 Z M 295.824219 167.328125 L 295.824219 159.660156 L 301.230469 159.660156 C 307.359375 159.660156 312.34375 164.699219 312.34375 170.890625 L 312.34375 181.449219 C 312.34375 181.714844 312.371094 181.980469 312.421875 182.242188 C 312.472656 182.503906 312.550781 182.753906 312.652344 183 C 312.753906 183.246094 312.875 183.480469 313.023438 183.703125 C 313.167969 183.921875 313.335938 184.128906 313.523438 184.316406 C 313.707031 184.503906 313.910156 184.671875 314.128906 184.820312 C 314.347656 184.96875 314.578125 185.089844 314.824219 185.195312 C 315.066406 185.296875 315.316406 185.371094 315.574219 185.425781 C 315.835938 185.476562 316.09375 185.503906 316.359375 185.503906 L 318.507812 185.503906 L 318.507812 193.921875 L 316.359375 193.921875 C 316.09375 193.921875 315.832031 193.945312 315.574219 194 C 315.316406 194.050781 315.066406 194.128906 314.824219 194.230469 C 314.578125 194.332031 314.347656 194.457031 314.128906 194.605469 C 313.910156 194.753906 313.707031 194.921875 313.519531 195.109375 C 313.335938 195.296875 313.167969 195.5 313.023438 195.722656 C 312.875 195.945312 312.753906 196.175781 312.652344 196.421875 C 312.550781 196.667969 312.472656 196.921875 312.421875 197.183594 C 312.371094 197.445312 312.34375 197.707031 312.34375 197.972656 L 312.34375 208.535156 C 312.34375 214.726562 307.359375 219.761719 301.230469 219.761719 L 295.824219 219.761719 L 295.824219 212.09375 L 301.230469 212.09375 C 301.695312 212.09375 302.144531 212.003906 302.578125 211.824219 C 303.007812 211.640625 303.390625 211.386719 303.722656 211.050781 C 304.050781 210.71875 304.304688 210.332031 304.484375 209.898438 C 304.664062 209.460938 304.753906 209.007812 304.753906 208.535156 L 304.753906 197.972656 C 304.753906 196.476562 305.027344 195.035156 305.574219 193.644531 C 306.125 192.257812 306.910156 191.019531 307.929688 189.9375 L 308.136719 189.710938 L 307.929688 189.484375 C 306.90625 188.402344 306.125 187.164062 305.574219 185.777344 C 305.027344 184.386719 304.753906 182.945312 304.753906 181.449219 L 304.753906 170.886719 C 304.753906 170.417969 304.664062 169.960938 304.484375 169.527344 C 304.304688 169.089844 304.050781 168.707031 303.722656 168.371094 C 303.390625 168.039062 303.007812 167.78125 302.578125 167.601562 C 302.148438 167.417969 301.699219 167.328125 301.230469 167.328125 Z M 318.050781 184.847656 L 316.359375 184.847656 C 315.914062 184.847656 315.484375 184.761719 315.070312 184.589844 C 314.660156 184.417969 314.296875 184.171875 313.980469 183.851562 C 313.664062 183.535156 313.421875 183.167969 313.25 182.75 C 313.082031 182.335938 312.996094 181.902344 312.992188 181.449219 L 312.992188 180.9375 L 314.175781 180.9375 L 317.109375 183.898438 Z M 300.234375 167.980469 L 301.230469 167.980469 C 301.613281 167.984375 301.980469 168.058594 302.332031 168.203125 C 302.683594 168.351562 302.992188 168.5625 303.261719 168.835938 C 303.53125 169.109375 303.742188 169.421875 303.886719 169.777344 C 304.03125 170.132812 304.105469 170.503906 304.105469 170.890625 L 304.105469 181.449219 C 304.105469 183.363281 304.519531 185.175781 305.355469 186.886719 L 303.402344 184.914062 C 302.386719 183.832031 301.601562 182.59375 301.054688 181.207031 C 300.507812 179.820312 300.234375 178.378906 300.234375 176.882812 Z M 300.234375 193.40625 C 300.234375 191.96875 300.488281 190.582031 301 189.238281 C 301.507812 187.898438 302.238281 186.695312 303.191406 185.625 L 307.246094 189.722656 C 306.234375 190.851562 305.457031 192.128906 304.917969 193.554688 C 304.375 194.976562 304.105469 196.449219 304.105469 197.972656 L 304.105469 208.535156 C 304.105469 208.910156 304.035156 209.269531 303.898438 209.617188 C 303.757812 209.960938 303.5625 210.269531 303.304688 210.539062 C 303.046875 210.808594 302.75 211.019531 302.414062 211.175781 C 302.078125 211.328125 301.722656 211.414062 301.351562 211.429688 L 297.417969 207.457031 C 297.816406 207.371094 298.1875 207.222656 298.535156 207.011719 C 298.882812 206.800781 299.183594 206.535156 299.441406 206.214844 C 299.695312 205.898438 299.890625 205.546875 300.027344 205.160156 C 300.164062 204.773438 300.234375 204.378906 300.234375 203.96875 Z M 300.449219 211.441406 L 295.632812 211.441406 L 291.761719 207.527344 L 296.558594 207.527344 C 296.574219 207.53125 300.449219 211.441406 300.449219 211.441406 Z M 306.410156 170.890625 L 306.410156 181.449219 C 306.414062 182.917969 306.71875 184.316406 307.328125 185.648438 C 307.9375 186.980469 308.796875 188.125 309.902344 189.078125 L 310.636719 189.710938 L 309.902344 190.347656 C 308.796875 191.300781 307.9375 192.441406 307.328125 193.773438 C 306.71875 195.105469 306.414062 196.507812 306.410156 197.972656 L 306.410156 208.535156 C 306.410156 208.878906 306.378906 209.21875 306.3125 209.554688 C 306.246094 209.894531 306.144531 210.21875 306.015625 210.539062 C 305.886719 210.855469 305.726562 211.15625 305.535156 211.441406 C 305.347656 211.726562 305.132812 211.992188 304.894531 212.234375 C 304.652344 212.476562 304.390625 212.695312 304.109375 212.886719 C 303.824219 213.078125 303.527344 213.238281 303.210938 213.371094 C 302.898438 213.5 302.574219 213.601562 302.242188 213.667969 C 301.90625 213.734375 301.570312 213.769531 301.230469 213.769531 L 297.480469 213.769531 L 297.480469 218.089844 L 301.230469 218.089844 C 301.851562 218.089844 302.464844 218.027344 303.074219 217.902344 C 303.683594 217.78125 304.273438 217.597656 304.847656 217.359375 C 305.421875 217.117188 305.96875 216.824219 306.484375 216.476562 C 307 216.125 307.476562 215.730469 307.914062 215.289062 C 308.355469 214.84375 308.746094 214.363281 309.089844 213.839844 C 309.4375 213.320312 309.726562 212.769531 309.964844 212.191406 C 310.203125 211.609375 310.382812 211.011719 310.503906 210.398438 C 310.628906 209.785156 310.6875 209.164062 310.6875 208.535156 L 310.6875 197.972656 C 310.6875 197.597656 310.726562 197.226562 310.800781 196.855469 C 310.871094 196.488281 310.980469 196.128906 311.121094 195.785156 C 311.265625 195.4375 311.441406 195.105469 311.644531 194.792969 C 311.851562 194.480469 312.089844 194.191406 312.351562 193.925781 C 312.613281 193.660156 312.902344 193.421875 313.210938 193.214844 C 313.519531 193.003906 313.847656 192.828125 314.191406 192.683594 C 314.535156 192.539062 314.886719 192.429688 315.253906 192.359375 C 315.617188 192.285156 315.988281 192.246094 316.359375 192.246094 L 316.851562 192.246094 L 316.851562 187.179688 L 316.359375 187.179688 C 315.988281 187.179688 315.617188 187.140625 315.253906 187.066406 C 314.886719 186.992188 314.535156 186.882812 314.191406 186.742188 C 313.847656 186.597656 313.519531 186.421875 313.210938 186.210938 C 312.902344 186.003906 312.613281 185.765625 312.351562 185.5 C 312.089844 185.234375 311.851562 184.945312 311.648438 184.632812 C 311.441406 184.320312 311.265625 183.988281 311.121094 183.640625 C 310.980469 183.292969 310.871094 182.9375 310.800781 182.570312 C 310.726562 182.199219 310.6875 181.828125 310.6875 181.453125 L 310.6875 170.890625 C 310.6875 170.261719 310.628906 169.640625 310.503906 169.027344 C 310.382812 168.414062 310.203125 167.816406 309.964844 167.234375 C 309.726562 166.65625 309.4375 166.105469 309.089844 165.585938 C 308.746094 165.0625 308.355469 164.582031 307.914062 164.136719 C 307.476562 163.695312 307 163.300781 306.484375 162.949219 C 305.964844 162.601562 305.421875 162.308594 304.847656 162.066406 C 304.273438 161.828125 303.683594 161.644531 303.074219 161.523438 C 302.464844 161.398438 301.851562 161.339844 301.230469 161.335938 L 297.480469 161.335938 L 297.480469 165.65625 L 301.230469 165.65625 C 301.570312 165.65625 301.90625 165.691406 302.242188 165.757812 C 302.574219 165.824219 302.898438 165.921875 303.210938 166.054688 C 303.527344 166.1875 303.824219 166.347656 304.109375 166.539062 C 304.390625 166.730469 304.652344 166.945312 304.894531 167.191406 C 305.132812 167.433594 305.347656 167.695312 305.539062 167.984375 C 305.726562 168.269531 305.886719 168.570312 306.015625 168.886719 C 306.148438 169.203125 306.246094 169.53125 306.3125 169.867188 C 306.378906 170.207031 306.410156 170.546875 306.410156 170.890625 Z M 301.230469 165 L 298.128906 165 L 298.128906 161.988281 L 301.230469 161.988281 C 301.808594 161.992188 302.382812 162.050781 302.949219 162.164062 C 303.515625 162.28125 304.0625 162.449219 304.597656 162.675781 C 305.132812 162.898438 305.636719 163.171875 306.117188 163.496094 C 306.597656 163.824219 307.042969 164.191406 307.453125 164.605469 C 307.859375 165.015625 308.226562 165.464844 308.546875 165.949219 C 308.871094 166.4375 309.140625 166.949219 309.363281 167.488281 C 309.585938 168.027344 309.753906 168.582031 309.867188 169.152344 C 309.980469 169.726562 310.039062 170.304688 310.039062 170.886719 L 310.039062 181.449219 C 310.039062 181.863281 310.082031 182.269531 310.160156 182.675781 C 310.238281 183.078125 310.355469 183.472656 310.507812 183.855469 C 310.664062 184.234375 310.851562 184.597656 311.074219 184.945312 C 311.300781 185.289062 311.554688 185.609375 311.839844 185.902344 C 312.125 186.199219 312.433594 186.464844 312.769531 186.699219 C 313.105469 186.933594 313.460938 187.132812 313.835938 187.296875 C 314.207031 187.460938 314.59375 187.589844 314.992188 187.679688 C 315.390625 187.769531 315.792969 187.816406 316.203125 187.828125 L 316.203125 191.59375 C 315.792969 191.601562 315.390625 191.652344 314.992188 191.742188 C 314.59375 191.832031 314.207031 191.960938 313.832031 192.125 C 313.460938 192.289062 313.105469 192.488281 312.769531 192.722656 C 312.433594 192.957031 312.121094 193.222656 311.839844 193.519531 C 311.554688 193.8125 311.296875 194.132812 311.074219 194.476562 C 310.851562 194.824219 310.664062 195.1875 310.507812 195.566406 C 310.355469 195.949219 310.238281 196.34375 310.160156 196.746094 C 310.082031 197.152344 310.039062 197.558594 310.039062 197.972656 L 310.039062 208.535156 C 310.039062 209.117188 309.984375 209.695312 309.871094 210.269531 C 309.757812 210.84375 309.589844 211.398438 309.367188 211.9375 C 309.144531 212.476562 308.875 212.988281 308.550781 213.476562 C 308.230469 213.960938 307.867188 214.410156 307.457031 214.824219 C 307.046875 215.238281 306.605469 215.605469 306.121094 215.929688 C 305.640625 216.253906 305.132812 216.527344 304.601562 216.753906 C 304.066406 216.976562 303.515625 217.144531 302.949219 217.261719 C 302.382812 217.375 301.808594 217.433594 301.230469 217.433594 L 298.128906 217.433594 L 298.128906 214.421875 L 301.230469 214.421875 C 301.613281 214.421875 301.992188 214.382812 302.367188 214.308594 C 302.742188 214.234375 303.105469 214.121094 303.460938 213.972656 C 303.8125 213.824219 304.148438 213.644531 304.46875 213.429688 C 304.785156 213.214844 305.082031 212.96875 305.351562 212.695312 C 305.621094 212.421875 305.863281 212.125 306.074219 211.804688 C 306.289062 211.484375 306.46875 211.144531 306.613281 210.785156 C 306.761719 210.429688 306.871094 210.0625 306.949219 209.683594 C 307.023438 209.304688 307.058594 208.921875 307.058594 208.535156 L 307.058594 197.972656 C 307.0625 196.601562 307.347656 195.292969 307.917969 194.046875 C 308.488281 192.800781 309.292969 191.734375 310.324219 190.84375 L 311.632812 189.710938 L 310.324219 188.578125 C 309.292969 187.6875 308.488281 186.621094 307.917969 185.375 C 307.347656 184.128906 307.0625 182.820312 307.058594 181.449219 L 307.058594 170.886719 C 307.058594 170.203125 306.945312 169.542969 306.714844 168.898438 C 306.488281 168.257812 306.15625 167.671875 305.726562 167.144531 C 305.296875 166.621094 304.792969 166.179688 304.210938 165.832031 C 303.628906 165.484375 303.007812 165.242188 302.34375 165.113281 C 301.976562 165.039062 301.605469 165.003906 301.230469 165 Z M 301.230469 165 " fill-opacity="1" fill-rule="nonzero"/></g></svg>