<?xml version="1.0" encoding="UTF-8" standalone="no"?>
<svg
   width="500"
   zoomAndPan="magnify"
   viewBox="0 0 375 374.999991"
   height="500"
   preserveAspectRatio="xMidYMid meet"
   version="1.0"
   id="svg388"
   xmlns="http://www.w3.org/2000/svg"
   xmlns:svg="http://www.w3.org/2000/svg">
   <style type="text/css">
	g[id^="let"] {
	  fill: green;
	}

	g[id="nam01"] > path {
	  opacity: 0;
	  animation: displayLast 1s forwards;
	}

	g[id^="vib"] > path {
	  stroke-dasharray: 1;
	  stroke-dashoffset: 1;
	  animation: dash 1s forwards;
	}

	g[id^="vib01"] > path {
	  animation-delay: 0.5s;
	}

	g[id^="vib02"] > path {
	  animation-delay: 1.5s;
	}

	g[id^="vib03"] > path {
	  animation-delay: 2.5s;
	}

	g[id^="nam01"] > path {
	  animation-delay: 3.5s;
	}

	g[id^="letNpath"] > path,
	path[id="letNpathBrain"],
	path[id^="letNpathBulbBot"] {
	  fill: green;
	}

	g[id^="letNpathEmit"] > path {
	  animation: blink1 0.7s infinite;
	  fill: blue;
	}

	g[id^="symArr"] > path {
	  -webkit-animation: text-flicker-out-glow 2.5s linear;
	  animation: text-flicker-out-glow 2.5s linear;
	}

	path[id^="letNpathBrain"] {
	  animation: blink2 2s infinite;
	  fill: blue;
	}

	@keyframes displayLast {
	  100% {
		opacity: 1;
	  }
	}

	@keyframes blink1 {
	  100%,
	  0% {
		fill: green;
	  }
	  60% {
		fill: #e04b32;
	  }
	}

	@keyframes blink2 {
	  100%,
	  0% {
		fill: gold;
	  }
	  60% {
		fill: green;
	  }
	}

	@keyframes text-flicker-out-glow {
	  0% {
		opacity: 1;
		text-shadow: 0 0 30px rgba(255, 255, 255, 0.6),
		  0 0 60px rgba(255, 255, 255, 0.45), 0 0 110px rgba(255, 255, 255, 0.25),
		  0 0 100px rgba(255, 255, 255, 0.1);
	  }
	  13.9% {
		opacity: 1;
		text-shadow: 0 0 30px rgba(255, 255, 255, 0.6),
		  0 0 60px rgba(255, 255, 255, 0.45), 0 0 110px rgba(255, 255, 255, 0.25),
		  0 0 100px rgba(255, 255, 255, 0.1);
	  }
	  14% {
		opacity: 0;
		text-shadow: none;
	  }
	  14.9% {
		opacity: 0;
		text-shadow: none;
	  }
	  15% {
		opacity: 1;
		text-shadow: 0 0 30px rgba(255, 255, 255, 0.55),
		  0 0 60px rgba(255, 255, 255, 0.4), 0 0 110px rgba(255, 255, 255, 0.2),
		  0 0 100px rgba(255, 255, 255, 0.1);
	  }
	  22.9% {
		opacity: 1;
		text-shadow: 0 0 30px rgba(255, 255, 255, 0.55),
		  0 0 60px rgba(255, 255, 255, 0.4), 0 0 110px rgba(255, 255, 255, 0.2),
		  0 0 100px rgba(255, 255, 255, 0.1);
	  }
	  23% {
		opacity: 0;
		text-shadow: none;
	  }
	  24.9% {
		opacity: 0;
		text-shadow: none;
	  }
	  25% {
		opacity: 1;
		text-shadow: 0 0 30px rgba(255, 255, 255, 0.55),
		  0 0 60px rgba(255, 255, 255, 0.35), 0 0 100px rgba(255, 255, 255, 0.1);
	  }
	  34.9% {
		opacity: 1;
		text-shadow: 0 0 30px rgba(255, 255, 255, 0.55),
		  0 0 60px rgba(255, 255, 255, 0.35), 0 0 100px rgba(255, 255, 255, 0.1);
	  }
	  35% {
		opacity: 0;
		text-shadow: none;
	  }
	  39.9% {
		opacity: 0;
		text-shadow: none;
	  }
	  40% {
		opacity: 1;
		text-shadow: 0 0 30px rgba(255, 255, 255, 0.55),
		  0 0 60px rgba(255, 255, 255, 0.35);
	  }
	  42.9% {
		opacity: 1;
		text-shadow: 0 0 30px rgba(255, 255, 255, 0.55),
		  0 0 60px rgba(255, 255, 255, 0.35);
	  }
	  43% {
		opacity: 0;
		text-shadow: none;
	  }
	  44.9% {
		opacity: 0;
		text-shadow: none;
	  }
	  45% {
		opacity: 1;
		text-shadow: 0 0 30px rgba(255, 255, 255, 0.45),
		  0 0 60px rgba(255, 255, 255, 0.25);
	  }
	  50% {
		opacity: 1;
		text-shadow: 0 0 30px rgba(255, 255, 255, 0.45),
		  0 0 60px rgba(255, 255, 255, 0.25);
	  }
	  54.9% {
		opacity: 1;
		text-shadow: 0 0 30px rgba(255, 255, 255, 0.45),
		  0 0 60px rgba(255, 255, 255, 0.25);
	  }
	  55% {
		opacity: 0;
		text-shadow: none;
	  }
	  69.4% {
		opacity: 0;
		text-shadow: none;
	  }
	  69.5% {
		opacity: 1;
		text-shadow: 0 0 30px rgba(255, 255, 255, 0.45),
		  0 0 60px rgba(255, 255, 255, 0.25);
	  }
	  69.9% {
		opacity: 1;
		text-shadow: 0 0 30px rgba(255, 255, 255, 0.45),
		  0 0 60px rgba(255, 255, 255, 0.25);
	  }
	  70% {
		opacity: 0;
		text-shadow: none;
	  }
	  79.4% {
		opacity: 0;
		text-shadow: none;
	  }
	  79.9% {
		opacity: 1;
		text-shadow: 0 0 30px rgba(255, 255, 255, 0.25);
	  }
	  80% {
		opacity: 0;
		text-shadow: none;
	  }
	  89.8% {
		opacity: 0;
		text-shadow: none;
	  }
	  89.9% {
		opacity: 1;
		text-shadow: none;
	  }
	  90% {
		opacity: 0;
		text-shadow: none;
	  }
	  100% {
		opacity: 0;
	  }
	}

	@keyframes dash {
	  from {
		stroke-dashoffset: 1;
	  }
	  to {
		stroke-dashoffset: 0;
	  }
	}
   </style>
  <defs
     id="defs238">
    <g
       id="g197" />
    <clipPath
       id="74cad80ae9">
      <path
         d="M 180 191 L 190 191 L 190 196.128906 L 180 196.128906 Z M 180 191 "
         clip-rule="nonzero"
         id="path199" />
    </clipPath>
    <clipPath
       id="0f9279ec8c">
      <path
         d="M 172.511719 153 L 198.761719 153 L 198.761719 184 L 172.511719 184 Z M 172.511719 153 "
         clip-rule="nonzero"
         id="path202" />
    </clipPath>
    <clipPath
       id="4f1a59c0f4">
      <path
         d="M 178 145.878906 L 193 145.878906 L 193 153 L 178 153 Z M 178 145.878906 "
         clip-rule="nonzero"
         id="path205" />
    </clipPath>
    <clipPath
       id="2b71714a37">
      <path
         d="M 66.417969 162.390625 L 122.667969 162.390625 L 122.667969 172.890625 L 66.417969 172.890625 Z M 66.417969 162.390625 "
         clip-rule="nonzero"
         id="path208" />
    </clipPath>
    <clipPath
       id="912b54e3c0">
      <path
         d="M 66.417969 175.011719 L 122.667969 175.011719 L 122.667969 185.511719 L 66.417969 185.511719 Z M 66.417969 175.011719 "
         clip-rule="nonzero"
         id="path211" />
    </clipPath>
    <clipPath
       id="7c5b92f7cc">
      <path
         d="M 66.417969 187.632812 L 122.667969 187.632812 L 122.667969 198 L 66.417969 198 Z M 66.417969 187.632812 "
         clip-rule="nonzero"
         id="path214" />
    </clipPath>
    <clipPath
       id="380222aade">
      <path
         d="M 94.628906 153 L 98.378906 153 L 98.378906 197.480469 L 94.628906 197.480469 Z M 94.628906 153 "
         clip-rule="nonzero"
         id="path217" />
    </clipPath>
    <clipPath
       id="059c80d937">
      <path
         d="M 268.871094 188.789062 L 282 188.789062 L 282 206.789062 L 268.871094 206.789062 Z M 268.871094 188.789062 "
         clip-rule="nonzero"
         id="path220" />
    </clipPath>
    <clipPath
       id="50f3cdb2b9">
      <path
         d="M 272 188.789062 L 286 188.789062 L 286 206.789062 L 272 206.789062 Z M 272 188.789062 "
         clip-rule="nonzero"
         id="path223" />
    </clipPath>
    <clipPath
       id="081d610eb1">
      <path
         d="M 276 188.789062 L 289.121094 188.789062 L 289.121094 206.789062 L 276 206.789062 Z M 276 188.789062 "
         clip-rule="nonzero"
         id="path226" />
    </clipPath>
    <clipPath
       id="c5c0b25a3b">
      <path
         d="M 248.527344 188.789062 L 261 188.789062 L 261 206.789062 L 248.527344 206.789062 Z M 248.527344 188.789062 "
         clip-rule="nonzero"
         id="path229" />
    </clipPath>
    <clipPath
       id="8290cd2e10">
      <path
         d="M 252 188.789062 L 265 188.789062 L 265 206.789062 L 252 206.789062 Z M 252 188.789062 "
         clip-rule="nonzero"
         id="path232" />
    </clipPath>
    <clipPath
       id="095b1132d1">
      <path
         d="M 256 188.789062 L 268.777344 188.789062 L 268.777344 206.789062 L 256 206.789062 Z M 256 188.789062 "
         clip-rule="nonzero"
         id="path235" />
    </clipPath>
  </defs>
  <g
     fill="#f4f6fc"
     fill-opacity="1"
     id="letU">
    <g
       transform="translate(203.269741, 181.234026)"
       id="g244">
      <g
         id="g242">
        <path
           d="M 16.421875 -20.1875 L 22.609375 -20.1875 L 22.609375 0 L 16.421875 0 L 16.421875 -2.96875 C 15.140625 -0.84375 13.101562 0.21875 10.3125 0.21875 C 8 0.21875 6.125 -0.550781 4.6875 -2.09375 C 3.25 -3.632812 2.53125 -5.734375 2.53125 -8.390625 L 2.53125 -20.1875 L 8.6875 -20.1875 L 8.6875 -9.21875 C 8.6875 -7.914062 9.03125 -6.910156 9.71875 -6.203125 C 10.40625 -5.492188 11.347656 -5.140625 12.546875 -5.140625 C 13.753906 -5.140625 14.703125 -5.492188 15.390625 -6.203125 C 16.078125 -6.910156 16.421875 -7.914062 16.421875 -9.21875 Z M 16.421875 -20.1875 "
           id="path240" />
      </g>
    </g>
  </g>
  <g
     fill="#f4f6fc"
     fill-opacity="1"
     id="letG">
    <g
       transform="translate(227.683, 181.234026)"
       id="g252">
      <g
         id="g250">
        <path
           d="M 3.90625 -2.640625 C 2.125 -4.566406 1.234375 -7.035156 1.234375 -10.046875 C 1.234375 -13.066406 2.125 -15.546875 3.90625 -17.484375 C 5.6875 -19.429688 7.859375 -20.40625 10.421875 -20.40625 C 12.992188 -20.40625 14.96875 -19.453125 16.34375 -17.546875 L 16.34375 -20.1875 L 22.53125 -20.1875 L 22.53125 -0.109375 C 22.53125 2.710938 21.757812 5.0625 20.21875 6.9375 C 19.445312 7.90625 18.390625 8.65625 17.046875 9.1875 C 15.710938 9.71875 14.164062 9.984375 12.40625 9.984375 C 9.320312 9.984375 6.875 9.351562 5.0625 8.09375 C 3.25 6.84375 2.222656 4.925781 1.984375 2.34375 L 8.0625 2.34375 C 8.644531 3.863281 10.09375 4.625 12.40625 4.625 C 13.539062 4.625 14.476562 4.242188 15.21875 3.484375 C 15.96875 2.722656 16.34375 1.523438 16.34375 -0.109375 L 16.34375 -2.9375 C 14.851562 -0.8125 12.851562 0.25 10.34375 0.25 C 7.832031 0.25 5.6875 -0.710938 3.90625 -2.640625 Z M 15 -6.390625 C 15.894531 -7.265625 16.34375 -8.5 16.34375 -10.09375 C 16.34375 -11.6875 15.894531 -12.910156 15 -13.765625 C 14.113281 -14.617188 13.09375 -15.046875 11.9375 -15.046875 C 10.78125 -15.046875 9.753906 -14.609375 8.859375 -13.734375 C 7.972656 -12.867188 7.53125 -11.640625 7.53125 -10.046875 C 7.53125 -8.460938 7.972656 -7.238281 8.859375 -6.375 C 9.753906 -5.519531 10.78125 -5.09375 11.9375 -5.09375 C 13.09375 -5.09375 14.113281 -5.523438 15 -6.390625 Z M 15 -6.390625 "
           id="path248" />
      </g>
    </g>
  </g>
  <g
     fill="#f4f6fc"
     fill-opacity="1"
     id="letR">
    <g
       transform="translate(252.023921, 181.234026)"
       id="g260">
      <g
         id="g258">
        <path
           d="M 8.890625 -20.1875 L 8.890625 -16.421875 C 10.335938 -19.078125 12.269531 -20.40625 14.6875 -20.40625 L 14.6875 -14.109375 L 13.171875 -14.109375 C 11.742188 -14.109375 10.671875 -13.769531 9.953125 -13.09375 C 9.242188 -12.414062 8.890625 -11.234375 8.890625 -9.546875 L 8.890625 0 L 2.71875 0 L 2.71875 -20.1875 Z M 8.890625 -20.1875 "
           id="path256" />
      </g>
    </g>
  </g>
  <g
     fill="#f4f6fc"
     fill-opacity="1"
     id="letA2">
    <g
       transform="translate(266.454843, 181.234026)"
       id="g268">
      <g
         id="g266">
        <path
           d="M 15 -6.390625 C 15.894531 -7.265625 16.34375 -8.5 16.34375 -10.09375 C 16.34375 -11.6875 15.894531 -12.910156 15 -13.765625 C 14.113281 -14.617188 13.09375 -15.046875 11.9375 -15.046875 C 10.78125 -15.046875 9.753906 -14.609375 8.859375 -13.734375 C 7.972656 -12.867188 7.53125 -11.640625 7.53125 -10.046875 C 7.53125 -8.460938 7.972656 -7.238281 8.859375 -6.375 C 9.753906 -5.519531 10.78125 -5.09375 11.9375 -5.09375 C 13.09375 -5.09375 14.113281 -5.523438 15 -6.390625 Z M 3.90625 -2.640625 C 2.125 -4.566406 1.234375 -7.035156 1.234375 -10.046875 C 1.234375 -13.066406 2.125 -15.546875 3.90625 -17.484375 C 5.6875 -19.429688 7.859375 -20.40625 10.421875 -20.40625 C 12.992188 -20.40625 14.96875 -19.453125 16.34375 -17.546875 L 16.34375 -20.1875 L 22.53125 -20.1875 L 22.53125 0 L 16.34375 0 L 16.34375 -2.9375 C 14.851562 -0.8125 12.851562 0.25 10.34375 0.25 C 7.832031 0.25 5.6875 -0.710938 3.90625 -2.640625 Z M 3.90625 -2.640625 "
           id="path264" />
      </g>
    </g>
  </g>
  <g
     fill="#f4f6fc"
     fill-opacity="1"
     id="letH">
    <g
       transform="translate(290.795763, 181.234026)"
       id="g276">
      <g
         id="g274">
        <path
           d="M 8.890625 -26.765625 L 8.890625 -17.21875 C 10.171875 -19.34375 12.210938 -20.40625 15.015625 -20.40625 C 17.328125 -20.40625 19.195312 -19.628906 20.625 -18.078125 C 22.0625 -16.535156 22.78125 -14.441406 22.78125 -11.796875 L 22.78125 0 L 16.640625 0 L 16.640625 -10.953125 C 16.640625 -12.253906 16.296875 -13.257812 15.609375 -13.96875 C 14.921875 -14.6875 13.972656 -15.046875 12.765625 -15.046875 C 11.554688 -15.046875 10.609375 -14.6875 9.921875 -13.96875 C 9.234375 -13.257812 8.890625 -12.253906 8.890625 -10.953125 L 8.890625 0 L 2.71875 0 L 2.71875 -26.765625 Z M 8.890625 -26.765625 "
           id="path272" />
      </g>
    </g>
  </g>
  <g
     fill="#f4f6fc"
     fill-opacity="1"
     id="letA3">
    <g
       transform="translate(315.209023, 181.234026)"
       id="g284">
      <g
         id="g282">
        <path
           d="M 15 -6.390625 C 15.894531 -7.265625 16.34375 -8.5 16.34375 -10.09375 C 16.34375 -11.6875 15.894531 -12.910156 15 -13.765625 C 14.113281 -14.617188 13.09375 -15.046875 11.9375 -15.046875 C 10.78125 -15.046875 9.753906 -14.609375 8.859375 -13.734375 C 7.972656 -12.867188 7.53125 -11.640625 7.53125 -10.046875 C 7.53125 -8.460938 7.972656 -7.238281 8.859375 -6.375 C 9.753906 -5.519531 10.78125 -5.09375 11.9375 -5.09375 C 13.09375 -5.09375 14.113281 -5.523438 15 -6.390625 Z M 3.90625 -2.640625 C 2.125 -4.566406 1.234375 -7.035156 1.234375 -10.046875 C 1.234375 -13.066406 2.125 -15.546875 3.90625 -17.484375 C 5.6875 -19.429688 7.859375 -20.40625 10.421875 -20.40625 C 12.992188 -20.40625 14.96875 -19.453125 16.34375 -17.546875 L 16.34375 -20.1875 L 22.53125 -20.1875 L 22.53125 0 L 16.34375 0 L 16.34375 -2.9375 C 14.851562 -0.8125 12.851562 0.25 10.34375 0.25 C 7.832031 0.25 5.6875 -0.710938 3.90625 -2.640625 Z M 3.90625 -2.640625 "
           id="path280" />
      </g>
    </g>
  </g>
  <path
     fill="#cae8ff"
     d="M 190.167969 186.085938 L 179.832031 183.808594 C 179.804688 183.800781 179.78125 183.792969 179.753906 183.78125 C 179.5625 183.734375 179.378906 183.660156 179.214844 183.574219 C 178.851562 183.402344 178.546875 183.160156 178.382812 182.867188 C 178.285156 182.695312 178.1875 182.417969 178.285156 182.105469 C 178.402344 181.753906 178.753906 181.484375 179.207031 181.316406 C 179.371094 181.257812 179.554688 181.21875 179.746094 181.191406 C 179.859375 181.179688 179.957031 181.152344 180.074219 181.152344 C 180.292969 181.152344 180.511719 181.179688 180.722656 181.222656 L 185.1875 182.210938 L 185.726562 182.332031 L 191.0625 183.503906 C 191.089844 183.507812 191.113281 183.523438 191.140625 183.53125 C 191.332031 183.574219 191.515625 183.648438 191.679688 183.726562 C 192.042969 183.90625 192.339844 184.144531 192.503906 184.4375 C 192.601562 184.609375 192.703125 184.886719 192.601562 185.199219 C 192.484375 185.550781 192.136719 185.820312 191.679688 185.988281 C 191.417969 186.078125 191.132812 186.144531 190.820312 186.144531 C 190.621094 186.144531 190.417969 186.121094 190.226562 186.078125 C 190.207031 186.074219 190.1875 186.078125 190.167969 186.074219 Z M 188.769531 183.875 C 188.738281 184.019531 188.828125 184.164062 188.972656 184.199219 L 191.054688 184.65625 C 191.074219 184.664062 191.09375 184.664062 191.113281 184.664062 C 191.121094 184.664062 191.128906 184.65625 191.140625 184.65625 C 191.253906 184.648438 191.351562 184.570312 191.386719 184.449219 C 191.417969 184.304688 191.324219 184.160156 191.175781 184.125 L 191.140625 184.117188 L 189.09375 183.667969 C 188.949219 183.636719 188.804688 183.726562 188.769531 183.875 Z M 188.769531 183.875 "
     fill-opacity="1"
     fill-rule="evenodd"
     id="letNpathBulbBotSpir3" />
  <path
     fill="#cae8ff"
     d="M 180.722656 184.617188 L 187.441406 186.09375 L 189.910156 186.636719 L 191.0625 186.886719 C 191.722656 187.035156 192.261719 187.382812 192.511719 187.820312 C 192.609375 188 192.707031 188.273438 192.609375 188.582031 C 192.425781 189.140625 191.695312 189.53125 190.820312 189.53125 C 190.671875 189.53125 190.523438 189.503906 190.371094 189.484375 C 190.304688 189.472656 190.230469 189.476562 190.167969 189.457031 L 189.738281 189.367188 L 182.386719 187.742188 L 181.722656 187.597656 L 179.832031 187.179688 C 179.171875 187.035156 178.632812 186.6875 178.382812 186.246094 C 178.285156 186.074219 178.1875 185.792969 178.285156 185.484375 C 178.402344 185.132812 178.753906 184.859375 179.207031 184.695312 C 179.371094 184.636719 179.554688 184.597656 179.746094 184.570312 C 179.859375 184.554688 179.957031 184.53125 180.074219 184.53125 C 180.292969 184.53125 180.511719 184.554688 180.722656 184.601562 Z M 189.054688 187.511719 L 191.054688 187.949219 C 191.074219 187.953125 191.09375 187.953125 191.113281 187.953125 C 191.238281 187.953125 191.351562 187.867188 191.378906 187.742188 C 191.410156 187.597656 191.320312 187.449219 191.167969 187.417969 L 189.078125 186.953125 C 188.933594 186.921875 188.789062 187.015625 188.757812 187.160156 C 188.75 187.207031 188.769531 187.238281 188.785156 187.277344 C 188.808594 187.371094 188.867188 187.457031 188.96875 187.484375 L 189.054688 187.503906 Z M 189.054688 187.511719 "
     fill-opacity="1"
     fill-rule="evenodd"
     id="letNpathBulbBotSpir2" />
  <path
     fill="#cae8ff"
     d="M 181.878906 188.253906 L 189.976562 190.039062 L 190.582031 190.171875 L 191.0625 190.28125 C 191.714844 190.425781 192.261719 190.769531 192.511719 191.214844 C 192.609375 191.390625 192.707031 191.664062 192.609375 191.976562 C 192.425781 192.53125 191.695312 192.921875 190.824219 192.921875 C 190.714844 192.921875 190.601562 192.894531 190.488281 192.882812 C 190.390625 192.871094 190.277344 192.871094 190.171875 192.847656 L 189.949219 192.796875 L 180.765625 190.769531 L 180.242188 190.65625 L 179.832031 190.5625 C 179.171875 190.417969 178.632812 190.074219 178.382812 189.628906 C 178.238281 189.378906 178.207031 189.113281 178.285156 188.867188 C 178.46875 188.3125 179.199219 187.921875 180.070312 187.921875 C 180.285156 187.921875 180.503906 187.949219 180.714844 187.992188 L 181.28125 188.121094 L 181.875 188.253906 Z M 189.09375 190.339844 C 188.949219 190.304688 188.804688 190.398438 188.769531 190.542969 C 188.738281 190.695312 188.828125 190.835938 188.972656 190.867188 L 190.160156 191.128906 L 190.714844 191.246094 L 191.054688 191.324219 C 191.074219 191.332031 191.09375 191.332031 191.113281 191.332031 C 191.238281 191.332031 191.351562 191.246094 191.378906 191.121094 C 191.410156 190.976562 191.320312 190.828125 191.167969 190.796875 L 190.648438 190.683594 L 190.09375 190.558594 L 189.078125 190.339844 Z M 189.09375 190.339844 "
     fill-opacity="1"
     fill-rule="evenodd"
     id="letNpathBulbBotSpir1" />
  <g
     clip-path="url(#74cad80ae9)"
     id="letNpathBulbBot">
    <path
       fill="#cae8ff"
       d="M 180.707031 191.320312 L 189.757812 193.3125 C 189.015625 194.96875 187.367188 196.128906 185.445312 196.128906 C 182.828125 196.128906 180.703125 193.988281 180.703125 191.359375 C 180.703125 191.347656 180.707031 191.332031 180.707031 191.320312 Z M 184.613281 195.109375 C 184.660156 194.960938 184.574219 194.808594 184.4375 194.769531 C 183.34375 194.4375 182.472656 193.597656 182.105469 192.511719 C 182.050781 192.371094 181.898438 192.300781 181.761719 192.339844 C 181.625 192.386719 181.542969 192.542969 181.589844 192.683594 C 182.019531 193.9375 183.027344 194.910156 184.285156 195.289062 C 184.3125 195.292969 184.335938 195.300781 184.363281 195.300781 C 184.480469 195.300781 184.585938 195.226562 184.621094 195.101562 Z M 184.613281 195.109375 "
       fill-opacity="1"
       fill-rule="evenodd"
       id="path294" />
  </g>
  <g
     clip-path="url(#0f9279ec8c)"
     id="letNpathBulb">
    <path
       fill="#cae8ff"
       d="M 193.421875 175.527344 C 192.070312 177.441406 190.910156 179.097656 190.824219 180.394531 L 190.824219 182.847656 L 191.226562 182.933594 L 191.765625 183.050781 L 192.386719 183.191406 L 192.386719 180.449219 C 192.417969 180.050781 192.6875 179.488281 193.085938 178.828125 C 193.511719 178.109375 194.09375 177.28125 194.691406 176.429688 C 194.875 176.171875 195.027344 175.945312 195.132812 175.800781 C 195.304688 175.554688 195.457031 175.335938 195.574219 175.164062 C 196.273438 174.144531 197.246094 172.535156 197.933594 170.691406 C 198.414062 169.394531 198.753906 167.976562 198.753906 166.570312 C 198.753906 162.933594 197.285156 159.636719 194.910156 157.25 C 192.53125 154.859375 189.257812 153.382812 185.636719 153.382812 C 182.019531 153.382812 178.738281 154.859375 176.367188 157.25 C 173.988281 159.644531 172.519531 162.933594 172.519531 166.570312 C 172.519531 167.984375 172.863281 169.394531 173.34375 170.699219 C 174.03125 172.546875 175.003906 174.148438 175.703125 175.167969 C 175.808594 175.324219 175.960938 175.546875 176.144531 175.804688 C 176.242188 175.953125 176.40625 176.175781 176.585938 176.433594 C 177.066406 177.117188 177.535156 177.785156 177.910156 178.371094 C 178.285156 178.953125 178.582031 179.488281 178.753906 179.945312 L 178.851562 180.203125 L 179.121094 180.265625 L 179.734375 180.394531 L 180.5625 180.582031 L 180.332031 179.761719 C 180.160156 179.15625 179.824219 178.496094 179.378906 177.773438 C 178.941406 177.0625 178.417969 176.324219 177.863281 175.527344 C 177.679688 175.261719 177.527344 175.050781 177.429688 174.910156 C 177.308594 174.738281 177.164062 174.535156 177 174.289062 C 176.453125 173.488281 175.722656 172.300781 175.128906 170.929688 C 174.542969 169.578125 174.089844 168.0625 174.09375 166.570312 C 174.09375 163.367188 175.394531 160.457031 177.480469 158.359375 C 179.570312 156.257812 182.460938 154.953125 185.648438 154.953125 C 188.835938 154.953125 191.722656 156.257812 193.816406 158.359375 C 195.910156 160.464844 197.207031 163.371094 197.207031 166.570312 C 197.207031 167.789062 196.90625 169.03125 196.476562 170.175781 C 195.851562 171.851562 194.941406 173.335938 194.300781 174.28125 C 194.113281 174.558594 193.835938 174.953125 193.566406 175.34375 L 193.441406 175.527344 Z M 193.421875 175.527344 "
       fill-opacity="1"
       fill-rule="nonzero"
       id="path298" />
  </g>
  <g
     clip-path="url(#4f1a59c0f4)"
     id="letNpathEmit">
    <path
       fill="#233dff"
       d="M 185.851562 151.792969 C 186.390625 151.792969 186.832031 151.351562 186.832031 150.808594 L 186.832031 146.867188 C 186.832031 146.320312 186.390625 145.878906 185.851562 145.878906 C 185.3125 145.878906 184.871094 146.320312 184.871094 146.867188 L 184.871094 150.808594 C 184.871094 151.351562 185.3125 151.792969 185.851562 151.792969 Z M 189.601562 152.554688 C 189.097656 152.351562 188.863281 151.765625 189.066406 151.269531 L 190.5625 147.628906 C 190.765625 147.125 191.34375 146.886719 191.839844 147.089844 C 192.339844 147.296875 192.578125 147.878906 192.371094 148.375 L 190.878906 152.019531 C 190.671875 152.523438 190.09375 152.761719 189.601562 152.554688 Z M 181.667969 152.726562 C 182.171875 152.523438 182.40625 151.9375 182.203125 151.441406 L 180.707031 147.800781 C 180.503906 147.296875 179.925781 147.058594 179.429688 147.261719 C 178.929688 147.46875 178.691406 148.050781 178.898438 148.546875 L 180.390625 152.191406 C 180.597656 152.695312 181.175781 152.933594 181.667969 152.726562 Z M 181.667969 152.726562 "
       fill-opacity="1"
       fill-rule="evenodd"
       id="path302" />
  </g>
  <path
     fill="#233dff"
     d="M 185.109375 163.28125 C 185.128906 163.113281 185.277344 163 185.445312 163.019531 C 185.609375 163.042969 185.71875 163.195312 185.699219 163.359375 C 185.660156 163.664062 185.746094 163.957031 185.917969 164.1875 C 186.089844 164.414062 186.347656 164.578125 186.648438 164.617188 C 186.8125 164.636719 186.925781 164.789062 186.90625 164.957031 C 186.886719 165.121094 186.734375 165.234375 186.570312 165.214844 C 186.101562 165.148438 185.707031 164.902344 185.445312 164.550781 C 185.445312 164.546875 185.4375 164.546875 185.4375 164.539062 C 185.070312 164.652344 184.355469 164.757812 183.875 164.113281 C 183.777344 163.980469 183.804688 163.789062 183.9375 163.691406 C 184.066406 163.589844 184.257812 163.617188 184.355469 163.75 C 184.585938 164.054688 184.9375 164.042969 185.167969 163.988281 C 185.101562 163.761719 185.082031 163.523438 185.113281 163.28125 Z M 190.589844 163.957031 Z M 185.714844 161.445312 Z M 185.199219 161.132812 Z M 179.832031 168.355469 Z M 180.226562 165.757812 Z M 180.742188 165.445312 Z M 180.179688 168.84375 Z M 189.96875 168.1875 C 190.296875 167.855469 190.503906 167.398438 190.503906 166.890625 C 190.503906 166.386719 190.296875 165.929688 189.96875 165.589844 C 189.640625 165.261719 189.183594 165.054688 188.679688 165.054688 C 188.511719 165.054688 188.375 164.921875 188.375 164.75 C 188.375 164.585938 188.511719 164.445312 188.679688 164.445312 C 189.351562 164.445312 189.957031 164.71875 190.390625 165.160156 C 190.832031 165.605469 191.101562 166.214844 191.101562 166.882812 C 191.101562 167.070312 191.082031 167.246094 191.042969 167.417969 C 191.226562 167.472656 191.417969 167.507812 191.621094 167.507812 C 192.6875 167.507812 193.566406 166.679688 193.652344 165.625 C 194.113281 165.347656 194.421875 164.835938 194.421875 164.253906 C 194.421875 163.566406 193.988281 162.976562 193.378906 162.757812 C 193.167969 163.152344 192.855469 163.472656 192.484375 163.695312 C 191.953125 164.015625 191.300781 164.128906 190.648438 163.960938 L 190.621094 163.957031 L 190.589844 163.933594 C 190.441406 163.863281 190.378906 163.675781 190.457031 163.53125 C 190.523438 163.40625 190.667969 163.339844 190.796875 163.371094 C 191.285156 163.5 191.78125 163.414062 192.183594 163.171875 C 192.582031 162.933594 192.894531 162.542969 193.019531 162.054688 C 193.085938 161.796875 193.089844 161.53125 193.042969 161.277344 C 192.8125 160.710938 192.371094 160.191406 191.78125 159.847656 C 191.753906 159.84375 191.726562 159.835938 191.699219 159.828125 C 191.636719 159.808594 191.574219 159.777344 191.535156 159.722656 C 191.464844 159.691406 191.386719 159.648438 191.304688 159.625 C 190.460938 159.296875 189.582031 159.351562 188.882812 159.695312 C 188.519531 159.140625 187.894531 158.777344 187.183594 158.777344 C 186.746094 158.777344 186.347656 158.914062 186.015625 159.144531 C 186.078125 159.296875 186.117188 159.457031 186.140625 159.617188 C 186.242188 160.234375 186.109375 160.882812 185.71875 161.433594 C 185.636719 161.550781 185.476562 161.597656 185.34375 161.523438 C 185.199219 161.453125 185.132812 161.265625 185.214844 161.121094 L 185.238281 161.082031 C 185.535156 160.667969 185.636719 160.171875 185.554688 159.714844 C 185.507812 159.449219 185.410156 159.191406 185.253906 158.96875 C 184.921875 158.742188 184.527344 158.609375 184.105469 158.609375 C 183.027344 158.609375 182.136719 159.457031 182.070312 160.53125 C 181.722656 160.246094 181.273438 160.074219 180.792969 160.074219 C 180.714844 160.074219 180.640625 160.082031 180.570312 160.085938 C 180.535156 160.113281 180.503906 160.132812 180.457031 160.140625 C 179.96875 160.265625 179.582031 160.578125 179.34375 160.980469 C 179.109375 161.386719 179.023438 161.882812 179.148438 162.371094 C 179.273438 162.863281 179.582031 163.253906 179.984375 163.492188 C 180.386719 163.730469 180.878906 163.816406 181.367188 163.691406 L 181.40625 163.683594 L 181.445312 163.683594 C 181.609375 163.683594 181.75 163.816406 181.75 163.988281 C 181.75 164.132812 181.644531 164.261719 181.511719 164.285156 C 180.867188 164.445312 180.222656 164.332031 179.6875 164.015625 C 179.152344 163.695312 178.738281 163.171875 178.574219 162.519531 L 178.566406 162.476562 C 178.542969 162.371094 178.527344 162.265625 178.515625 162.160156 C 177.585938 162.351562 176.886719 163.171875 176.886719 164.167969 C 176.886719 164.742188 177.125 165.273438 177.515625 165.644531 C 177.222656 165.996094 177.050781 166.445312 177.050781 166.941406 C 177.050781 167.265625 177.125 167.578125 177.261719 167.851562 C 177.289062 167.871094 177.308594 167.890625 177.328125 167.917969 C 177.621094 168.328125 178.054688 168.578125 178.515625 168.660156 C 178.976562 168.738281 179.464844 168.632812 179.871094 168.339844 C 180.28125 168.050781 180.53125 167.613281 180.609375 167.15625 C 180.6875 166.691406 180.582031 166.199219 180.292969 165.789062 L 180.265625 165.75 C 180.195312 165.597656 180.253906 165.417969 180.398438 165.347656 C 180.53125 165.28125 180.695312 165.320312 180.773438 165.4375 C 181.164062 165.988281 181.292969 166.636719 181.195312 167.253906 C 181.097656 167.871094 180.761719 168.445312 180.214844 168.835938 C 180.140625 168.890625 180.070312 168.9375 179.992188 168.984375 C 179.992188 169.003906 179.992188 169.023438 179.992188 169.042969 C 179.992188 170.175781 180.898438 171.089844 182.027344 171.089844 C 182.625 171.089844 183.164062 170.832031 183.535156 170.414062 L 183.558594 170.378906 C 183.59375 170.394531 183.625 170.414062 183.652344 170.425781 C 183.683594 171.535156 183.335938 172.90625 182.585938 174.546875 C 184.351562 173.515625 185.628906 171.824219 186.425781 169.492188 C 186.464844 169.492188 186.503906 169.5 186.550781 169.5 C 187.128906 169.5 187.636719 169.183594 187.914062 168.71875 C 187.855469 168.3125 187.671875 167.957031 187.398438 167.679688 C 187.070312 167.347656 186.617188 167.140625 186.109375 167.140625 C 185.945312 167.140625 185.804688 167.003906 185.804688 166.835938 C 185.804688 166.671875 185.9375 166.53125 186.109375 166.53125 C 186.78125 166.53125 187.386719 166.804688 187.820312 167.246094 C 188.210938 167.636719 188.46875 168.15625 188.519531 168.738281 C 188.53125 168.746094 188.546875 168.75 188.558594 168.757812 C 188.597656 168.738281 188.652344 168.726562 188.699219 168.726562 C 189.199219 168.726562 189.652344 168.519531 189.988281 168.1875 Z M 187.425781 161.332031 C 187.328125 161.199219 187.355469 161.007812 187.484375 160.910156 C 187.617188 160.808594 187.808594 160.835938 187.90625 160.96875 C 188.136719 161.273438 188.488281 161.257812 188.71875 161.207031 C 188.652344 160.980469 188.632812 160.742188 188.664062 160.496094 C 188.683594 160.332031 188.835938 160.21875 189 160.238281 C 189.164062 160.257812 189.277344 160.410156 189.257812 160.578125 C 189.21875 160.882812 189.304688 161.171875 189.476562 161.40625 C 189.644531 161.628906 189.902344 161.789062 190.207031 161.835938 C 190.371094 161.855469 190.484375 162.007812 190.460938 162.171875 C 190.441406 162.339844 190.292969 162.453125 190.125 162.433594 C 189.660156 162.367188 189.265625 162.121094 189 161.769531 C 189 161.761719 188.992188 161.761719 188.992188 161.757812 C 188.625 161.867188 187.914062 161.976562 187.433594 161.332031 Z M 182.421875 166.910156 C 182.886719 166.976562 183.285156 167.222656 183.546875 167.570312 C 183.546875 167.578125 183.554688 167.578125 183.554688 167.585938 C 183.921875 167.472656 184.632812 167.367188 185.113281 168.007812 C 185.214844 168.140625 185.1875 168.332031 185.054688 168.433594 C 184.921875 168.53125 184.734375 168.507812 184.632812 168.375 C 184.402344 168.070312 184.054688 168.082031 183.824219 168.136719 C 183.890625 168.359375 183.910156 168.597656 183.875 168.84375 C 183.855469 169.007812 183.703125 169.121094 183.539062 169.101562 C 183.375 169.082031 183.265625 168.929688 183.285156 168.765625 C 183.324219 168.460938 183.238281 168.167969 183.066406 167.9375 C 182.894531 167.710938 182.636719 167.550781 182.335938 167.507812 C 182.171875 167.484375 182.058594 167.332031 182.078125 167.167969 C 182.097656 167.003906 182.25 166.890625 182.414062 166.910156 Z M 182.421875 166.910156 "
     fill-opacity="1"
     fill-rule="evenodd"
     id="letNpathBrain" />
  <g
     clip-path="url(#2b71714a37)"
     id="vib01" stroke="none" stroke-width="1" >
    <path stroke="#979797"
      stroke-width="10"
      pathLength="1" fill="#ffffff"
       d="M 120.460938 163.324219 C 120.140625 163.210938 119.714844 163.167969 119.28125 163.132812 C 119.308594 163.109375 119.320312 163.078125 119.320312 163.035156 C 119.074219 163.023438 118.972656 163.109375 118.710938 163.085938 C 118.792969 163.035156 118.726562 162.992188 118.59375 163.015625 C 118.671875 162.949219 118.90625 162.988281 118.898438 163.0625 C 118.949219 163.054688 118.9375 163.011719 118.898438 163.011719 C 119.519531 163.046875 120.15625 162.941406 120.6875 163.046875 C 120.375 162.832031 119.367188 162.839844 118.898438 162.714844 C 118.925781 162.65625 119.132812 162.6875 119.089844 162.761719 C 119.140625 162.738281 119.230469 162.738281 119.238281 162.6875 C 119.652344 162.765625 120.121094 162.796875 120.535156 162.777344 C 121.003906 162.953125 121.636719 163.023438 121.90625 163.335938 C 121.925781 163.539062 121.871094 163.648438 121.910156 163.808594 C 121.789062 164.019531 121.65625 164.222656 121.421875 164.359375 C 121.585938 164.5625 121.683594 164.71875 121.691406 164.929688 C 121.640625 164.96875 121.410156 165.019531 121.578125 165.054688 C 121.5 165.085938 121.417969 165.117188 121.351562 165.15625 C 121.371094 165.21875 121.5625 165.238281 121.464844 165.300781 C 121.335938 165.324219 121.320312 165.265625 121.199219 165.28125 C 121.230469 165.425781 121.507812 165.484375 121.582031 165.675781 C 121.675781 165.90625 121.503906 166.183594 121.511719 166.46875 C 121.140625 166.472656 121.273438 166.835938 120.753906 166.796875 C 121.144531 166.957031 121.71875 167.121094 122.203125 167.136719 C 122.289062 167.234375 122.414062 167.503906 122.207031 167.582031 C 122.25 167.625 122.304688 167.664062 122.359375 167.703125 C 122.28125 167.765625 121.96875 167.707031 122.09375 167.832031 C 121.714844 167.890625 121.222656 167.804688 120.953125 168.011719 C 120.957031 168.078125 121.097656 168.050781 121.144531 168.085938 C 121.15625 168.148438 121.074219 168.230469 121.109375 168.285156 C 121.320312 168.335938 121.214844 168.378906 121.414062 168.382812 C 121.367188 168.449219 121.292969 168.503906 121.148438 168.507812 C 121.265625 168.574219 121.476562 168.570312 121.53125 168.679688 C 121.097656 168.796875 120.90625 168.71875 120.425781 168.738281 C 121.113281 168.863281 121.730469 169.035156 122.292969 169.246094 C 122.300781 169.351562 122.308594 169.460938 122.21875 169.445312 C 122.292969 169.523438 122.347656 169.464844 122.410156 169.417969 C 122.449219 169.632812 122.472656 169.761719 122.679688 169.886719 C 122.605469 170.066406 122.339844 169.996094 122.109375 170.042969 C 122.144531 170.160156 122.195312 170.265625 122.378906 170.289062 C 122.257812 170.515625 121.613281 170.484375 121.390625 170.566406 C 121.476562 170.714844 121.714844 170.59375 121.921875 170.5625 C 121.871094 170.664062 122.007812 170.640625 122 170.710938 C 121.324219 170.738281 121.261719 170.941406 120.554688 170.871094 C 120.539062 171.519531 120.039062 171.855469 119.769531 172.34375 C 119.4375 172.28125 119.292969 172.390625 119.121094 172.496094 C 119.105469 172.566406 119.328125 172.476562 119.3125 172.542969 C 119.015625 172.632812 118.597656 172.617188 118.171875 172.652344 C 117.777344 172.683594 117.441406 172.6875 117.183594 172.585938 C 115.226562 172.832031 113.691406 172.636719 111.628906 172.75 C 111.597656 172.671875 111.757812 172.714844 111.742188 172.652344 C 111.109375 172.648438 110 172.832031 109.386719 172.691406 C 109.261719 172.714844 109.332031 172.613281 109.269531 172.59375 C 108.789062 172.609375 108.355469 172.769531 108.054688 172.601562 C 107.371094 172.566406 106.609375 172.769531 106.113281 172.617188 C 104.113281 172.652344 102.503906 172.742188 100.824219 172.554688 C 99.867188 172.511719 99.089844 172.578125 98.125 172.527344 C 98.257812 172.40625 98.578125 172.40625 98.84375 172.371094 C 98.492188 172.332031 97.921875 172.324219 97.4375 172.359375 C 95.824219 172.472656 94.140625 172.4375 92.492188 172.371094 C 92.417969 172.3125 92.5 172.34375 92.53125 172.292969 C 92.207031 172.214844 91.867188 172.328125 91.578125 172.351562 C 91.507812 172.304688 91.574219 172.289062 91.578125 172.226562 C 91.253906 172.195312 91.347656 172.300781 91.160156 172.328125 C 90.984375 172.351562 91.210938 172.265625 91.085938 172.253906 C 91.003906 172.246094 91.011719 172.292969 91.007812 172.332031 C 90.574219 172.296875 90.222656 172.273438 89.714844 172.316406 C 89.558594 172.328125 89.742188 172.253906 89.636719 172.214844 C 89 172.207031 88.089844 172.351562 87.394531 172.28125 C 87.0625 172.25 86.855469 172.285156 86.480469 172.289062 C 86.160156 172.292969 85.847656 172.160156 85.492188 172.125 C 85.195312 172.09375 84.757812 172.195312 84.3125 172.132812 C 84.320312 172.097656 84.425781 172.121094 84.425781 172.082031 C 83.132812 172.125 81.542969 172.132812 80.316406 172.261719 C 78.839844 172.164062 77.128906 172.40625 75.792969 172.394531 C 75.824219 172.355469 75.886719 172.339844 75.980469 172.34375 C 74.671875 172.242188 72.664062 172.226562 71 172.28125 C 70.839844 172.292969 70.835938 172.40625 70.617188 172.382812 C 70.519531 172.523438 70.210938 172.535156 70.011719 172.585938 C 69.976562 172.59375 69.863281 172.660156 69.820312 172.660156 C 69.214844 172.6875 69.394531 172.226562 69.054688 171.996094 C 68.875 172.070312 68.691406 172.097656 68.523438 172 C 68.535156 171.84375 68.8125 171.855469 68.902344 171.75 C 68.851562 171.714844 68.6875 171.667969 68.671875 171.75 C 68.585938 171.699219 68.589844 171.621094 68.671875 171.578125 C 68.539062 171.5625 68.578125 171.664062 68.445312 171.652344 C 68.429688 171.601562 68.46875 171.585938 68.484375 171.554688 C 68.359375 171.539062 68.363281 171.601562 68.292969 171.554688 C 68.28125 171.398438 68.300781 171.261719 68.441406 171.207031 C 67.675781 171.046875 67.058594 170.644531 66.417969 170.328125 C 66.433594 170.171875 66.628906 170.132812 66.644531 169.976562 C 67.109375 169.886719 67.410156 169.839844 67.972656 169.820312 C 68.0625 169.769531 67.902344 169.679688 68.011719 169.621094 C 68.171875 169.644531 68.394531 169.636719 68.503906 169.515625 C 68.363281 169.480469 68.296875 169.507812 68.125 169.46875 C 68.148438 169.414062 68.25 169.402344 68.273438 169.34375 C 68.035156 169.203125 68.417969 168.980469 68.269531 168.824219 C 68.335938 168.765625 68.484375 168.863281 68.613281 168.84375 C 68.414062 168.769531 68.816406 168.800781 68.878906 168.746094 C 68.863281 168.691406 68.5625 168.800781 68.652344 168.695312 C 68.269531 168.734375 68.382812 168.679688 68.082031 168.699219 C 68.125 168.324219 68.710938 168.175781 69.332031 167.996094 C 69.242188 167.921875 69.101562 167.777344 69.175781 167.675781 C 69.125 167.625 68.964844 167.71875 68.871094 167.726562 C 68.871094 167.652344 68.96875 167.640625 68.984375 167.578125 C 68.894531 167.515625 68.914062 167.613281 68.796875 167.601562 C 68.90625 167.457031 69.113281 167.503906 69.289062 167.425781 C 69.117188 167.332031 68.933594 167.421875 68.71875 167.429688 C 68.734375 167.390625 68.835938 167.40625 68.792969 167.328125 C 68.683594 167.324219 68.71875 167.414062 68.566406 167.378906 C 68.546875 167.304688 68.683594 167.324219 68.640625 167.230469 C 68.445312 167.261719 68.207031 167.285156 68.03125 167.261719 C 68.03125 167.167969 68.164062 167.164062 68.222656 167.109375 C 68.09375 167.070312 68.007812 167.136719 67.839844 167.136719 C 67.824219 167.027344 67.824219 166.914062 68.105469 166.886719 C 68.09375 166.828125 68.109375 166.792969 68.144531 166.761719 C 67.984375 166.691406 67.914062 166.734375 67.570312 166.71875 C 67.511719 166.605469 67.730469 166.523438 67.683594 166.445312 C 67.578125 166.261719 67.367188 166.296875 67.074219 166.300781 C 67.195312 166.199219 67.136719 166.132812 67.261719 166.050781 C 67.070312 165.976562 67.210938 165.882812 67.21875 165.726562 C 67.289062 165.722656 67.300781 165.757812 67.371094 165.75 C 67.460938 165.484375 68.125 165.589844 68.207031 165.324219 C 68.03125 165.273438 68.140625 165.035156 67.976562 164.976562 C 68.1875 164.652344 67.996094 164.066406 68.691406 164.050781 C 68.652344 163.945312 68.527344 163.894531 68.308594 163.90625 C 68.34375 163.792969 68.230469 163.777344 68.082031 163.78125 C 68.140625 163.65625 68.164062 163.648438 68.003906 163.585938 C 68.175781 163.367188 68.132812 163.144531 68.300781 162.839844 C 69.875 162.925781 72.054688 162.921875 73.441406 163 C 73.476562 162.996094 73.46875 162.96875 73.476562 162.949219 C 73.777344 163.085938 74.246094 163.007812 74.542969 162.917969 C 74.523438 162.9375 74.503906 162.957031 74.503906 162.992188 C 74.671875 163.007812 74.71875 162.949219 74.882812 162.964844 C 75.210938 163.015625 76.425781 162.859375 77.203125 162.847656 C 78.058594 162.832031 78.949219 162.714844 79.371094 162.609375 C 79.507812 162.820312 79.941406 162.738281 80.398438 162.722656 C 80.515625 162.714844 80.464844 162.8125 80.550781 162.824219 C 80.785156 162.710938 81.460938 162.882812 81.730469 162.738281 C 81.753906 162.675781 81.714844 162.648438 81.617188 162.664062 C 81.886719 162.578125 82.222656 162.675781 82.527344 162.609375 C 82.503906 162.582031 82.441406 162.582031 82.453125 162.535156 C 82.972656 162.5625 83.523438 162.644531 83.859375 162.773438 C 84.046875 162.722656 84.160156 162.796875 84.316406 162.820312 C 84.769531 162.878906 85.453125 162.761719 85.992188 162.757812 C 87.652344 162.738281 89.28125 162.871094 90.824219 162.769531 C 90.847656 162.796875 90.910156 162.796875 90.898438 162.84375 C 92.105469 162.824219 93.0625 162.738281 94.246094 162.746094 C 94.257812 162.679688 94.167969 162.683594 94.09375 162.671875 C 94.394531 162.644531 94.679688 162.738281 94.929688 162.789062 C 95.195312 162.617188 95.398438 162.8125 95.769531 162.808594 C 95.789062 162.863281 95.695312 162.84375 95.691406 162.882812 C 96.929688 162.96875 98.035156 162.582031 99.304688 162.785156 C 99.355469 162.742188 99.429688 162.714844 99.535156 162.707031 C 99.5 162.867188 99.144531 162.820312 98.964844 162.886719 C 99.546875 162.890625 100.25 162.808594 100.941406 162.945312 C 101.183594 162.710938 101.871094 162.855469 102.425781 162.785156 C 102.4375 162.824219 102.390625 162.828125 102.386719 162.859375 C 102.566406 162.859375 102.675781 162.902344 102.84375 162.90625 C 102.847656 162.820312 102.703125 162.832031 102.578125 162.832031 C 102.882812 162.710938 103.308594 162.921875 103.453125 162.679688 C 103.65625 162.707031 103.796875 162.707031 103.90625 162.625 C 103.917969 162.664062 103.871094 162.667969 103.871094 162.699219 C 104.921875 162.839844 106.121094 162.820312 107.484375 162.824219 C 107.46875 162.726562 107.222656 162.78125 107.140625 162.726562 C 108.433594 162.601562 109.890625 162.96875 111.210938 162.695312 C 111.023438 162.617188 110.597656 162.632812 110.449219 162.601562 C 110.371094 162.589844 110.199219 162.636719 110.183594 162.578125 C 110.617188 162.589844 110.765625 162.515625 111.136719 162.523438 C 111.195312 162.496094 111.214844 162.441406 111.324219 162.445312 C 111.242188 162.5 111.34375 162.519531 111.324219 162.597656 C 111.488281 162.621094 111.535156 162.566406 111.628906 162.542969 C 111.839844 162.652344 112.03125 162.609375 112.277344 162.539062 C 113.597656 162.78125 115.28125 162.566406 116.765625 162.65625 C 116.40625 162.777344 115.875 162.652344 115.550781 162.8125 C 115.617188 162.878906 115.925781 162.777344 115.855469 162.933594 C 116.019531 162.949219 116.007812 162.851562 116.160156 162.859375 C 116.207031 162.890625 116.207031 162.949219 116.160156 162.984375 C 116.46875 162.921875 117.042969 162.933594 117.414062 163.074219 C 117.300781 163.074219 117.1875 163.074219 117.074219 163.074219 C 117.863281 163.136719 119.085938 163.277344 120.003906 163.253906 C 120.085938 163.378906 120.164062 163.257812 120.460938 163.324219 Z M 93.105469 162.902344 C 93.296875 162.890625 93.496094 162.917969 93.335938 163 C 93.492188 163.011719 93.53125 162.945312 93.640625 162.925781 C 93.476562 162.925781 93.546875 162.867188 93.601562 162.824219 C 93.453125 162.917969 93.128906 162.738281 93.105469 162.902344 Z M 111.59375 162.742188 C 111.546875 162.738281 111.515625 162.703125 111.519531 162.765625 C 111.710938 162.761719 111.898438 162.742188 112.011719 162.765625 C 112 162.660156 111.683594 162.675781 111.59375 162.742188 Z M 101.097656 163.367188 C 101.0625 163.457031 101.3125 163.417969 101.289062 163.363281 C 101.195312 163.363281 101.171875 163.320312 101.097656 163.367188 Z M 101.367188 163.414062 C 101.492188 163.398438 101.71875 163.441406 101.785156 163.386719 C 101.582031 163.375 101.496094 163.304688 101.367188 163.414062 Z M 95.707031 164.597656 C 95.816406 164.671875 96.03125 164.578125 96.050781 164.671875 C 96.164062 164.671875 96.242188 164.59375 96.316406 164.644531 C 96.316406 164.609375 96.316406 164.578125 96.316406 164.542969 C 96.125 164.570312 95.867188 164.550781 95.707031 164.597656 Z M 113.519531 165.808594 C 113.632812 165.78125 113.796875 165.789062 113.824219 165.707031 C 113.671875 165.710938 113.488281 165.691406 113.519531 165.808594 Z M 114.355469 165.976562 C 114.882812 165.925781 114.128906 165.902344 114.054688 165.976562 C 114.179688 165.972656 114.277344 165.984375 114.355469 165.976562 Z M 79.863281 167.59375 C 79.894531 167.617188 80.097656 167.621094 80.09375 167.542969 C 79.992188 167.546875 79.867188 167.53125 79.863281 167.59375 Z M 91.210938 168.953125 C 91.261719 168.859375 90.984375 168.855469 90.945312 168.90625 C 91.09375 168.878906 91.042969 168.988281 91.210938 168.953125 Z M 91.820312 168.949219 C 92.15625 168.992188 92.441406 168.945312 92.847656 168.964844 C 92.640625 168.929688 92.03125 168.851562 91.820312 168.949219 Z M 93.796875 168.957031 C 93.738281 168.957031 93.667969 168.960938 93.683594 168.910156 C 93.453125 168.960938 93.105469 168.90625 92.921875 168.914062 C 93.339844 168.996094 93.539062 169.015625 93.796875 168.957031 Z M 89.804688 169.085938 C 89.546875 169.128906 89.179688 169.023438 89.082031 169.117188 C 89.527344 169.183594 90.515625 169.210938 91.023438 169.101562 C 90.621094 169.078125 90.375 169.019531 89.996094 169.0625 C 90.289062 169.152344 89.730469 169.027344 89.730469 169.039062 C 89.769531 169.042969 89.789062 169.066406 89.804688 169.085938 Z M 94.066406 169.054688 C 94.15625 169.054688 94.242188 169.054688 94.332031 169.054688 C 94.347656 168.953125 94.074219 169.015625 94.066406 169.054688 Z M 91.136719 169.101562 C 91.113281 169.101562 91.089844 169.105469 91.097656 169.125 C 91.265625 169.140625 91.785156 169.105469 91.363281 169.101562 C 91.285156 169.046875 91.242188 169.125 91.175781 169.078125 C 91.171875 169.0625 91.167969 169.046875 91.136719 169.050781 C 91.136719 169.070312 91.136719 169.085938 91.136719 169.101562 Z M 88.96875 169.265625 C 88.929688 169.316406 88.828125 169.324219 88.78125 169.367188 C 89.609375 169.40625 91.019531 169.371094 91.976562 169.34375 C 91.128906 169.210938 89.96875 169.351562 88.96875 169.265625 Z M 116.292969 170.257812 C 116.683594 170.414062 117.25 170.472656 117.738281 170.445312 C 117.238281 170.421875 116.691406 170.179688 116.292969 170.257812 Z M 114.617188 170.519531 C 114.742188 170.59375 115.0625 170.578125 115.191406 170.515625 C 115.179688 170.570312 115.199219 170.605469 115.265625 170.613281 C 115.332031 170.5625 115.238281 170.566406 115.304688 170.511719 C 115.09375 170.414062 114.871094 170.464844 114.617188 170.519531 Z M 113.933594 170.546875 C 114.085938 170.539062 114.144531 170.589844 114.316406 170.570312 C 114.300781 170.445312 113.9375 170.496094 113.933594 170.546875 Z M 117.246094 170.746094 C 117.371094 170.769531 117.480469 170.765625 117.703125 170.769531 C 117.699219 170.65625 117.371094 170.726562 117.246094 170.746094 Z M 83.359375 171.890625 C 83.265625 171.933594 82.988281 171.847656 82.863281 171.917969 C 82.949219 171.996094 83.304688 171.980469 83.359375 171.890625 Z M 99.90625 172.019531 C 99.769531 172.039062 99.695312 171.957031 99.605469 172.019531 C 99.746094 172.132812 100.0625 172.097656 100.328125 172.089844 C 100.753906 172.074219 101.15625 172.011719 101.582031 172.054688 C 101.175781 171.917969 100.222656 171.996094 99.90625 172.019531 Z M 102.191406 172.027344 C 102.359375 172.054688 102.75 172.027344 102.988281 171.96875 C 102.710938 172 102.230469 171.875 102.191406 172.027344 Z M 104.511719 171.957031 C 104.503906 172.070312 104.140625 171.949219 104.132812 172.0625 C 104.320312 172.101562 104.457031 172.066406 104.625 172.03125 C 104.644531 172.097656 104.65625 172.117188 104.742188 172.179688 C 105.53125 171.960938 106.300781 172.308594 107.0625 172.089844 C 106.222656 171.980469 105.347656 172.101562 104.511719 171.957031 Z M 97.511719 172.109375 C 97.316406 172.109375 97.074219 172.003906 96.980469 172.164062 C 97.664062 172.203125 98.34375 172.183594 99.03125 172.050781 C 98.539062 172.046875 97.988281 172.109375 97.511719 172.109375 Z M 97.511719 172.109375 "
       fill-opacity="1"
       fill-rule="evenodd"
       id="path308" />
  </g>
  <g
     clip-path="url(#912b54e3c0)"
     id="vib02" stroke="none" stroke-width="1">
    <path
       stroke="#979797"
      stroke-width="10" pathLength="1" fill="#ffffff"
       d="M 120.460938 175.945312 C 120.140625 175.832031 119.714844 175.789062 119.28125 175.753906 C 119.308594 175.730469 119.320312 175.695312 119.320312 175.652344 C 119.074219 175.644531 118.972656 175.726562 118.710938 175.707031 C 118.792969 175.65625 118.726562 175.613281 118.59375 175.632812 C 118.671875 175.570312 118.90625 175.609375 118.898438 175.679688 C 118.949219 175.675781 118.9375 175.632812 118.898438 175.632812 C 119.519531 175.664062 120.15625 175.5625 120.6875 175.667969 C 120.375 175.453125 119.367188 175.457031 118.898438 175.332031 C 118.925781 175.277344 119.132812 175.308594 119.089844 175.382812 C 119.140625 175.355469 119.230469 175.355469 119.238281 175.304688 C 119.652344 175.386719 120.121094 175.417969 120.535156 175.398438 C 121.003906 175.574219 121.636719 175.644531 121.90625 175.957031 C 121.925781 176.160156 121.871094 176.265625 121.910156 176.429688 C 121.789062 176.640625 121.65625 176.84375 121.421875 176.980469 C 121.585938 177.183594 121.683594 177.335938 121.691406 177.546875 C 121.640625 177.589844 121.410156 177.640625 121.578125 177.675781 C 121.5 177.707031 121.417969 177.734375 121.351562 177.773438 C 121.371094 177.839844 121.5625 177.855469 121.464844 177.921875 C 121.335938 177.945312 121.320312 177.886719 121.199219 177.898438 C 121.230469 178.046875 121.507812 178.105469 121.582031 178.292969 C 121.675781 178.527344 121.503906 178.804688 121.511719 179.089844 C 121.140625 179.09375 121.273438 179.457031 120.753906 179.417969 C 121.144531 179.578125 121.71875 179.742188 122.203125 179.753906 C 122.289062 179.855469 122.414062 180.121094 122.207031 180.203125 C 122.25 180.246094 122.304688 180.285156 122.359375 180.324219 C 122.28125 180.386719 121.96875 180.328125 122.09375 180.453125 C 121.714844 180.511719 121.222656 180.421875 120.953125 180.632812 C 120.957031 180.695312 121.097656 180.671875 121.144531 180.707031 C 121.15625 180.769531 121.074219 180.851562 121.109375 180.90625 C 121.320312 180.957031 121.214844 181 121.414062 181.003906 C 121.367188 181.070312 121.292969 181.125 121.148438 181.128906 C 121.265625 181.191406 121.476562 181.191406 121.53125 181.300781 C 121.097656 181.417969 120.90625 181.335938 120.425781 181.359375 C 121.113281 181.484375 121.730469 181.65625 122.292969 181.867188 C 122.300781 181.972656 122.308594 182.082031 122.21875 182.066406 C 122.292969 182.140625 122.347656 182.085938 122.410156 182.039062 C 122.449219 182.253906 122.472656 182.382812 122.679688 182.507812 C 122.605469 182.683594 122.339844 182.617188 122.109375 182.660156 C 122.144531 182.78125 122.195312 182.886719 122.378906 182.90625 C 122.257812 183.132812 121.613281 183.101562 121.390625 183.1875 C 121.476562 183.335938 121.714844 183.214844 121.921875 183.183594 C 121.871094 183.285156 122.007812 183.261719 122 183.332031 C 121.324219 183.359375 121.261719 183.5625 120.554688 183.492188 C 120.539062 184.140625 120.039062 184.476562 119.769531 184.964844 C 119.4375 184.902344 119.292969 185.011719 119.121094 185.117188 C 119.105469 185.1875 119.328125 185.09375 119.3125 185.164062 C 119.015625 185.25 118.597656 185.238281 118.171875 185.273438 C 117.777344 185.304688 117.441406 185.304688 117.183594 185.207031 C 115.226562 185.453125 113.691406 185.257812 111.628906 185.371094 C 111.597656 185.292969 111.757812 185.335938 111.742188 185.269531 C 111.109375 185.269531 110 185.453125 109.386719 185.3125 C 109.261719 185.335938 109.332031 185.230469 109.269531 185.214844 C 108.789062 185.230469 108.355469 185.386719 108.054688 185.222656 C 107.371094 185.183594 106.609375 185.386719 106.113281 185.238281 C 104.113281 185.269531 102.503906 185.359375 100.824219 185.175781 C 99.867188 185.132812 99.089844 185.195312 98.125 185.148438 C 98.257812 185.027344 98.578125 185.027344 98.84375 184.992188 C 98.492188 184.953125 97.921875 184.945312 97.4375 184.976562 C 95.824219 185.09375 94.140625 185.054688 92.492188 184.988281 C 92.417969 184.933594 92.5 184.960938 92.53125 184.914062 C 92.207031 184.835938 91.867188 184.945312 91.578125 184.972656 C 91.507812 184.925781 91.574219 184.910156 91.578125 184.847656 C 91.253906 184.816406 91.347656 184.921875 91.160156 184.949219 C 90.984375 184.972656 91.210938 184.886719 91.085938 184.875 C 91.003906 184.863281 91.011719 184.910156 91.007812 184.949219 C 90.574219 184.917969 90.222656 184.894531 89.714844 184.9375 C 89.558594 184.949219 89.742188 184.875 89.636719 184.835938 C 89 184.828125 88.089844 184.972656 87.394531 184.902344 C 87.0625 184.871094 86.855469 184.90625 86.480469 184.910156 C 86.160156 184.914062 85.847656 184.78125 85.492188 184.742188 C 85.195312 184.710938 84.757812 184.8125 84.3125 184.753906 C 84.320312 184.714844 84.425781 184.742188 84.425781 184.703125 C 83.132812 184.746094 81.542969 184.753906 80.316406 184.878906 C 78.839844 184.785156 77.128906 185.027344 75.792969 185.011719 C 75.824219 184.976562 75.886719 184.957031 75.980469 184.960938 C 74.671875 184.863281 72.664062 184.84375 71 184.898438 C 70.839844 184.914062 70.835938 185.027344 70.617188 185 C 70.519531 185.144531 70.210938 185.152344 70.011719 185.203125 C 69.976562 185.214844 69.863281 185.28125 69.820312 185.28125 C 69.214844 185.304688 69.394531 184.847656 69.054688 184.617188 C 68.875 184.6875 68.691406 184.71875 68.523438 184.621094 C 68.535156 184.464844 68.8125 184.476562 68.902344 184.367188 C 68.851562 184.335938 68.6875 184.289062 68.671875 184.371094 C 68.585938 184.320312 68.589844 184.242188 68.671875 184.195312 C 68.539062 184.183594 68.578125 184.285156 68.445312 184.273438 C 68.429688 184.222656 68.46875 184.207031 68.484375 184.171875 C 68.359375 184.160156 68.363281 184.21875 68.292969 184.175781 C 68.28125 184.019531 68.300781 183.882812 68.441406 183.824219 C 67.675781 183.667969 67.058594 183.265625 66.417969 182.949219 C 66.433594 182.792969 66.628906 182.753906 66.644531 182.597656 C 67.109375 182.507812 67.410156 182.460938 67.972656 182.4375 C 68.0625 182.390625 67.902344 182.300781 68.011719 182.238281 C 68.171875 182.261719 68.394531 182.257812 68.503906 182.136719 C 68.363281 182.101562 68.296875 182.128906 68.125 182.089844 C 68.148438 182.03125 68.25 182.023438 68.273438 181.964844 C 68.035156 181.824219 68.417969 181.601562 68.269531 181.441406 C 68.335938 181.386719 68.484375 181.480469 68.613281 181.464844 C 68.414062 181.390625 68.816406 181.421875 68.878906 181.363281 C 68.863281 181.3125 68.5625 181.421875 68.652344 181.316406 C 68.269531 181.355469 68.382812 181.300781 68.082031 181.320312 C 68.125 180.941406 68.710938 180.796875 69.332031 180.617188 C 69.242188 180.539062 69.101562 180.398438 69.175781 180.292969 C 69.125 180.246094 68.964844 180.335938 68.871094 180.347656 C 68.871094 180.273438 68.96875 180.261719 68.984375 180.195312 C 68.894531 180.136719 68.914062 180.234375 68.796875 180.222656 C 68.90625 180.078125 69.113281 180.125 69.289062 180.046875 C 69.117188 179.949219 68.933594 180.042969 68.71875 180.050781 C 68.734375 180.011719 68.835938 180.027344 68.792969 179.949219 C 68.683594 179.945312 68.71875 180.035156 68.566406 180 C 68.546875 179.921875 68.683594 179.945312 68.640625 179.851562 C 68.445312 179.878906 68.207031 179.90625 68.03125 179.878906 C 68.03125 179.789062 68.164062 179.785156 68.222656 179.730469 C 68.09375 179.691406 68.007812 179.757812 67.839844 179.757812 C 67.824219 179.648438 67.824219 179.535156 68.105469 179.507812 C 68.09375 179.449219 68.109375 179.414062 68.144531 179.382812 C 67.984375 179.3125 67.914062 179.355469 67.570312 179.335938 C 67.511719 179.226562 67.730469 179.144531 67.683594 179.0625 C 67.578125 178.882812 67.367188 178.917969 67.074219 178.917969 C 67.195312 178.820312 67.136719 178.753906 67.261719 178.667969 C 67.070312 178.59375 67.210938 178.503906 67.21875 178.347656 C 67.289062 178.34375 67.300781 178.375 67.371094 178.371094 C 67.460938 178.105469 68.125 178.210938 68.207031 177.941406 C 68.03125 177.894531 68.140625 177.65625 67.976562 177.597656 C 68.1875 177.269531 67.996094 176.6875 68.691406 176.671875 C 68.652344 176.566406 68.527344 176.515625 68.308594 176.527344 C 68.34375 176.410156 68.230469 176.398438 68.082031 176.402344 C 68.140625 176.277344 68.164062 176.269531 68.003906 176.207031 C 68.175781 175.988281 68.132812 175.765625 68.300781 175.457031 C 69.875 175.542969 72.054688 175.539062 73.441406 175.617188 C 73.476562 175.617188 73.46875 175.589844 73.476562 175.570312 C 73.777344 175.707031 74.246094 175.625 74.542969 175.535156 C 74.523438 175.554688 74.503906 175.578125 74.503906 175.609375 C 74.671875 175.628906 74.71875 175.566406 74.882812 175.582031 C 75.210938 175.636719 76.425781 175.480469 77.203125 175.46875 C 78.058594 175.453125 78.949219 175.335938 79.371094 175.226562 C 79.507812 175.441406 79.941406 175.359375 80.398438 175.34375 C 80.515625 175.335938 80.464844 175.433594 80.550781 175.441406 C 80.785156 175.332031 81.460938 175.503906 81.730469 175.359375 C 81.753906 175.292969 81.714844 175.269531 81.617188 175.285156 C 81.886719 175.199219 82.222656 175.292969 82.527344 175.230469 C 82.503906 175.203125 82.441406 175.203125 82.453125 175.15625 C 82.972656 175.183594 83.523438 175.265625 83.859375 175.394531 C 84.046875 175.34375 84.160156 175.417969 84.316406 175.4375 C 84.769531 175.5 85.453125 175.382812 85.992188 175.378906 C 87.652344 175.355469 89.28125 175.492188 90.824219 175.390625 C 90.847656 175.417969 90.910156 175.417969 90.898438 175.464844 C 92.105469 175.445312 93.0625 175.355469 94.246094 175.367188 C 94.257812 175.300781 94.167969 175.304688 94.09375 175.292969 C 94.394531 175.265625 94.679688 175.359375 94.929688 175.410156 C 95.195312 175.238281 95.398438 175.433594 95.769531 175.429688 C 95.789062 175.484375 95.695312 175.464844 95.691406 175.503906 C 96.929688 175.589844 98.035156 175.203125 99.304688 175.402344 C 99.355469 175.359375 99.429688 175.335938 99.535156 175.328125 C 99.5 175.488281 99.144531 175.441406 98.964844 175.503906 C 99.546875 175.507812 100.25 175.429688 100.941406 175.566406 C 101.183594 175.332031 101.871094 175.472656 102.425781 175.40625 C 102.4375 175.445312 102.390625 175.449219 102.386719 175.480469 C 102.566406 175.476562 102.675781 175.523438 102.84375 175.527344 C 102.847656 175.441406 102.703125 175.453125 102.578125 175.453125 C 102.882812 175.332031 103.308594 175.542969 103.453125 175.296875 C 103.65625 175.328125 103.796875 175.328125 103.90625 175.246094 C 103.917969 175.285156 103.871094 175.289062 103.871094 175.320312 C 104.921875 175.457031 106.121094 175.441406 107.484375 175.441406 C 107.46875 175.347656 107.222656 175.402344 107.140625 175.347656 C 108.433594 175.222656 109.890625 175.589844 111.210938 175.316406 C 111.023438 175.238281 110.597656 175.253906 110.449219 175.222656 C 110.371094 175.207031 110.199219 175.253906 110.183594 175.199219 C 110.617188 175.210938 110.765625 175.136719 111.136719 175.144531 C 111.195312 175.113281 111.214844 175.0625 111.324219 175.066406 C 111.242188 175.121094 111.34375 175.136719 111.324219 175.214844 C 111.488281 175.238281 111.535156 175.1875 111.628906 175.164062 C 111.839844 175.273438 112.03125 175.230469 112.277344 175.160156 C 113.597656 175.402344 115.28125 175.1875 116.765625 175.273438 C 116.40625 175.398438 115.875 175.273438 115.550781 175.433594 C 115.617188 175.496094 115.925781 175.398438 115.855469 175.554688 C 116.019531 175.570312 116.007812 175.472656 116.160156 175.480469 C 116.207031 175.511719 116.207031 175.570312 116.160156 175.601562 C 116.46875 175.542969 117.042969 175.554688 117.414062 175.691406 C 117.300781 175.695312 117.1875 175.695312 117.074219 175.695312 C 117.863281 175.753906 119.085938 175.898438 120.003906 175.871094 C 120.085938 176 120.164062 175.875 120.460938 175.945312 Z M 93.105469 175.523438 C 93.296875 175.511719 93.496094 175.539062 93.335938 175.621094 C 93.492188 175.628906 93.53125 175.566406 93.640625 175.542969 C 93.476562 175.542969 93.546875 175.488281 93.601562 175.445312 C 93.453125 175.535156 93.128906 175.359375 93.105469 175.523438 Z M 111.59375 175.363281 C 111.546875 175.359375 111.515625 175.324219 111.519531 175.386719 C 111.710938 175.382812 111.898438 175.359375 112.011719 175.382812 C 112 175.277344 111.683594 175.296875 111.59375 175.363281 Z M 101.097656 175.984375 C 101.0625 176.078125 101.3125 176.039062 101.289062 175.984375 C 101.195312 175.984375 101.171875 175.9375 101.097656 175.984375 Z M 101.367188 176.035156 C 101.492188 176.015625 101.71875 176.0625 101.785156 176.007812 C 101.582031 175.992188 101.496094 175.925781 101.367188 176.035156 Z M 95.707031 177.21875 C 95.816406 177.292969 96.03125 177.199219 96.050781 177.289062 C 96.164062 177.292969 96.242188 177.214844 96.316406 177.265625 C 96.316406 177.230469 96.316406 177.199219 96.316406 177.164062 C 96.125 177.191406 95.867188 177.171875 95.707031 177.21875 Z M 113.519531 178.429688 C 113.632812 178.402344 113.796875 178.40625 113.824219 178.328125 C 113.671875 178.328125 113.488281 178.308594 113.519531 178.429688 Z M 114.355469 178.597656 C 114.882812 178.546875 114.128906 178.523438 114.054688 178.597656 C 114.179688 178.59375 114.277344 178.601562 114.355469 178.597656 Z M 79.863281 180.214844 C 79.894531 180.234375 80.097656 180.238281 80.09375 180.164062 C 79.992188 180.164062 79.867188 180.152344 79.863281 180.214844 Z M 91.210938 181.574219 C 91.261719 181.480469 90.984375 181.476562 90.945312 181.523438 C 91.09375 181.5 91.042969 181.609375 91.210938 181.574219 Z M 91.820312 181.566406 C 92.15625 181.609375 92.441406 181.566406 92.847656 181.585938 C 92.640625 181.550781 92.03125 181.472656 91.820312 181.566406 Z M 93.796875 181.578125 C 93.738281 181.578125 93.667969 181.582031 93.683594 181.53125 C 93.453125 181.582031 93.105469 181.527344 92.921875 181.535156 C 93.339844 181.617188 93.539062 181.636719 93.796875 181.578125 Z M 89.804688 181.707031 C 89.546875 181.746094 89.179688 181.644531 89.082031 181.738281 C 89.527344 181.804688 90.515625 181.832031 91.023438 181.722656 C 90.621094 181.699219 90.375 181.636719 89.996094 181.679688 C 90.289062 181.769531 89.730469 181.648438 89.730469 181.65625 C 89.769531 181.664062 89.789062 181.683594 89.804688 181.707031 Z M 94.066406 181.675781 C 94.15625 181.675781 94.242188 181.675781 94.332031 181.671875 C 94.347656 181.574219 94.074219 181.632812 94.066406 181.675781 Z M 91.136719 181.722656 C 91.113281 181.722656 91.089844 181.726562 91.097656 181.746094 C 91.265625 181.757812 91.785156 181.726562 91.363281 181.71875 C 91.285156 181.667969 91.242188 181.742188 91.175781 181.695312 C 91.171875 181.683594 91.167969 181.667969 91.136719 181.671875 C 91.136719 181.6875 91.136719 181.707031 91.136719 181.722656 Z M 88.96875 181.886719 C 88.929688 181.9375 88.828125 181.945312 88.78125 181.988281 C 89.609375 182.027344 91.019531 181.992188 91.976562 181.964844 C 91.128906 181.832031 89.96875 181.972656 88.96875 181.886719 Z M 116.292969 182.878906 C 116.683594 183.035156 117.25 183.09375 117.738281 183.066406 C 117.238281 183.042969 116.691406 182.800781 116.292969 182.878906 Z M 114.617188 183.136719 C 114.742188 183.214844 115.0625 183.199219 115.191406 183.132812 C 115.179688 183.191406 115.199219 183.226562 115.265625 183.234375 C 115.332031 183.183594 115.238281 183.183594 115.304688 183.132812 C 115.09375 183.035156 114.871094 183.085938 114.617188 183.136719 Z M 113.933594 183.167969 C 114.085938 183.160156 114.144531 183.210938 114.316406 183.191406 C 114.300781 183.0625 113.9375 183.117188 113.933594 183.167969 Z M 117.246094 183.367188 C 117.371094 183.386719 117.480469 183.382812 117.703125 183.390625 C 117.699219 183.273438 117.371094 183.347656 117.246094 183.367188 Z M 83.359375 184.511719 C 83.265625 184.554688 82.988281 184.464844 82.863281 184.539062 C 82.949219 184.613281 83.304688 184.601562 83.359375 184.511719 Z M 99.90625 184.636719 C 99.769531 184.65625 99.695312 184.578125 99.605469 184.640625 C 99.746094 184.753906 100.0625 184.71875 100.328125 184.710938 C 100.753906 184.695312 101.15625 184.632812 101.582031 184.675781 C 101.175781 184.539062 100.222656 184.613281 99.90625 184.636719 Z M 102.191406 184.644531 C 102.359375 184.675781 102.75 184.648438 102.988281 184.589844 C 102.710938 184.621094 102.230469 184.496094 102.191406 184.644531 Z M 104.511719 184.578125 C 104.503906 184.6875 104.140625 184.570312 104.132812 184.679688 C 104.320312 184.71875 104.457031 184.6875 104.625 184.652344 C 104.644531 184.71875 104.65625 184.734375 104.742188 184.800781 C 105.53125 184.582031 106.300781 184.929688 107.0625 184.710938 C 106.222656 184.601562 105.347656 184.722656 104.511719 184.578125 Z M 97.511719 184.730469 C 97.316406 184.730469 97.074219 184.625 96.980469 184.785156 C 97.664062 184.824219 98.34375 184.804688 99.03125 184.667969 C 98.539062 184.667969 97.988281 184.730469 97.511719 184.730469 Z M 97.511719 184.730469 "
       fill-opacity="1"
       fill-rule="evenodd"
       id="path312" />
  </g>
  <g
     clip-path="url(#7c5b92f7cc)"
     id="vib03" stroke="none" stroke-width="1">
    <path
       stroke="#979797"
      stroke-width="10" pathLength="1" fill="#ffffff"
       d="M 120.460938 188.5625 C 120.140625 188.453125 119.714844 188.410156 119.28125 188.375 C 119.308594 188.351562 119.320312 188.316406 119.320312 188.273438 C 119.074219 188.265625 118.972656 188.347656 118.710938 188.328125 C 118.792969 188.277344 118.726562 188.234375 118.59375 188.253906 C 118.671875 188.191406 118.90625 188.230469 118.898438 188.300781 C 118.949219 188.292969 118.9375 188.253906 118.898438 188.253906 C 119.519531 188.285156 120.15625 188.183594 120.6875 188.289062 C 120.375 188.074219 119.367188 188.078125 118.898438 187.953125 C 118.925781 187.894531 119.132812 187.929688 119.089844 188.003906 C 119.140625 187.976562 119.230469 187.976562 119.238281 187.925781 C 119.652344 188.007812 120.121094 188.039062 120.535156 188.015625 C 121.003906 188.195312 121.636719 188.265625 121.90625 188.578125 C 121.925781 188.78125 121.871094 188.886719 121.910156 189.050781 C 121.789062 189.261719 121.65625 189.460938 121.421875 189.601562 C 121.585938 189.804688 121.683594 189.957031 121.691406 190.167969 C 121.640625 190.210938 121.410156 190.261719 121.578125 190.292969 C 121.5 190.324219 121.417969 190.355469 121.351562 190.394531 C 121.371094 190.460938 121.5625 190.476562 121.464844 190.542969 C 121.335938 190.5625 121.320312 190.507812 121.199219 190.519531 C 121.230469 190.664062 121.507812 190.726562 121.582031 190.914062 C 121.675781 191.144531 121.503906 191.421875 121.511719 191.710938 C 121.140625 191.710938 121.273438 192.078125 120.753906 192.039062 C 121.144531 192.199219 121.71875 192.359375 122.203125 192.375 C 122.289062 192.476562 122.414062 192.742188 122.207031 192.820312 C 122.25 192.867188 122.304688 192.90625 122.359375 192.945312 C 122.28125 193.007812 121.96875 192.949219 122.09375 193.070312 C 121.714844 193.132812 121.222656 193.042969 120.953125 193.253906 C 120.957031 193.316406 121.097656 193.292969 121.144531 193.328125 C 121.15625 193.390625 121.074219 193.472656 121.109375 193.527344 C 121.320312 193.578125 121.214844 193.621094 121.414062 193.621094 C 121.367188 193.691406 121.292969 193.742188 121.148438 193.75 C 121.265625 193.8125 121.476562 193.8125 121.53125 193.917969 C 121.097656 194.039062 120.90625 193.957031 120.425781 193.976562 C 121.113281 194.101562 121.730469 194.277344 122.292969 194.484375 C 122.300781 194.59375 122.308594 194.703125 122.21875 194.683594 C 122.292969 194.761719 122.347656 194.703125 122.410156 194.660156 C 122.449219 194.871094 122.472656 195.003906 122.679688 195.128906 C 122.605469 195.304688 122.339844 195.234375 122.109375 195.28125 C 122.144531 195.402344 122.195312 195.507812 122.378906 195.527344 C 122.257812 195.753906 121.613281 195.722656 121.390625 195.808594 C 121.476562 195.957031 121.714844 195.832031 121.921875 195.804688 C 121.871094 195.90625 122.007812 195.882812 122 195.953125 C 121.324219 195.976562 121.261719 196.179688 120.554688 196.113281 C 120.539062 196.757812 120.039062 197.097656 119.769531 197.582031 C 119.4375 197.523438 119.292969 197.632812 119.121094 197.738281 C 119.105469 197.804688 119.328125 197.714844 119.3125 197.785156 C 119.015625 197.871094 118.597656 197.859375 118.171875 197.894531 C 117.777344 197.925781 117.441406 197.925781 117.183594 197.824219 C 115.226562 198.074219 113.691406 197.878906 111.628906 197.992188 C 111.597656 197.910156 111.757812 197.957031 111.742188 197.890625 C 111.109375 197.886719 110 198.074219 109.386719 197.933594 C 109.261719 197.957031 109.332031 197.851562 109.269531 197.835938 C 108.789062 197.847656 108.355469 198.007812 108.054688 197.84375 C 107.371094 197.804688 106.609375 198.007812 106.113281 197.859375 C 104.113281 197.890625 102.503906 197.980469 100.824219 197.796875 C 99.867188 197.75 99.089844 197.816406 98.125 197.765625 C 98.257812 197.648438 98.578125 197.648438 98.84375 197.613281 C 98.492188 197.570312 97.921875 197.5625 97.4375 197.597656 C 95.824219 197.714844 94.140625 197.675781 92.492188 197.609375 C 92.417969 197.554688 92.5 197.582031 92.53125 197.535156 C 92.207031 197.457031 91.867188 197.566406 91.578125 197.59375 C 91.507812 197.546875 91.574219 197.53125 91.578125 197.46875 C 91.253906 197.4375 91.347656 197.542969 91.160156 197.570312 C 90.984375 197.59375 91.210938 197.503906 91.085938 197.496094 C 91.003906 197.484375 91.011719 197.53125 91.007812 197.570312 C 90.574219 197.535156 90.222656 197.515625 89.714844 197.554688 C 89.558594 197.570312 89.742188 197.492188 89.636719 197.457031 C 89 197.449219 88.089844 197.59375 87.394531 197.523438 C 87.0625 197.492188 86.855469 197.527344 86.480469 197.53125 C 86.160156 197.53125 85.847656 197.402344 85.492188 197.363281 C 85.195312 197.332031 84.757812 197.433594 84.3125 197.371094 C 84.320312 197.335938 84.425781 197.363281 84.425781 197.320312 C 83.132812 197.367188 81.542969 197.371094 80.316406 197.5 C 78.839844 197.40625 77.128906 197.648438 75.792969 197.632812 C 75.824219 197.597656 75.886719 197.578125 75.980469 197.582031 C 74.671875 197.484375 72.664062 197.464844 71 197.519531 C 70.839844 197.535156 70.835938 197.648438 70.617188 197.621094 C 70.519531 197.765625 70.210938 197.773438 70.011719 197.824219 C 69.976562 197.835938 69.863281 197.898438 69.820312 197.902344 C 69.214844 197.925781 69.394531 197.46875 69.054688 197.234375 C 68.875 197.308594 68.691406 197.335938 68.523438 197.238281 C 68.535156 197.082031 68.8125 197.097656 68.902344 196.988281 C 68.851562 196.953125 68.6875 196.910156 68.671875 196.992188 C 68.585938 196.941406 68.589844 196.863281 68.671875 196.816406 C 68.539062 196.804688 68.578125 196.90625 68.445312 196.894531 C 68.429688 196.839844 68.46875 196.828125 68.484375 196.792969 C 68.359375 196.78125 68.363281 196.839844 68.292969 196.792969 C 68.28125 196.640625 68.300781 196.503906 68.441406 196.445312 C 67.675781 196.289062 67.058594 195.886719 66.417969 195.566406 C 66.433594 195.414062 66.628906 195.375 66.644531 195.21875 C 67.109375 195.128906 67.410156 195.082031 67.972656 195.058594 C 68.0625 195.011719 67.902344 194.921875 68.011719 194.859375 C 68.171875 194.882812 68.394531 194.875 68.503906 194.757812 C 68.363281 194.722656 68.296875 194.75 68.125 194.710938 C 68.148438 194.652344 68.25 194.644531 68.273438 194.585938 C 68.035156 194.441406 68.417969 194.222656 68.269531 194.0625 C 68.335938 194.007812 68.484375 194.101562 68.613281 194.085938 C 68.414062 194.007812 68.816406 194.042969 68.878906 193.984375 C 68.863281 193.933594 68.5625 194.039062 68.652344 193.9375 C 68.269531 193.976562 68.382812 193.921875 68.082031 193.941406 C 68.125 193.5625 68.710938 193.417969 69.332031 193.238281 C 69.242188 193.160156 69.101562 193.015625 69.175781 192.914062 C 69.125 192.867188 68.964844 192.957031 68.871094 192.964844 C 68.871094 192.890625 68.96875 192.882812 68.984375 192.816406 C 68.894531 192.757812 68.914062 192.855469 68.796875 192.84375 C 68.90625 192.695312 69.113281 192.742188 69.289062 192.664062 C 69.117188 192.570312 68.933594 192.660156 68.71875 192.671875 C 68.734375 192.628906 68.835938 192.648438 68.792969 192.570312 C 68.683594 192.566406 68.71875 192.65625 68.566406 192.621094 C 68.546875 192.542969 68.683594 192.5625 68.640625 192.472656 C 68.445312 192.5 68.207031 192.523438 68.03125 192.5 C 68.03125 192.410156 68.164062 192.40625 68.222656 192.351562 C 68.09375 192.308594 68.007812 192.375 67.839844 192.378906 C 67.824219 192.269531 67.824219 192.152344 68.105469 192.128906 C 68.09375 192.070312 68.109375 192.03125 68.144531 192.003906 C 67.984375 191.933594 67.914062 191.976562 67.570312 191.957031 C 67.511719 191.847656 67.730469 191.761719 67.683594 191.683594 C 67.578125 191.503906 67.367188 191.535156 67.074219 191.539062 C 67.195312 191.4375 67.136719 191.375 67.261719 191.289062 C 67.070312 191.214844 67.210938 191.125 67.21875 190.96875 C 67.289062 190.964844 67.300781 190.996094 67.371094 190.992188 C 67.460938 190.726562 68.125 190.832031 68.207031 190.5625 C 68.03125 190.511719 68.140625 190.273438 67.976562 190.214844 C 68.1875 189.890625 67.996094 189.308594 68.691406 189.292969 C 68.652344 189.1875 68.527344 189.136719 68.308594 189.144531 C 68.34375 189.03125 68.230469 189.015625 68.082031 189.023438 C 68.140625 188.898438 68.164062 188.886719 68.003906 188.824219 C 68.175781 188.605469 68.132812 188.386719 68.300781 188.078125 C 69.875 188.164062 72.054688 188.160156 73.441406 188.238281 C 73.476562 188.238281 73.46875 188.207031 73.476562 188.1875 C 73.777344 188.328125 74.246094 188.246094 74.542969 188.15625 C 74.523438 188.175781 74.503906 188.195312 74.503906 188.230469 C 74.671875 188.246094 74.71875 188.1875 74.882812 188.203125 C 75.210938 188.257812 76.425781 188.101562 77.203125 188.085938 C 78.058594 188.074219 78.949219 187.957031 79.371094 187.847656 C 79.507812 188.0625 79.941406 187.980469 80.398438 187.964844 C 80.515625 187.953125 80.464844 188.054688 80.550781 188.0625 C 80.785156 187.953125 81.460938 188.121094 81.730469 187.980469 C 81.753906 187.914062 81.714844 187.890625 81.617188 187.90625 C 81.886719 187.816406 82.222656 187.914062 82.527344 187.847656 C 82.503906 187.824219 82.441406 187.824219 82.453125 187.773438 C 82.972656 187.804688 83.523438 187.886719 83.859375 188.011719 C 84.046875 187.960938 84.160156 188.039062 84.316406 188.058594 C 84.769531 188.117188 85.453125 188.003906 85.992188 187.996094 C 87.652344 187.976562 89.28125 188.113281 90.824219 188.011719 C 90.847656 188.035156 90.910156 188.035156 90.898438 188.085938 C 92.105469 188.066406 93.0625 187.976562 94.246094 187.988281 C 94.257812 187.921875 94.167969 187.921875 94.09375 187.914062 C 94.394531 187.886719 94.679688 187.980469 94.929688 188.03125 C 95.195312 187.855469 95.398438 188.054688 95.769531 188.050781 C 95.789062 188.105469 95.695312 188.085938 95.691406 188.125 C 96.929688 188.210938 98.035156 187.824219 99.304688 188.023438 C 99.355469 187.980469 99.429688 187.957031 99.535156 187.949219 C 99.5 188.105469 99.144531 188.0625 98.964844 188.125 C 99.546875 188.128906 100.25 188.046875 100.941406 188.1875 C 101.183594 187.953125 101.871094 188.09375 102.425781 188.027344 C 102.4375 188.066406 102.390625 188.070312 102.386719 188.101562 C 102.566406 188.097656 102.675781 188.140625 102.84375 188.148438 C 102.847656 188.0625 102.703125 188.074219 102.578125 188.074219 C 102.882812 187.953125 103.308594 188.164062 103.453125 187.917969 C 103.65625 187.949219 103.796875 187.949219 103.90625 187.867188 C 103.917969 187.90625 103.871094 187.910156 103.871094 187.941406 C 104.921875 188.078125 106.121094 188.0625 107.484375 188.0625 C 107.46875 187.96875 107.222656 188.019531 107.140625 187.964844 C 108.433594 187.84375 109.890625 188.210938 111.210938 187.9375 C 111.023438 187.859375 110.597656 187.875 110.449219 187.84375 C 110.371094 187.828125 110.199219 187.875 110.183594 187.820312 C 110.617188 187.828125 110.765625 187.757812 111.136719 187.761719 C 111.195312 187.734375 111.214844 187.683594 111.324219 187.6875 C 111.242188 187.738281 111.34375 187.757812 111.324219 187.835938 C 111.488281 187.859375 111.535156 187.808594 111.628906 187.785156 C 111.839844 187.894531 112.03125 187.851562 112.277344 187.78125 C 113.597656 188.019531 115.28125 187.808594 116.765625 187.894531 C 116.40625 188.019531 115.875 187.894531 115.550781 188.054688 C 115.617188 188.117188 115.925781 188.019531 115.855469 188.175781 C 116.019531 188.191406 116.007812 188.09375 116.160156 188.097656 C 116.207031 188.132812 116.207031 188.191406 116.160156 188.222656 C 116.46875 188.164062 117.042969 188.175781 117.414062 188.3125 C 117.300781 188.3125 117.1875 188.316406 117.074219 188.316406 C 117.863281 188.375 119.085938 188.519531 120.003906 188.492188 C 120.085938 188.621094 120.164062 188.496094 120.460938 188.5625 Z M 93.105469 188.144531 C 93.296875 188.128906 93.496094 188.160156 93.335938 188.242188 C 93.492188 188.25 93.53125 188.1875 93.640625 188.164062 C 93.476562 188.164062 93.546875 188.109375 93.601562 188.066406 C 93.453125 188.15625 93.128906 187.980469 93.105469 188.144531 Z M 111.59375 187.984375 C 111.546875 187.976562 111.515625 187.945312 111.519531 188.007812 C 111.710938 188.003906 111.898438 187.980469 112.011719 188.003906 C 112 187.898438 111.683594 187.917969 111.59375 187.984375 Z M 101.097656 188.605469 C 101.0625 188.699219 101.3125 188.65625 101.289062 188.605469 C 101.195312 188.601562 101.171875 188.558594 101.097656 188.605469 Z M 101.367188 188.652344 C 101.492188 188.636719 101.71875 188.683594 101.785156 188.625 C 101.582031 188.613281 101.496094 188.546875 101.367188 188.652344 Z M 95.707031 189.839844 C 95.816406 189.914062 96.03125 189.820312 96.050781 189.910156 C 96.164062 189.910156 96.242188 189.835938 96.316406 189.882812 C 96.316406 189.851562 96.316406 189.816406 96.316406 189.785156 C 96.125 189.8125 95.867188 189.792969 95.707031 189.839844 Z M 113.519531 191.046875 C 113.632812 191.023438 113.796875 191.027344 113.824219 190.945312 C 113.671875 190.949219 113.488281 190.929688 113.519531 191.046875 Z M 114.355469 191.214844 C 114.882812 191.167969 114.128906 191.144531 114.054688 191.21875 C 114.179688 191.210938 114.277344 191.222656 114.355469 191.214844 Z M 79.863281 192.835938 C 79.894531 192.855469 80.097656 192.859375 80.09375 192.785156 C 79.992188 192.785156 79.867188 192.773438 79.863281 192.835938 Z M 91.210938 194.191406 C 91.261719 194.101562 90.984375 194.097656 90.945312 194.144531 C 91.09375 194.121094 91.042969 194.230469 91.210938 194.191406 Z M 91.820312 194.1875 C 92.15625 194.230469 92.441406 194.1875 92.847656 194.207031 C 92.640625 194.171875 92.03125 194.09375 91.820312 194.1875 Z M 93.796875 194.199219 C 93.738281 194.195312 93.667969 194.203125 93.683594 194.148438 C 93.453125 194.203125 93.105469 194.144531 92.921875 194.15625 C 93.339844 194.238281 93.539062 194.253906 93.796875 194.199219 Z M 89.804688 194.328125 C 89.546875 194.367188 89.179688 194.261719 89.082031 194.359375 C 89.527344 194.425781 90.515625 194.449219 91.023438 194.34375 C 90.621094 194.316406 90.375 194.257812 89.996094 194.300781 C 90.289062 194.390625 89.730469 194.269531 89.730469 194.277344 C 89.769531 194.285156 89.789062 194.304688 89.804688 194.328125 Z M 94.066406 194.296875 C 94.15625 194.296875 94.242188 194.292969 94.332031 194.292969 C 94.347656 194.195312 94.074219 194.253906 94.066406 194.296875 Z M 91.136719 194.34375 C 91.113281 194.34375 91.089844 194.347656 91.097656 194.367188 C 91.265625 194.378906 91.785156 194.347656 91.363281 194.339844 C 91.285156 194.285156 91.242188 194.363281 91.175781 194.316406 C 91.171875 194.300781 91.167969 194.289062 91.136719 194.292969 C 91.136719 194.308594 91.136719 194.324219 91.136719 194.34375 Z M 88.96875 194.507812 C 88.929688 194.558594 88.828125 194.566406 88.78125 194.609375 C 89.609375 194.648438 91.019531 194.613281 91.976562 194.585938 C 91.128906 194.449219 89.96875 194.59375 88.96875 194.507812 Z M 116.292969 195.496094 C 116.683594 195.65625 117.25 195.714844 117.738281 195.6875 C 117.238281 195.664062 116.691406 195.421875 116.292969 195.496094 Z M 114.617188 195.757812 C 114.742188 195.832031 115.0625 195.816406 115.191406 195.753906 C 115.179688 195.8125 115.199219 195.847656 115.265625 195.851562 C 115.332031 195.800781 115.238281 195.804688 115.304688 195.753906 C 115.09375 195.65625 114.871094 195.707031 114.617188 195.757812 Z M 113.933594 195.789062 C 114.085938 195.78125 114.144531 195.832031 114.316406 195.8125 C 114.300781 195.683594 113.9375 195.738281 113.933594 195.789062 Z M 117.246094 195.988281 C 117.371094 196.007812 117.480469 196.003906 117.703125 196.007812 C 117.699219 195.894531 117.371094 195.964844 117.246094 195.988281 Z M 83.359375 197.132812 C 83.265625 197.175781 82.988281 197.085938 82.863281 197.160156 C 82.949219 197.234375 83.304688 197.222656 83.359375 197.132812 Z M 99.90625 197.257812 C 99.769531 197.277344 99.695312 197.199219 99.605469 197.261719 C 99.746094 197.375 100.0625 197.339844 100.328125 197.328125 C 100.753906 197.316406 101.15625 197.253906 101.582031 197.296875 C 101.175781 197.160156 100.222656 197.234375 99.90625 197.257812 Z M 102.191406 197.265625 C 102.359375 197.296875 102.75 197.269531 102.988281 197.210938 C 102.710938 197.238281 102.230469 197.117188 102.191406 197.265625 Z M 104.511719 197.199219 C 104.503906 197.308594 104.140625 197.191406 104.132812 197.300781 C 104.320312 197.339844 104.457031 197.308594 104.625 197.273438 C 104.644531 197.339844 104.65625 197.355469 104.742188 197.421875 C 105.53125 197.203125 106.300781 197.550781 107.0625 197.328125 C 106.222656 197.222656 105.347656 197.34375 104.511719 197.199219 Z M 97.511719 197.351562 C 97.316406 197.351562 97.074219 197.246094 96.980469 197.402344 C 97.664062 197.445312 98.34375 197.425781 99.03125 197.289062 C 98.539062 197.289062 97.988281 197.347656 97.511719 197.351562 Z M 97.511719 197.351562 "
       fill-opacity="1"
       fill-rule="evenodd"
       id="path316" />
  </g>
  <g
     clip-path="url(#380222aade)"
     id="nam01">
    <path
       fill="#e04b32"
       d="M 96.613281 243.382812 C 96.785156 243.464844 96.960938 243.445312 96.875 243.214844 C 96.785156 242.945312 96.894531 242.738281 96.984375 242.464844 C 97.199219 241.882812 97.484375 241.257812 97.484375 240.652344 C 97.484375 240.007812 97.832031 239.527344 97.941406 238.964844 C 98.070312 238.296875 98.136719 237.570312 97.964844 236.941406 C 97.789062 236.296875 98.09375 235.652344 97.855469 235.109375 C 97.550781 234.421875 97.746094 233.734375 97.8125 233.085938 C 97.875 232.484375 97.484375 231.898438 97.875 231.273438 C 98.007812 231.085938 97.59375 230.628906 97.550781 230.292969 C 97.484375 229.773438 97.441406 229.230469 97.550781 228.730469 C 97.703125 228.105469 97.65625 227.503906 97.613281 226.855469 C 97.527344 225.230469 97.484375 223.605469 97.460938 221.980469 C 97.441406 221.105469 97.550781 220.25 97.503906 219.375 C 97.375 217.375 97.441406 215.371094 97.417969 213.394531 C 97.613281 211.640625 97.398438 209.890625 97.308594 208.140625 C 97.246094 206.910156 97.484375 205.683594 97.046875 204.472656 C 97.179688 204.054688 97.15625 203.660156 97.15625 203.222656 C 97.089844 201.242188 97.070312 199.242188 97.046875 197.261719 C 97.046875 196.429688 97.136719 195.59375 96.875 194.78125 C 96.699219 194.28125 96.742188 193.761719 96.9375 193.238281 C 97.15625 192.675781 97.089844 192.113281 96.742188 191.59375 C 96.699219 191.449219 96.613281 191.28125 96.65625 191.136719 C 97.003906 189.78125 96.875 188.425781 96.65625 187.070312 C 96.613281 186.820312 96.503906 186.488281 96.613281 186.300781 C 96.9375 185.714844 96.65625 185.175781 96.65625 184.632812 C 96.65625 184.050781 96.722656 183.488281 96.570312 182.902344 C 96.480469 182.609375 96.460938 182.277344 96.503906 181.964844 C 96.613281 180.921875 96.570312 179.882812 96.503906 178.839844 C 96.4375 177.421875 96.523438 176.003906 96.371094 174.585938 C 96.15625 172.710938 96.113281 170.816406 96.113281 168.941406 C 96.113281 165 95.699219 161.082031 95.523438 157.144531 C 95.5 156.726562 95.546875 156.207031 95.328125 155.914062 C 94.804688 155.246094 94.914062 154.476562 94.652344 153.453125 C 94.542969 158.289062 94.085938 162.769531 94.304688 167.292969 C 94.414062 169.378906 94.238281 171.480469 94.171875 173.566406 C 94.152344 174.359375 94.019531 175.148438 94.0625 175.921875 C 94.128906 177.753906 94.347656 179.566406 94.019531 181.402344 C 93.953125 181.796875 93.976562 182.257812 94.0625 182.652344 C 94.171875 183.234375 94.128906 183.820312 94.019531 184.382812 C 93.867188 185.027344 94.476562 185.589844 94.128906 186.238281 C 94.28125 187.382812 93.910156 188.53125 94.261719 189.675781 C 94.28125 191.324219 93.800781 192.96875 94.152344 194.636719 C 93.867188 195.199219 94.195312 195.78125 94.152344 196.324219 C 94.105469 196.929688 94.042969 197.53125 94.019531 198.160156 C 94 199.011719 94.238281 199.804688 94.261719 200.636719 C 94.304688 201.804688 93.648438 202.953125 94.214844 204.140625 C 93.867188 204.910156 94.195312 205.683594 94.238281 206.453125 C 94.261719 206.871094 94.324219 207.347656 94.128906 207.683594 C 93.78125 208.285156 93.933594 208.871094 94 209.476562 C 94.019531 209.683594 94.195312 209.914062 94.128906 210.078125 C 93.738281 211.078125 94.238281 212.015625 94.261719 212.996094 C 93.933594 214.058594 93.800781 215.121094 94.214844 216.207031 C 94.347656 217.0625 94.042969 217.914062 94.214844 218.769531 C 94.261719 219 94.105469 219.269531 94.042969 219.519531 C 94 219.769531 93.890625 220.042969 93.933594 220.292969 C 94.085938 221.042969 93.824219 221.75 93.847656 222.480469 C 93.867188 223.1875 93.976562 223.898438 93.910156 224.625 C 93.847656 225.292969 93.714844 226 93.78125 226.625 C 93.847656 227.355469 93.738281 228.105469 93.847656 228.816406 C 94.019531 229.917969 94.0625 231.003906 93.910156 232.109375 C 93.78125 233.234375 94.171875 234.421875 93.519531 235.503906 C 93.5625 235.589844 93.585938 235.671875 93.605469 235.753906 C 93.671875 235.777344 93.714844 235.839844 93.738281 235.878906 C 93.800781 236.003906 93.800781 236.171875 93.800781 236.316406 C 93.800781 236.402344 93.738281 236.503906 93.671875 236.566406 C 93.496094 236.714844 93.453125 236.609375 93.410156 236.503906 C 93.367188 236.546875 93.34375 236.589844 93.300781 236.628906 C 93.234375 236.691406 93.34375 236.941406 93.433594 237.046875 C 93.628906 237.253906 93.738281 237.421875 93.695312 237.734375 C 93.628906 238.402344 93.695312 239.046875 93.519531 239.714844 C 93.28125 240.652344 93.5625 241.570312 93.847656 242.488281 C 93.933594 242.757812 94.128906 242.988281 94.433594 242.925781 C 95.195312 242.757812 95.023438 243.550781 95.414062 243.757812 C 95.804688 243.464844 96.113281 243.113281 96.613281 243.382812 Z M 94.980469 193.199219 C 95.023438 193.136719 95.085938 193.09375 95.132812 193.03125 C 95.085938 193.09375 95.023438 193.136719 94.980469 193.199219 Z M 95.328125 215.621094 C 95.285156 215.539062 95.238281 215.457031 95.195312 215.394531 C 95.238281 215.457031 95.285156 215.539062 95.328125 215.621094 Z M 95.175781 202.328125 C 95.195312 202.515625 95.195312 202.703125 95.21875 202.910156 C 95.195312 202.679688 95.175781 202.515625 95.175781 202.328125 Z M 95.023438 198.867188 C 95.066406 198.804688 95.132812 198.742188 95.152344 198.699219 C 95.132812 198.761719 95.066406 198.824219 95.023438 198.867188 Z M 95.023438 198.867188 "
       fill-opacity="1"
       fill-rule="nonzero"
       id="path320" />
  </g>
  <g
     clip-path="url(#059c80d937)"
     id="symArrF2.1">
    <path
       fill="#e04b32"
       d="M 268.882812 188.8125 L 268.871094 206.757812 L 281.132812 197.804688 Z M 268.882812 188.8125 "
       fill-opacity="1"
       fill-rule="nonzero"
       id="path324" />
  </g>
  <g
     clip-path="url(#50f3cdb2b9)"
     id="symArrF2.2">
    <path
       fill="#e04b32"
       d="M 273.007812 189.078125 L 284.898438 197.804688 L 273 206.484375 L 273.007812 189.078125 M 273.007812 188.792969 C 272.964844 188.792969 272.921875 188.800781 272.878906 188.820312 C 272.789062 188.871094 272.726562 188.96875 272.726562 189.078125 L 272.71875 206.484375 C 272.71875 206.59375 272.777344 206.691406 272.875 206.742188 C 272.914062 206.761719 272.957031 206.769531 273 206.769531 C 273.054688 206.769531 273.113281 206.75 273.160156 206.714844 L 285.058594 198.03125 C 285.128906 197.972656 285.179688 197.886719 285.179688 197.804688 C 285.179688 197.710938 285.136719 197.625 285.058594 197.574219 L 273.175781 188.851562 C 273.125 188.8125 273.070312 188.792969 273.007812 188.792969 Z M 273.007812 188.792969 "
       fill-opacity="1"
       fill-rule="nonzero"
       id="path328" />
  </g>
  <g
     clip-path="url(#081d610eb1)"
     id="symArrF2.3">
    <path
       fill="#e04b32"
       d="M 276.953125 189.089844 L 288.839844 197.816406 L 276.941406 206.5 L 276.953125 189.089844 M 276.953125 188.808594 C 276.914062 188.808594 276.871094 188.8125 276.828125 188.835938 C 276.738281 188.886719 276.675781 188.984375 276.675781 189.089844 L 276.660156 206.5 C 276.660156 206.605469 276.714844 206.707031 276.8125 206.757812 C 276.855469 206.777344 276.898438 206.785156 276.941406 206.785156 C 276.996094 206.785156 277.050781 206.761719 277.101562 206.726562 L 289 198.042969 C 289.070312 197.988281 289.121094 197.902344 289.121094 197.816406 C 289.121094 197.726562 289.078125 197.640625 289 197.589844 L 277.121094 188.863281 C 277.074219 188.828125 277.011719 188.808594 276.953125 188.808594 Z M 276.953125 188.808594 "
       fill-opacity="1"
       fill-rule="nonzero"
       id="path332" />
  </g>
  <g
     fill="#233dff"
     fill-opacity="1"
     id="letT">
    <g
       transform="translate(296.915597, 202.523047)"
       id="g340">
      <g
         id="g338">
        <path
           d="M 0.4375 -9.140625 L 0.4375 -11.21875 L 9.28125 -11.21875 L 9.28125 -9.140625 L 6.21875 -9.140625 L 6.21875 0 L 3.484375 0 L 3.484375 -9.140625 Z M 0.4375 -9.140625 "
           id="path336" />
      </g>
    </g>
  </g>
  <g
     fill="#233dff"
     fill-opacity="1"
     id="letE">
    <g
       transform="translate(306.629149, 202.523047)"
       id="g348">
      <g
         id="g346">
        <path
           d="M 4.984375 0.109375 C 3.679688 0.109375 2.613281 -0.304688 1.78125 -1.140625 C 0.957031 -1.972656 0.546875 -3.082031 0.546875 -4.46875 C 0.546875 -5.851562 0.957031 -6.957031 1.78125 -7.78125 C 2.601562 -8.601562 3.671875 -9.015625 4.984375 -9.015625 C 6.296875 -9.015625 7.382812 -8.609375 8.25 -7.796875 C 9.113281 -6.984375 9.546875 -5.859375 9.546875 -4.421875 C 9.546875 -4.117188 9.523438 -3.832031 9.484375 -3.5625 L 3.34375 -3.5625 C 3.394531 -3.164062 3.566406 -2.84375 3.859375 -2.59375 C 4.160156 -2.34375 4.484375 -2.21875 4.828125 -2.21875 C 5.179688 -2.21875 5.441406 -2.25 5.609375 -2.3125 C 5.773438 -2.382812 5.898438 -2.457031 5.984375 -2.53125 C 6.066406 -2.601562 6.171875 -2.71875 6.296875 -2.875 L 9.25 -2.875 C 9 -1.976562 8.488281 -1.253906 7.71875 -0.703125 C 6.945312 -0.160156 6.035156 0.109375 4.984375 0.109375 Z M 6.703125 -5.28125 C 6.660156 -5.6875 6.476562 -6.019531 6.15625 -6.28125 C 5.832031 -6.550781 5.453125 -6.6875 5.015625 -6.6875 C 4.578125 -6.6875 4.207031 -6.550781 3.90625 -6.28125 C 3.613281 -6.019531 3.429688 -5.6875 3.359375 -5.28125 Z M 6.703125 -5.28125 "
           id="path344" />
      </g>
    </g>
  </g>
  <g
     fill="#233dff"
     fill-opacity="1"
     id="letC">
    <g
       transform="translate(316.726129, 202.523047)"
       id="g356">
      <g
         id="g354">
        <path
           d="M 1.78125 -1.125 C 0.957031 -1.957031 0.546875 -3.066406 0.546875 -4.453125 C 0.546875 -5.835938 0.957031 -6.941406 1.78125 -7.765625 C 2.601562 -8.597656 3.671875 -9.015625 4.984375 -9.015625 C 6.078125 -9.015625 7 -8.742188 7.75 -8.203125 C 8.507812 -7.671875 9.007812 -6.898438 9.25 -5.890625 L 6.296875 -5.890625 C 6.046875 -6.429688 5.628906 -6.703125 5.046875 -6.703125 C 4.460938 -6.703125 4.03125 -6.492188 3.75 -6.078125 C 3.46875 -5.671875 3.328125 -5.128906 3.328125 -4.453125 C 3.328125 -3.785156 3.46875 -3.242188 3.75 -2.828125 C 4.03125 -2.421875 4.441406 -2.21875 4.984375 -2.21875 C 5.328125 -2.21875 5.59375 -2.273438 5.78125 -2.390625 C 5.976562 -2.515625 6.148438 -2.722656 6.296875 -3.015625 L 9.25 -3.015625 C 9.007812 -2.054688 8.503906 -1.296875 7.734375 -0.734375 C 6.960938 -0.171875 6.046875 0.109375 4.984375 0.109375 C 3.671875 0.109375 2.601562 -0.300781 1.78125 -1.125 Z M 1.78125 -1.125 "
           id="path352" />
      </g>
    </g>
  </g>
  <g
     fill="#233dff"
     fill-opacity="1"
     id="letH2">
    <g
       transform="translate(326.311869, 202.523047)"
       id="g364">
      <g
         id="g362">
        <path
           d="M 3.9375 -11.828125 L 3.9375 -7.609375 C 4.5 -8.546875 5.398438 -9.015625 6.640625 -9.015625 C 7.660156 -9.015625 8.484375 -8.671875 9.109375 -7.984375 C 9.742188 -7.304688 10.0625 -6.378906 10.0625 -5.203125 L 10.0625 0 L 7.359375 0 L 7.359375 -4.84375 C 7.359375 -5.414062 7.203125 -5.859375 6.890625 -6.171875 C 6.585938 -6.492188 6.171875 -6.65625 5.640625 -6.65625 C 5.109375 -6.65625 4.691406 -6.492188 4.390625 -6.171875 C 4.085938 -5.859375 3.9375 -5.414062 3.9375 -4.84375 L 3.9375 0 L 1.203125 0 L 1.203125 -11.828125 Z M 3.9375 -11.828125 "
           id="path360" />
      </g>
    </g>
  </g>
  <g
     fill="#f4f6fc"
     fill-opacity="1"
     id="letA">
    <g
       transform="translate(142.521265, 181.234026)"
       id="g372">
      <g
         id="g370">
        <path
           d="M 18.84375 0 L 17.4375 -4.265625 L 8.3125 -4.265625 L 6.90625 0 L 0.328125 0 L 9.15625 -25.46875 L 16.671875 -25.46875 L 25.46875 0 Z M 9.875 -8.96875 L 15.875 -8.96875 L 12.875 -18.015625 Z M 9.875 -8.96875 "
           id="path657" />
      </g>
    </g>
  </g>
  <g
     clip-path="url(#c5c0b25a3b)"
     id="symArrF1.1">
    <path
       fill="#e04b32"
       d="M 248.542969 188.8125 L 248.527344 206.757812 L 260.792969 197.804688 Z M 248.542969 188.8125 "
       fill-opacity="1"
       fill-rule="nonzero"
       id="path376" />
  </g>
  <g
     clip-path="url(#8290cd2e10)"
     id="symArrF1.2">
    <path
       fill="#e04b32"
       d="M 252.664062 189.078125 L 264.558594 197.804688 L 252.65625 206.484375 L 252.664062 189.078125 M 252.664062 188.792969 C 252.621094 188.792969 252.582031 188.800781 252.539062 188.820312 C 252.449219 188.871094 252.382812 188.96875 252.382812 189.078125 L 252.378906 206.484375 C 252.378906 206.59375 252.433594 206.691406 252.53125 206.742188 C 252.574219 206.761719 252.617188 206.769531 252.65625 206.769531 C 252.714844 206.769531 252.769531 206.75 252.820312 206.714844 L 264.71875 198.03125 C 264.789062 197.972656 264.835938 197.886719 264.835938 197.804688 C 264.835938 197.710938 264.796875 197.625 264.71875 197.574219 L 252.832031 188.851562 C 252.785156 188.8125 252.726562 188.792969 252.664062 188.792969 Z M 252.664062 188.792969 "
       fill-opacity="1"
       fill-rule="nonzero"
       id="path380" />
  </g>
  <g
     clip-path="url(#095b1132d1)"
     id="symArrF1.3">
    <path
       fill="#e04b32"
       d="M 256.613281 189.089844 L 268.496094 197.816406 L 256.597656 206.5 L 256.613281 189.089844 M 256.613281 188.808594 C 256.570312 188.808594 256.527344 188.8125 256.488281 188.835938 C 256.394531 188.886719 256.332031 188.984375 256.332031 189.089844 L 256.320312 206.5 C 256.320312 206.605469 256.375 206.707031 256.472656 206.757812 C 256.515625 206.777344 256.554688 206.785156 256.597656 206.785156 C 256.65625 206.785156 256.710938 206.761719 256.757812 206.726562 L 268.660156 198.042969 C 268.730469 197.988281 268.777344 197.902344 268.777344 197.816406 C 268.777344 197.726562 268.734375 197.640625 268.660156 197.589844 L 256.78125 188.863281 C 256.730469 188.828125 256.667969 188.808594 256.613281 188.808594 Z M 256.613281 188.808594 "
       fill-opacity="1"
       fill-rule="nonzero"
       id="path384" />
  </g>
</svg>
