<svg xmlns="http://www.w3.org/2000/svg" xmlns:xlink="http://www.w3.org/1999/xlink" width="500" zoomAndPan="magnify" viewBox="0 0 375 374.999991" height="500" preserveAspectRatio="xMidYMid meet" version="1.0"><defs><g/><clipPath id="e659a76311"><path d="M 180 157 L 238.691406 157 L 238.691406 212 L 180 212 Z M 180 157 " clip-rule="nonzero"/></clipPath></defs><g clip-path="url(#e659a76311)"><path fill="#3871c1" d="M 231.355469 197.15625 C 228.773438 197.117188 226.480469 198.414062 225.132812 200.410156 C 223.140625 199.269531 220.917969 197.769531 218.804688 195.875 C 220.8125 193.480469 221.828125 190.269531 221.34375 186.933594 C 221.183594 185.820312 220.863281 184.773438 220.414062 183.804688 C 220.480469 183.726562 220.550781 183.648438 220.617188 183.566406 C 223.671875 179.929688 225.625 175.871094 226.855469 172.503906 C 227.433594 172.558594 228.03125 172.546875 228.632812 172.457031 C 232.664062 171.867188 235.457031 168.105469 234.867188 164.054688 C 234.277344 160.007812 230.527344 157.207031 226.496094 157.796875 C 222.464844 158.390625 219.675781 162.152344 220.265625 166.199219 C 220.640625 168.765625 222.28125 170.832031 224.460938 171.847656 C 223.347656 174.839844 221.632812 178.382812 219.058594 181.585938 C 216.640625 178.492188 212.691406 176.753906 208.542969 177.363281 C 202.375 178.269531 198.109375 184.023438 199.011719 190.214844 C 199.039062 190.402344 199.070312 190.585938 199.105469 190.769531 C 197.007812 190.746094 194.8125 190.515625 192.523438 190.082031 C 192.585938 188.320312 191.875 186.554688 190.429688 185.332031 C 187.941406 183.222656 184.21875 183.542969 182.121094 186.046875 C 180.023438 188.546875 180.34375 192.28125 182.832031 194.390625 C 185.324219 196.496094 189.042969 196.175781 191.140625 193.675781 C 191.460938 193.296875 191.722656 192.886719 191.929688 192.464844 C 194.707031 193 197.363281 193.257812 199.886719 193.230469 C 201.902344 197.730469 206.707031 200.539062 211.8125 199.785156 C 213.773438 199.5 215.542969 198.71875 217.015625 197.589844 C 219.386719 199.75 221.886719 201.425781 224.105469 202.679688 C 223.957031 203.246094 223.871094 203.835938 223.863281 204.449219 C 223.800781 208.539062 227.050781 211.90625 231.125 211.96875 C 235.199219 212.035156 238.554688 208.769531 238.617188 204.679688 C 238.679688 200.589844 235.429688 197.21875 231.355469 197.15625 " fill-opacity="1" fill-rule="nonzero"/></g><path fill="#51ade5" d="M 138.042969 185.410156 C 135.953125 188.921875 137.089844 193.472656 140.589844 195.574219 C 144.085938 197.671875 148.613281 196.53125 150.707031 193.019531 C 152.035156 190.792969 152.058594 188.152344 151.011719 185.980469 C 152.992188 184.816406 155.394531 183.636719 158.085938 182.75 C 159.148438 185.6875 161.40625 188.179688 164.53125 189.425781 C 165.570312 189.839844 166.632812 190.085938 167.695312 190.183594 C 167.726562 190.277344 167.761719 190.378906 167.796875 190.476562 C 169.40625 194.949219 171.929688 198.679688 174.222656 201.433594 C 173.882812 201.910156 173.59375 202.433594 173.371094 203 C 171.863281 206.804688 173.714844 211.109375 177.5 212.621094 C 181.289062 214.132812 185.578125 212.277344 187.082031 208.472656 C 188.589844 204.671875 186.738281 200.363281 182.949219 198.851562 C 180.550781 197.894531 177.949219 198.292969 175.980469 199.679688 C 173.960938 197.214844 171.761719 193.953125 170.285156 190.109375 C 174.160156 189.554688 177.636719 186.992188 179.1875 183.078125 C 181.488281 177.261719 178.660156 170.675781 172.867188 168.363281 C 172.691406 168.292969 172.515625 168.226562 172.339844 168.167969 C 173.410156 166.355469 174.707031 164.5625 176.226562 162.789062 C 177.710938 163.722656 179.59375 163.988281 181.367188 163.34375 C 184.429688 162.230469 186.015625 158.835938 184.90625 155.761719 C 183.796875 152.6875 180.417969 151.09375 177.355469 152.207031 C 174.292969 153.320312 172.707031 156.714844 173.816406 159.789062 C 173.984375 160.257812 174.203125 160.6875 174.46875 161.078125 C 172.613281 163.226562 171.066406 165.410156 169.828125 167.617188 C 164.9375 167.121094 160.117188 169.894531 158.210938 174.707031 C 157.476562 176.558594 157.265625 178.488281 157.503906 180.332031 C 154.453125 181.3125 151.757812 182.652344 149.570312 183.953125 C 149.15625 183.539062 148.6875 183.171875 148.164062 182.859375 C 144.667969 180.757812 140.136719 181.902344 138.042969 185.410156 " fill-opacity="1" fill-rule="nonzero"/><path fill="#2c3892" d="M 207.492188 117.75 C 205.507812 114.175781 201.015625 112.890625 197.457031 114.878906 C 193.894531 116.871094 192.617188 121.382812 194.601562 124.957031 C 195.855469 127.222656 198.121094 128.566406 200.519531 128.742188 C 200.527344 131.042969 200.347656 133.726562 199.769531 136.507812 C 196.703125 135.960938 193.425781 136.679688 190.789062 138.773438 C 189.910156 139.472656 189.167969 140.273438 188.554688 141.148438 C 188.453125 141.128906 188.347656 141.105469 188.25 141.085938 C 183.585938 140.253906 179.105469 140.582031 175.585938 141.195312 C 175.34375 140.664062 175.035156 140.152344 174.660156 139.671875 C 172.132812 136.460938 167.492188 135.917969 164.296875 138.453125 C 161.097656 140.992188 160.554688 145.652344 163.082031 148.859375 C 165.609375 152.070312 170.25 152.617188 173.445312 150.078125 C 175.472656 148.472656 176.429688 146.007812 176.21875 143.605469 C 179.355469 143.078125 183.265625 142.796875 187.316406 143.4375 C 185.859375 147.082031 186.332031 151.386719 188.933594 154.691406 C 192.796875 159.601562 199.894531 160.4375 204.785156 156.554688 C 204.933594 156.4375 205.078125 156.316406 205.214844 156.195312 C 206.242188 158.03125 207.144531 160.054688 207.914062 162.261719 C 206.363281 163.085938 205.195312 164.589844 204.863281 166.457031 C 204.292969 169.675781 206.429688 172.75 209.632812 173.324219 C 212.839844 173.898438 215.902344 171.753906 216.472656 168.535156 C 217.046875 165.316406 214.910156 162.242188 211.703125 161.664062 C 211.21875 161.578125 210.738281 161.554688 210.265625 161.585938 C 209.339844 158.902344 208.234375 156.464844 206.945312 154.285156 C 209.820312 150.28125 209.839844 144.699219 206.640625 140.636719 C 205.410156 139.074219 203.851562 137.925781 202.144531 137.210938 C 202.820312 134.066406 203.015625 131.054688 202.988281 128.5 C 203.550781 128.347656 204.101562 128.125 204.636719 127.824219 C 208.195312 125.835938 209.472656 121.324219 207.492188 117.75 " fill-opacity="1" fill-rule="nonzero"/><g fill="#000000" fill-opacity="1"><g transform="translate(115.160153, 243.041)"><g><path d="M 13.171875 0 L 11.875 -4.25 L 5.375 -4.25 L 4.078125 0 L 0 0 L 6.296875 -17.921875 L 10.921875 -17.921875 L 17.25 0 Z M 10.96875 -7.421875 C 9.78125 -11.273438 9.109375 -13.453125 8.953125 -13.953125 C 8.804688 -14.453125 8.695312 -14.851562 8.625 -15.15625 C 8.363281 -14.113281 7.597656 -11.535156 6.328125 -7.421875 Z M 10.96875 -7.421875 "/></g></g></g><g fill="#000000" fill-opacity="1"><g transform="translate(132.405998, 243.041)"><g><path d="M 18.078125 0 L 13.265625 0 L 5.5 -13.5 L 5.390625 -13.5 C 5.546875 -11.113281 5.625 -9.414062 5.625 -8.40625 L 5.625 0 L 2.25 0 L 2.25 -17.84375 L 7.015625 -17.84375 L 14.765625 -4.484375 L 14.859375 -4.484375 C 14.734375 -6.796875 14.671875 -8.4375 14.671875 -9.40625 L 14.671875 -17.84375 L 18.078125 -17.84375 Z M 18.078125 0 "/></g></g></g><g fill="#000000" fill-opacity="1"><g transform="translate(152.727534, 243.041)"><g><path d="M 16.765625 -17.84375 L 16.765625 -6.296875 C 16.765625 -4.984375 16.46875 -3.828125 15.875 -2.828125 C 15.289062 -1.835938 14.441406 -1.078125 13.328125 -0.546875 C 12.210938 -0.015625 10.894531 0.25 9.375 0.25 C 7.082031 0.25 5.300781 -0.335938 4.03125 -1.515625 C 2.757812 -2.691406 2.125 -4.300781 2.125 -6.34375 L 2.125 -17.84375 L 5.890625 -17.84375 L 5.890625 -6.921875 C 5.890625 -5.546875 6.164062 -4.535156 6.71875 -3.890625 C 7.28125 -3.253906 8.195312 -2.9375 9.46875 -2.9375 C 10.707031 -2.9375 11.601562 -3.257812 12.15625 -3.90625 C 12.71875 -4.550781 13 -5.566406 13 -6.953125 L 13 -17.84375 Z M 16.765625 -17.84375 "/></g></g></g><g fill="#000000" fill-opacity="1"><g transform="translate(171.621064, 243.041)"><g><path d="M 9.015625 -10.015625 L 16.09375 -10.015625 L 16.09375 -0.765625 C 14.945312 -0.390625 13.867188 -0.128906 12.859375 0.015625 C 11.847656 0.171875 10.8125 0.25 9.75 0.25 C 7.0625 0.25 5.003906 -0.539062 3.578125 -2.125 C 2.160156 -3.707031 1.453125 -5.984375 1.453125 -8.953125 C 1.453125 -11.828125 2.273438 -14.070312 3.921875 -15.6875 C 5.566406 -17.300781 7.851562 -18.109375 10.78125 -18.109375 C 12.613281 -18.109375 14.378906 -17.738281 16.078125 -17 L 14.8125 -13.984375 C 13.507812 -14.628906 12.15625 -14.953125 10.75 -14.953125 C 9.113281 -14.953125 7.800781 -14.398438 6.8125 -13.296875 C 5.832031 -12.203125 5.34375 -10.726562 5.34375 -8.875 C 5.34375 -6.9375 5.738281 -5.457031 6.53125 -4.4375 C 7.332031 -3.414062 8.488281 -2.90625 10 -2.90625 C 10.789062 -2.90625 11.59375 -2.988281 12.40625 -3.15625 L 12.40625 -6.875 L 9.015625 -6.875 Z M 9.015625 -10.015625 "/></g></g></g><g fill="#000000" fill-opacity="1"><g transform="translate(189.721268, 243.041)"><g><path d="M 6.03125 -9.921875 L 7.25 -9.921875 C 8.445312 -9.921875 9.328125 -10.117188 9.890625 -10.515625 C 10.460938 -10.921875 10.75 -11.550781 10.75 -12.40625 C 10.75 -13.25 10.457031 -13.847656 9.875 -14.203125 C 9.300781 -14.566406 8.398438 -14.75 7.171875 -14.75 L 6.03125 -14.75 Z M 6.03125 -6.84375 L 6.03125 0 L 2.25 0 L 2.25 -17.84375 L 7.453125 -17.84375 C 9.867188 -17.84375 11.660156 -17.398438 12.828125 -16.515625 C 13.992188 -15.640625 14.578125 -14.300781 14.578125 -12.5 C 14.578125 -11.445312 14.285156 -10.507812 13.703125 -9.6875 C 13.128906 -8.875 12.3125 -8.238281 11.25 -7.78125 C 13.9375 -3.769531 15.6875 -1.175781 16.5 0 L 12.3125 0 L 8.046875 -6.84375 Z M 6.03125 -6.84375 "/></g></g></g><g fill="#000000" fill-opacity="1"><g transform="translate(206.222594, 243.041)"><g><path d="M 13.171875 0 L 11.875 -4.25 L 5.375 -4.25 L 4.078125 0 L 0 0 L 6.296875 -17.921875 L 10.921875 -17.921875 L 17.25 0 Z M 10.96875 -7.421875 C 9.78125 -11.273438 9.109375 -13.453125 8.953125 -13.953125 C 8.804688 -14.453125 8.695312 -14.851562 8.625 -15.15625 C 8.363281 -14.113281 7.597656 -11.535156 6.328125 -7.421875 Z M 10.96875 -7.421875 "/></g></g></g><g fill="#000000" fill-opacity="1"><g transform="translate(223.468439, 243.041)"><g><path d="M 16.875 0 L 13.09375 0 L 13.09375 -7.703125 L 6.03125 -7.703125 L 6.03125 0 L 2.25 0 L 2.25 -17.84375 L 6.03125 -17.84375 L 6.03125 -10.859375 L 13.09375 -10.859375 L 13.09375 -17.84375 L 16.875 -17.84375 Z M 16.875 0 "/></g></g></g><g fill="#000000" fill-opacity="1"><g transform="translate(242.593873, 243.041)"><g><path d="M 13.171875 0 L 11.875 -4.25 L 5.375 -4.25 L 4.078125 0 L 0 0 L 6.296875 -17.921875 L 10.921875 -17.921875 L 17.25 0 Z M 10.96875 -7.421875 C 9.78125 -11.273438 9.109375 -13.453125 8.953125 -13.953125 C 8.804688 -14.453125 8.695312 -14.851562 8.625 -15.15625 C 8.363281 -14.113281 7.597656 -11.535156 6.328125 -7.421875 Z M 10.96875 -7.421875 "/></g></g></g><g fill="#3871c1" fill-opacity="1"><g transform="translate(170.365694, 259.573109)"><g><path d="M 3.875 0 L 2.859375 0 L 2.859375 -7.796875 L 0.109375 -7.796875 L 0.109375 -8.6875 L 6.625 -8.6875 L 6.625 -7.796875 L 3.875 -7.796875 Z M 3.875 0 "/></g></g></g><g fill="#3871c1" fill-opacity="1"><g transform="translate(178.471358, 259.573109)"><g><path d="M 6.03125 0 L 1.1875 0 L 1.1875 -8.6875 L 6.03125 -8.6875 L 6.03125 -7.796875 L 2.203125 -7.796875 L 2.203125 -5 L 5.8125 -5 L 5.8125 -4.09375 L 2.203125 -4.09375 L 2.203125 -0.90625 L 6.03125 -0.90625 Z M 6.03125 0 "/></g></g></g><g fill="#3871c1" fill-opacity="1"><g transform="translate(186.61266, 259.573109)"><g><path d="M 4.921875 -7.90625 C 3.960938 -7.90625 3.207031 -7.585938 2.65625 -6.953125 C 2.101562 -6.316406 1.828125 -5.445312 1.828125 -4.34375 C 1.828125 -3.207031 2.09375 -2.328125 2.625 -1.703125 C 3.15625 -1.085938 3.914062 -0.78125 4.90625 -0.78125 C 5.507812 -0.78125 6.203125 -0.890625 6.984375 -1.109375 L 6.984375 -0.21875 C 6.378906 0.0078125 5.632812 0.125 4.75 0.125 C 3.46875 0.125 2.476562 -0.257812 1.78125 -1.03125 C 1.09375 -1.8125 0.75 -2.921875 0.75 -4.359375 C 0.75 -5.253906 0.914062 -6.035156 1.25 -6.703125 C 1.582031 -7.378906 2.0625 -7.898438 2.6875 -8.265625 C 3.320312 -8.628906 4.066406 -8.8125 4.921875 -8.8125 C 5.835938 -8.8125 6.632812 -8.644531 7.3125 -8.3125 L 6.890625 -7.453125 C 6.234375 -7.753906 5.578125 -7.90625 4.921875 -7.90625 Z M 4.921875 -7.90625 "/></g></g></g><g fill="#3871c1" fill-opacity="1"><g transform="translate(195.662703, 259.573109)"><g><path d="M 7.796875 0 L 6.78125 0 L 6.78125 -4.09375 L 2.203125 -4.09375 L 2.203125 0 L 1.1875 0 L 1.1875 -8.6875 L 2.203125 -8.6875 L 2.203125 -5 L 6.78125 -5 L 6.78125 -8.6875 L 7.796875 -8.6875 Z M 7.796875 0 "/></g></g></g></svg>